<?xml version="1.0" encoding="UTF-8" standalone="no"?>
<!-- Created with Inkscape (http://www.inkscape.org/) -->

<svg
   width="12.428714mm"
   height="8.1541061mm"
   viewBox="0 0 12.428715 8.1541061"
   version="1.1"
   id="svg1"
   inkscape:version="1.3 (0e150ed6c4, 2023-07-21)"
   sodipodi:docname="without-trade-powers-discard-good-for-trade-price.svg"
   xmlns:inkscape="http://www.inkscape.org/namespaces/inkscape"
   xmlns:sodipodi="http://sodipodi.sourceforge.net/DTD/sodipodi-0.dtd"
   xmlns="http://www.w3.org/2000/svg"
   xmlns:svg="http://www.w3.org/2000/svg">
  <sodipodi:namedview
     id="namedview1"
     pagecolor="#ffffff"
     bordercolor="#000000"
     borderopacity="0.25"
     inkscape:showpageshadow="2"
     inkscape:pageopacity="0.0"
     inkscape:pagecheckerboard="0"
     inkscape:deskcolor="#d1d1d1"
     inkscape:document-units="mm"
     inkscape:zoom="13.189825"
     inkscape:cx="18.27166"
     inkscape:cy="22.214093"
     inkscape:window-width="1920"
     inkscape:window-height="1013"
     inkscape:window-x="0"
     inkscape:window-y="30"
     inkscape:window-maximized="1"
     inkscape:current-layer="layer1" />
  <defs
     id="defs1">
    <clipPath
       clipPathUnits="userSpaceOnUse"
       id="clipPath8909">
      <path
         d="m 374.521,525.867 h 32.856 v 19.742 h -32.856 z"
         transform="translate(-386.65998,-528.93601)"
         id="path8909" />
    </clipPath>
    <clipPath
       clipPathUnits="userSpaceOnUse"
       id="clipPath8911">
      <path
         d="m 374.521,525.867 h 32.856 v 19.742 h -32.856 z"
         transform="translate(-405.57799,-528.93601)"
         id="path8911" />
    </clipPath>
    <clipPath
       clipPathUnits="userSpaceOnUse"
       id="clipPath8913">
      <path
         d="m 374.521,525.867 h 32.856 v 19.742 h -32.856 z"
         transform="translate(-407.17699,-538.33901)"
         id="path8913" />
    </clipPath>
    <clipPath
       clipPathUnits="userSpaceOnUse"
       id="clipPath8915">
      <path
         d="m 374.521,525.867 h 32.856 v 19.742 h -32.856 z"
         transform="translate(-407.17699,-536.07202)"
         id="path8915" />
    </clipPath>
    <clipPath
       clipPathUnits="userSpaceOnUse"
       id="clipPath8917">
      <path
         d="m 374.521,525.867 h 32.856 v 19.742 h -32.856 z"
         transform="translate(-407.17699,-533.80301)"
         id="path8917" />
    </clipPath>
    <clipPath
       clipPathUnits="userSpaceOnUse"
       id="clipPath8919">
      <path
         d="m 374.521,525.867 h 32.856 v 19.742 h -32.856 z"
         transform="translate(-407.17699,-531.53602)"
         id="path8919" />
    </clipPath>
    <clipPath
       clipPathUnits="userSpaceOnUse"
       id="clipPath8921">
      <path
         d="m 374.521,525.867 h 32.856 v 19.742 h -32.856 z"
         transform="translate(-396.50703,-541.74101)"
         id="path8921" />
    </clipPath>
    <clipPath
       clipPathUnits="userSpaceOnUse"
       id="clipPath8923">
      <path
         d="m 374.521,525.867 h 32.856 v 19.742 h -32.856 z"
         transform="translate(-398.36403,-532.27102)"
         id="path8923" />
    </clipPath>
    <clipPath
       clipPathUnits="userSpaceOnUse"
       id="clipPath8925">
      <path
         d="m 374.521,525.867 h 32.856 v 19.742 h -32.856 z"
         transform="translate(-396.50703,-535.73801)"
         id="path8925" />
    </clipPath>
    <clipPath
       clipPathUnits="userSpaceOnUse"
       id="clipPath9173">
      <path
         d="m 374.521,503.19 h 34.483 v 19.742 h -34.483 z"
         transform="translate(-386.65998,-506.25901)"
         id="path9173" />
    </clipPath>
    <clipPath
       clipPathUnits="userSpaceOnUse"
       id="clipPath9175">
      <path
         d="m 374.521,503.19 h 34.483 v 19.742 h -34.483 z"
         transform="translate(-396.26501,-513.06001)"
         id="path9175" />
    </clipPath>
    <clipPath
       clipPathUnits="userSpaceOnUse"
       id="clipPath9177">
      <path
         d="m 374.521,480.513 h 45.754 v 19.742 h -45.754 z"
         transform="translate(-386.65998,-483.58201)"
         id="path9177" />
    </clipPath>
    <clipPath
       clipPathUnits="userSpaceOnUse"
       id="clipPath9179">
      <path
         d="m 374.521,480.513 h 45.754 v 19.742 h -45.754 z"
         transform="translate(-418.47604,-483.58201)"
         id="path9179" />
    </clipPath>
    <clipPath
       clipPathUnits="userSpaceOnUse"
       id="clipPath9181">
      <path
         d="m 374.521,480.513 h 45.754 v 19.742 h -45.754 z"
         transform="translate(-420.07504,-492.98501)"
         id="path9181" />
    </clipPath>
    <clipPath
       clipPathUnits="userSpaceOnUse"
       id="clipPath9183">
      <path
         d="m 374.521,480.513 h 45.754 v 19.742 h -45.754 z"
         transform="translate(-420.07504,-490.71801)"
         id="path9183" />
    </clipPath>
    <clipPath
       clipPathUnits="userSpaceOnUse"
       id="clipPath9185">
      <path
         d="m 374.521,480.513 h 45.754 v 19.742 h -45.754 z"
         transform="translate(-420.07504,-488.44901)"
         id="path9185" />
    </clipPath>
    <clipPath
       clipPathUnits="userSpaceOnUse"
       id="clipPath9187">
      <path
         d="m 374.521,480.513 h 45.754 v 19.742 h -45.754 z"
         transform="translate(-420.07504,-486.18201)"
         id="path9187" />
    </clipPath>
    <clipPath
       clipPathUnits="userSpaceOnUse"
       id="clipPath9189">
      <path
         d="m 374.521,480.513 h 45.754 v 19.742 h -45.754 z"
         transform="translate(-409.40599,-496.38701)"
         id="path9189" />
    </clipPath>
    <clipPath
       clipPathUnits="userSpaceOnUse"
       id="clipPath9191">
      <path
         d="m 374.521,480.513 h 45.754 v 19.742 h -45.754 z"
         transform="translate(-411.26201,-486.91601)"
         id="path9191" />
    </clipPath>
    <clipPath
       clipPathUnits="userSpaceOnUse"
       id="clipPath9193">
      <path
         d="m 374.521,480.513 h 45.754 v 19.742 h -45.754 z"
         transform="translate(-395.19903,-482.52901)"
         id="path9193" />
    </clipPath>
    <clipPath
       clipPathUnits="userSpaceOnUse"
       id="clipPath9195">
      <path
         d="m 374.521,480.513 h 45.754 v 19.742 h -45.754 z"
         transform="translate(-398.34603,-487.35301)"
         id="path9195" />
    </clipPath>
    <clipPath
       clipPathUnits="userSpaceOnUse"
       id="clipPath9197">
      <path
         d="m 374.521,480.513 h 45.754 v 19.742 h -45.754 z"
         transform="translate(-396.26501,-490.38301)"
         id="path9197" />
    </clipPath>
    <clipPath
       clipPathUnits="userSpaceOnUse"
       id="clipPath9222">
      <path
         d="m 372.206,435.443 h 36.803 v 19.458 h -36.803 z"
         transform="translate(-399.73901,-441.94501)"
         id="path9222" />
    </clipPath>
    <clipPath
       clipPathUnits="userSpaceOnUse"
       id="clipPath9224">
      <path
         d="m 372.206,435.443 h 36.803 v 19.458 h -36.803 z"
         transform="translate(-382.92701,-438.22701)"
         id="path9224" />
    </clipPath>
    <clipPath
       clipPathUnits="userSpaceOnUse"
       id="clipPath9226">
      <path
         d="m 372.206,435.443 h 36.803 v 19.458 h -36.803 z"
         transform="translate(-387.17898,-440.21201)"
         id="path9226" />
    </clipPath>
    <clipPath
       clipPathUnits="userSpaceOnUse"
       id="clipPath9228">
      <path
         d="m 372.206,435.443 h 36.803 v 19.458 h -36.803 z"
         transform="translate(-396.26801,-445.02901)"
         id="path9228" />
    </clipPath>
    <clipPath
       clipPathUnits="userSpaceOnUse"
       id="clipPath8930">
      <path
         d="m 57.384,388.311 h 33.884 v 18.543 H 57.384 Z"
         transform="translate(-68.923527,-397.58201)"
         id="path8930" />
    </clipPath>
    <clipPath
       clipPathUnits="userSpaceOnUse"
       id="clipPath8932">
      <path
         d="m 57.384,388.311 h 33.884 v 18.543 H 57.384 Z"
         transform="translate(-63.253977,-406.65401)"
         id="path8932" />
    </clipPath>
    <clipPath
       clipPathUnits="userSpaceOnUse"
       id="clipPath8934">
      <path
         d="m 57.384,388.311 h 33.884 v 18.543 H 57.384 Z"
         transform="translate(-57.584426,-397.58201)"
         id="path8934" />
    </clipPath>
    <clipPath
       clipPathUnits="userSpaceOnUse"
       id="clipPath8936">
      <path
         d="m 57.384,388.311 h 33.884 v 18.543 H 57.384 Z"
         transform="translate(-63.253977,-397.58201)"
         id="path8936" />
    </clipPath>
    <clipPath
       clipPathUnits="userSpaceOnUse"
       id="clipPath8938">
      <path
         d="m 57.384,388.311 h 33.884 v 18.543 H 57.384 Z"
         transform="translate(-68.923527,-390.78001)"
         id="path8938" />
    </clipPath>
    <clipPath
       clipPathUnits="userSpaceOnUse"
       id="clipPath8940">
      <path
         d="m 57.384,388.311 h 33.884 v 18.543 H 57.384 Z"
         transform="translate(-78.528177,-397.58201)"
         id="path8940" />
    </clipPath>
    <clipPath
       clipPathUnits="userSpaceOnUse"
       id="clipPath8942">
      <path
         d="m 57.384,388.311 h 33.884 v 18.543 H 57.384 Z"
         transform="translate(-70.374702,-395.75301)"
         id="path8942" />
    </clipPath>
    <clipPath
       clipPathUnits="userSpaceOnUse"
       id="clipPath8944">
      <path
         d="m 57.384,388.311 h 33.884 v 18.543 H 57.384 Z"
         transform="translate(-71.827377,-395.75301)"
         id="path8944" />
    </clipPath>
    <clipPath
       clipPathUnits="userSpaceOnUse"
       id="clipPath8949">
      <path
         d="m 56.783,364.434 h 34.484 v 19.742 H 56.783 Z"
         transform="translate(-68.922102,-367.50301)"
         id="path8949" />
    </clipPath>
    <clipPath
       clipPathUnits="userSpaceOnUse"
       id="clipPath8951">
      <path
         d="m 56.783,364.434 h 34.484 v 19.742 H 56.783 Z"
         transform="translate(-78.527877,-374.30401)"
         id="path8951" />
    </clipPath>
    <clipPath
       clipPathUnits="userSpaceOnUse"
       id="clipPath8953">
      <path
         d="m 56.783,364.434 h 34.484 v 19.742 H 56.783 Z"
         transform="translate(-70.374027,-372.47601)"
         id="path8953" />
    </clipPath>
    <clipPath
       clipPathUnits="userSpaceOnUse"
       id="clipPath8955">
      <path
         d="m 56.783,364.434 h 34.484 v 19.742 H 56.783 Z"
         transform="translate(-71.826777,-372.47601)"
         id="path8955" />
    </clipPath>
    <clipPath
       clipPathUnits="userSpaceOnUse"
       id="clipPath8960">
      <path
         d="m 56.783,341.757 h 34.484 v 19.742 H 56.783 Z"
         transform="translate(-68.922102,-344.82601)"
         id="path8960" />
    </clipPath>
    <clipPath
       clipPathUnits="userSpaceOnUse"
       id="clipPath8962">
      <path
         d="m 56.783,341.757 h 34.484 v 19.742 H 56.783 Z"
         transform="translate(-78.527502,-351.62801)"
         id="path8962" />
    </clipPath>
    <clipPath
       clipPathUnits="userSpaceOnUse"
       id="clipPath8964">
      <path
         d="m 56.783,341.757 h 34.484 v 19.742 H 56.783 Z"
         transform="translate(-70.374027,-349.79901)"
         id="path8964" />
    </clipPath>
    <clipPath
       clipPathUnits="userSpaceOnUse"
       id="clipPath8966">
      <path
         d="m 56.783,341.757 h 34.484 v 19.742 H 56.783 Z"
         transform="translate(-73.170477,-349.76001)"
         id="path8966" />
    </clipPath>
    <clipPath
       clipPathUnits="userSpaceOnUse"
       id="clipPath8968">
      <path
         d="m 56.783,319.08 h 45.755 v 19.742 H 56.783 Z"
         transform="translate(-68.922102,-322.14901)"
         id="path8968" />
    </clipPath>
    <clipPath
       clipPathUnits="userSpaceOnUse"
       id="clipPath8970">
      <path
         d="m 56.783,319.08 h 45.755 v 19.742 H 56.783 Z"
         transform="translate(-100.73898,-322.14901)"
         id="path8970" />
    </clipPath>
    <clipPath
       clipPathUnits="userSpaceOnUse"
       id="clipPath8972">
      <path
         d="m 56.783,319.08 h 45.755 v 19.742 H 56.783 Z"
         transform="translate(-102.33798,-331.55201)"
         id="path8972" />
    </clipPath>
    <clipPath
       clipPathUnits="userSpaceOnUse"
       id="clipPath8974">
      <path
         d="m 56.783,319.08 h 45.755 v 19.742 H 56.783 Z"
         transform="translate(-102.33798,-329.28501)"
         id="path8974" />
    </clipPath>
    <clipPath
       clipPathUnits="userSpaceOnUse"
       id="clipPath8976">
      <path
         d="m 56.783,319.08 h 45.755 v 19.742 H 56.783 Z"
         transform="translate(-102.33798,-327.01601)"
         id="path8976" />
    </clipPath>
    <clipPath
       clipPathUnits="userSpaceOnUse"
       id="clipPath8978">
      <path
         d="m 56.783,319.08 h 45.755 v 19.742 H 56.783 Z"
         transform="translate(-102.33798,-324.74901)"
         id="path8978" />
    </clipPath>
    <clipPath
       clipPathUnits="userSpaceOnUse"
       id="clipPath8980">
      <path
         d="m 56.783,319.08 h 45.755 v 19.742 H 56.783 Z"
         transform="translate(-91.668927,-334.95301)"
         id="path8980" />
    </clipPath>
    <clipPath
       clipPathUnits="userSpaceOnUse"
       id="clipPath8982">
      <path
         d="m 56.783,319.08 h 45.755 v 19.742 H 56.783 Z"
         transform="translate(-93.525177,-325.48401)"
         id="path8982" />
    </clipPath>
    <clipPath
       clipPathUnits="userSpaceOnUse"
       id="clipPath8984">
      <path
         d="m 56.783,319.08 h 45.755 v 19.742 H 56.783 Z"
         transform="translate(-77.461077,-321.09601)"
         id="path8984" />
    </clipPath>
    <clipPath
       clipPathUnits="userSpaceOnUse"
       id="clipPath8986">
      <path
         d="m 56.783,319.08 h 45.755 v 19.742 H 56.783 Z"
         transform="translate(-80.608002,-325.92001)"
         id="path8986" />
    </clipPath>
    <clipPath
       clipPathUnits="userSpaceOnUse"
       id="clipPath8988">
      <path
         d="m 56.783,319.08 h 45.755 v 19.742 H 56.783 Z"
         transform="translate(-78.527502,-328.95001)"
         id="path8988" />
    </clipPath>
    <clipPath
       clipPathUnits="userSpaceOnUse"
       id="clipPath8990">
      <path
         d="m 56.783,319.08 h 45.755 v 19.742 H 56.783 Z"
         transform="translate(-70.374027,-327.12101)"
         id="path8990" />
    </clipPath>
    <clipPath
       clipPathUnits="userSpaceOnUse"
       id="clipPath8992">
      <path
         d="m 56.783,319.08 h 45.755 v 19.742 H 56.783 Z"
         transform="translate(-73.170477,-327.08301)"
         id="path8992" />
    </clipPath>
    <clipPath
       clipPathUnits="userSpaceOnUse"
       id="clipPath8994">
      <path
         d="m 214.523,388.097 h 50.576 v 18.971 h -50.576 z"
         transform="translate(-226.34801,-399.50401)"
         id="path8994" />
    </clipPath>
    <clipPath
       clipPathUnits="userSpaceOnUse"
       id="clipPath8996">
      <path
         d="m 214.523,388.097 h 50.576 v 18.971 h -50.576 z"
         transform="translate(-218.05698,-402.85301)"
         id="path8996" />
    </clipPath>
    <clipPath
       clipPathUnits="userSpaceOnUse"
       id="clipPath8998">
      <path
         d="m 214.523,388.097 h 50.576 v 18.971 h -50.576 z"
         transform="translate(-218.68001,-393.93301)"
         id="path8998" />
    </clipPath>
    <clipPath
       clipPathUnits="userSpaceOnUse"
       id="clipPath9000">
      <path
         d="m 214.523,388.097 h 50.576 v 18.971 h -50.576 z"
         transform="translate(-222.51401,-396.71901)"
         id="path9000" />
    </clipPath>
    <clipPath
       clipPathUnits="userSpaceOnUse"
       id="clipPath9002">
      <path
         d="m 214.523,388.097 h 50.576 v 18.971 h -50.576 z"
         transform="translate(-229.69001,-394.90401)"
         id="path9002" />
    </clipPath>
    <clipPath
       clipPathUnits="userSpaceOnUse"
       id="clipPath9004">
      <path
         d="m 214.523,388.097 h 50.576 v 18.971 h -50.576 z"
         transform="translate(-231.46998,-399.62701)"
         id="path9004" />
    </clipPath>
    <clipPath
       clipPathUnits="userSpaceOnUse"
       id="clipPath9006">
      <path
         d="m 214.523,388.097 h 50.576 v 18.971 h -50.576 z"
         transform="translate(-225.25901,-406.05901)"
         id="path9006" />
    </clipPath>
    <clipPath
       clipPathUnits="userSpaceOnUse"
       id="clipPath9008">
      <path
         d="m 214.523,388.097 h 50.576 v 18.971 h -50.576 z"
         transform="translate(-222.19901,-397.65701)"
         id="path9008" />
    </clipPath>
    <clipPath
       clipPathUnits="userSpaceOnUse"
       id="clipPath9010">
      <path
         d="m 214.523,388.097 h 50.576 v 18.971 h -50.576 z"
         transform="translate(-226.83498,-398.64301)"
         id="path9010" />
    </clipPath>
    <clipPath
       clipPathUnits="userSpaceOnUse"
       id="clipPath9012">
      <path
         d="m 214.523,388.097 h 50.576 v 18.971 h -50.576 z"
         transform="translate(-232.65198,-394.06601)"
         id="path9012" />
    </clipPath>
    <clipPath
       clipPathUnits="userSpaceOnUse"
       id="clipPath9014">
      <path
         d="m 214.523,388.097 h 50.576 v 18.971 h -50.576 z"
         transform="translate(-236.20001,-397.65701)"
         id="path9014" />
    </clipPath>
    <clipPath
       clipPathUnits="userSpaceOnUse"
       id="clipPath9016">
      <path
         d="m 214.523,388.097 h 50.576 v 18.971 h -50.576 z"
         transform="translate(-233.14098,-406.05901)"
         id="path9016" />
    </clipPath>
    <clipPath
       clipPathUnits="userSpaceOnUse"
       id="clipPath9018">
      <path
         d="m 214.523,388.097 h 50.576 v 18.971 h -50.576 z"
         transform="translate(-226.92903,-399.62801)"
         id="path9018" />
    </clipPath>
    <clipPath
       clipPathUnits="userSpaceOnUse"
       id="clipPath9020">
      <path
         d="m 214.523,388.097 h 50.576 v 18.971 h -50.576 z"
         transform="translate(-231.56403,-398.64301)"
         id="path9020" />
    </clipPath>
    <clipPath
       clipPathUnits="userSpaceOnUse"
       id="clipPath9022">
      <path
         d="m 214.523,388.097 h 50.576 v 18.971 h -50.576 z"
         transform="translate(-235.01801,-392.09601)"
         id="path9022" />
    </clipPath>
    <clipPath
       clipPathUnits="userSpaceOnUse"
       id="clipPath9024">
      <path
         d="m 214.523,388.097 h 50.576 v 18.971 h -50.576 z"
         transform="translate(-239.71803,-393.93301)"
         id="path9024" />
    </clipPath>
    <clipPath
       clipPathUnits="userSpaceOnUse"
       id="clipPath9026">
      <path
         d="m 214.523,388.097 h 50.576 v 18.971 h -50.576 z"
         transform="translate(-240.34098,-402.85301)"
         id="path9026" />
    </clipPath>
    <clipPath
       clipPathUnits="userSpaceOnUse"
       id="clipPath9028">
      <path
         d="m 214.523,388.097 h 50.576 v 18.971 h -50.576 z"
         transform="translate(-232.05003,-399.50401)"
         id="path9028" />
    </clipPath>
    <clipPath
       clipPathUnits="userSpaceOnUse"
       id="clipPath9030">
      <path
         d="m 214.523,388.097 h 50.576 v 18.971 h -50.576 z"
         transform="translate(-235.88501,-396.71901)"
         id="path9030" />
    </clipPath>
    <clipPath
       clipPathUnits="userSpaceOnUse"
       id="clipPath9032">
      <path
         d="m 214.523,388.097 h 50.576 v 18.971 h -50.576 z"
         transform="translate(-236.37603,-389.33301)"
         id="path9032" />
    </clipPath>
    <clipPath
       clipPathUnits="userSpaceOnUse"
       id="clipPath9034">
      <path
         d="m 214.523,388.097 h 50.576 v 18.971 h -50.576 z"
         transform="translate(-251.29301,-388.93301)"
         id="path9034" />
    </clipPath>
    <clipPath
       clipPathUnits="userSpaceOnUse"
       id="clipPath9036">
      <path
         d="m 214.523,388.097 h 50.576 v 18.971 h -50.576 z"
         transform="translate(-252.36003,-396.78801)"
         id="path9036" />
    </clipPath>
    <clipPath
       clipPathUnits="userSpaceOnUse"
       id="clipPath9038">
      <path
         d="m 214.523,388.097 h 50.576 v 18.971 h -50.576 z"
         transform="translate(-252.73503,-393.73101)"
         id="path9038" />
    </clipPath>
    <clipPath
       clipPathUnits="userSpaceOnUse"
       id="clipPath9040">
      <path
         d="m 214.523,388.097 h 50.576 v 18.971 h -50.576 z"
         transform="translate(-2.5e-5)"
         id="path9040" />
    </clipPath>
    <clipPath
       clipPathUnits="userSpaceOnUse"
       id="clipPath9042">
      <path
         d="m 214.523,388.097 h 50.576 v 18.971 h -50.576 z"
         transform="translate(-259.59003,-393.75801)"
         id="path9042" />
    </clipPath>
    <clipPath
       clipPathUnits="userSpaceOnUse"
       id="clipPath9044">
      <path
         d="m 375.822,387.462 h 36.431 v 24.315 h -36.431 z"
         transform="translate(-387.36101,-396.73301)"
         id="path9044" />
    </clipPath>
    <clipPath
       clipPathUnits="userSpaceOnUse"
       id="clipPath9046">
      <path
         d="m 375.822,387.462 h 36.431 v 24.315 h -36.431 z"
         transform="translate(-381.69303,-405.80401)"
         id="path9046" />
    </clipPath>
    <clipPath
       clipPathUnits="userSpaceOnUse"
       id="clipPath9048">
      <path
         d="m 375.822,387.462 h 36.431 v 24.315 h -36.431 z"
         transform="translate(-376.02198,-396.73301)"
         id="path9048" />
    </clipPath>
    <clipPath
       clipPathUnits="userSpaceOnUse"
       id="clipPath9050">
      <path
         d="m 375.822,387.462 h 36.431 v 24.315 h -36.431 z"
         transform="translate(-381.69303,-396.73301)"
         id="path9050" />
    </clipPath>
    <clipPath
       clipPathUnits="userSpaceOnUse"
       id="clipPath9052">
      <path
         d="m 375.822,387.462 h 36.431 v 24.315 h -36.431 z"
         transform="translate(-387.36101,-389.93101)"
         id="path9052" />
    </clipPath>
    <clipPath
       clipPathUnits="userSpaceOnUse"
       id="clipPath9054">
      <path
         d="m 375.822,387.462 h 36.431 v 24.315 h -36.431 z"
         transform="translate(-406.27999,-389.93101)"
         id="path9054" />
    </clipPath>
    <clipPath
       clipPathUnits="userSpaceOnUse"
       id="clipPath9056">
      <path
         d="m 375.822,387.462 h 36.431 v 24.315 h -36.431 z"
         transform="translate(-407.87899,-399.33401)"
         id="path9056" />
    </clipPath>
    <clipPath
       clipPathUnits="userSpaceOnUse"
       id="clipPath9058">
      <path
         d="m 375.822,387.462 h 36.431 v 24.315 h -36.431 z"
         transform="translate(-407.87899,-397.06701)"
         id="path9058" />
    </clipPath>
    <clipPath
       clipPathUnits="userSpaceOnUse"
       id="clipPath9060">
      <path
         d="m 375.822,387.462 h 36.431 v 24.315 h -36.431 z"
         transform="translate(-407.87899,-394.79801)"
         id="path9060" />
    </clipPath>
    <clipPath
       clipPathUnits="userSpaceOnUse"
       id="clipPath9062">
      <path
         d="m 375.822,387.462 h 36.431 v 24.315 h -36.431 z"
         transform="translate(-407.87899,-392.53101)"
         id="path9062" />
    </clipPath>
    <clipPath
       clipPathUnits="userSpaceOnUse"
       id="clipPath9064">
      <path
         d="m 375.822,387.462 h 36.431 v 24.315 h -36.431 z"
         transform="translate(-397.20798,-402.73501)"
         id="path9064" />
    </clipPath>
    <clipPath
       clipPathUnits="userSpaceOnUse"
       id="clipPath9066">
      <path
         d="m 375.822,387.462 h 36.431 v 24.315 h -36.431 z"
         transform="translate(-400.56101,-393.23901)"
         id="path9066" />
    </clipPath>
    <clipPath
       clipPathUnits="userSpaceOnUse"
       id="clipPath9068">
      <path
         d="m 375.822,387.462 h 36.431 v 24.315 h -36.431 z"
         transform="translate(-397.20798,-396.73201)"
         id="path9068" />
    </clipPath>
    <clipPath
       clipPathUnits="userSpaceOnUse"
       id="clipPath9070">
      <path
         d="m 375.822,387.462 h 36.431 v 24.315 h -36.431 z"
         transform="translate(-410.65301,-405.80301)"
         id="path9070" />
    </clipPath>
    <clipPath
       clipPathUnits="userSpaceOnUse"
       id="clipPath9072">
      <path
         d="m 375.822,387.462 h 36.431 v 24.315 h -36.431 z"
         transform="translate(-409.34299,-405.72901)"
         id="path9072" />
    </clipPath>
    <clipPath
       clipPathUnits="userSpaceOnUse"
       id="clipPath9074">
      <path
         d="m 375.822,387.462 h 36.431 v 24.315 h -36.431 z"
         transform="translate(-406.45504,-404.31801)"
         id="path9074" />
    </clipPath>
    <clipPath
       clipPathUnits="userSpaceOnUse"
       id="clipPath9076">
      <path
         d="m 375.822,387.462 h 36.431 v 24.315 h -36.431 z"
         transform="translate(-403.27901,-408.97701)"
         id="path9076" />
    </clipPath>
  </defs>
  <g
     inkscape:label="Layer 1"
     inkscape:groupmode="layer"
     id="layer1"
     transform="translate(-51.329124,-119.85623)">
    <path
       id="path9043"
       d="M 0,0 V 6.804 C 0,8.055 -1.014,9.071 -2.267,9.071 H -5.669 V 0 Z"
       style="fill:#daa566;fill-opacity:1;fill-rule:nonzero;stroke:none"
       transform="matrix(0.35277776,0,0,-0.35277776,55.399827,124.73974)"
       clip-path="url(#clipPath9044)" />
    <path
       id="path9045"
       d="M 0,0 H -3.402 C -4.655,0 -5.67,-1.016 -5.67,-2.267 V -9.071 H 0 Z"
       style="fill:#80d6f7;fill-opacity:1;fill-rule:nonzero;stroke:none"
       transform="matrix(0.35277776,0,0,-0.35277776,53.400292,121.53969)"
       clip-path="url(#clipPath9046)" />
    <path
       id="path9047"
       d="M 0,0 V -6.802 C 0,-8.055 1.016,-9.071 2.269,-9.071 H 5.67 V 0 Z"
       style="fill:#80cc28;fill-opacity:1;fill-rule:nonzero;stroke:none"
       transform="matrix(0.35277776,0,0,-0.35277776,51.399671,124.73974)"
       clip-path="url(#clipPath9048)" />
    <path
       id="path9049"
       d="m 0,0 v -9.071 h 3.402 c 1.253,0 2.267,1.016 2.267,2.269 V 0 Z"
       style="fill:#fff200;fill-opacity:1;fill-rule:nonzero;stroke:none"
       transform="matrix(0.35277776,0,0,-0.35277776,53.400292,124.73974)"
       clip-path="url(#clipPath9050)" />
    <path
       id="path9051"
       d="M 0,0 C 0,-1.253 -1.014,-2.269 -2.267,-2.269 H -9.07 c -1.253,0 -2.269,1.016 -2.269,2.269 v 13.606 c 0,1.252 1.016,2.267 2.269,2.267 h 6.803 C -1.014,15.873 0,14.858 0,13.606 Z"
       style="fill:none;stroke:#231f20;stroke-width:0.4;stroke-linecap:round;stroke-linejoin:round;stroke-miterlimit:4;stroke-dasharray:none;stroke-opacity:1"
       transform="matrix(0.35277776,0,0,-0.35277776,55.399827,127.13933)"
       clip-path="url(#clipPath9052)" />
    <path
       id="path9053"
       d="m 0,0 c 0,-1.253 -1.016,-2.269 -2.269,-2.269 h -6.803 c -1.251,0 -2.267,1.016 -2.267,2.269 v 13.605 c 0,1.253 1.016,2.268 2.267,2.268 h 6.803 C -1.016,15.873 0,14.858 0,13.605 Z"
       style="fill:#ffffff;fill-opacity:1;fill-rule:nonzero;stroke:#231f20;stroke-width:0.4;stroke-linecap:round;stroke-linejoin:round;stroke-miterlimit:4;stroke-dasharray:none;stroke-opacity:1"
       transform="matrix(0.35277776,0,0,-0.35277776,62.074021,127.13933)"
       clip-path="url(#clipPath9054)" />
    <path
       id="path9055"
       d="m 0,0 c 0,-0.627 -0.508,-1.134 -1.134,-1.134 h -1.468 c -0.626,0 -1.134,0.507 -1.134,1.134 0,0.627 0.508,1.134 1.134,1.134 h 1.468 C -0.508,1.134 0,0.627 0,0"
       style="fill:#e9e9e9;fill-opacity:1;fill-rule:nonzero;stroke:#231f20;stroke-width:0.4;stroke-linecap:round;stroke-linejoin:round;stroke-miterlimit:4;stroke-dasharray:none;stroke-opacity:1"
       transform="matrix(0.35277776,0,0,-0.35277776,62.638113,123.82216)"
       clip-path="url(#clipPath9056)" />
    <path
       id="path9057"
       d="m 0,0 c 0,-0.627 -0.508,-1.134 -1.134,-1.134 h -1.468 c -0.626,0 -1.134,0.507 -1.134,1.134 0,0.626 0.508,1.134 1.134,1.134 h 1.468 C -0.508,1.134 0,0.626 0,0"
       style="fill:#e9e9e9;fill-opacity:1;fill-rule:nonzero;stroke:#231f20;stroke-width:0.4;stroke-linecap:round;stroke-linejoin:round;stroke-miterlimit:4;stroke-dasharray:none;stroke-opacity:1"
       transform="matrix(0.35277776,0,0,-0.35277776,62.638113,124.62191)"
       clip-path="url(#clipPath9058)" />
    <path
       id="path9059"
       d="m 0,0 c 0,-0.625 -0.508,-1.133 -1.134,-1.133 h -1.468 c -0.626,0 -1.134,0.508 -1.134,1.133 0,0.627 0.508,1.134 1.134,1.134 h 1.468 C -0.508,1.134 0,0.627 0,0"
       style="fill:#e9e9e9;fill-opacity:1;fill-rule:nonzero;stroke:#231f20;stroke-width:0.4;stroke-linecap:round;stroke-linejoin:round;stroke-miterlimit:4;stroke-dasharray:none;stroke-opacity:1"
       transform="matrix(0.35277776,0,0,-0.35277776,62.638113,125.42236)"
       clip-path="url(#clipPath9060)" />
    <path
       id="path9061"
       d="m 0,0 c 0,-0.627 -0.508,-1.133 -1.134,-1.133 h -1.468 c -0.626,0 -1.134,0.506 -1.134,1.133 0,0.627 0.508,1.134 1.134,1.134 h 1.468 C -0.508,1.134 0,0.627 0,0"
       style="fill:#e9e9e9;fill-opacity:1;fill-rule:nonzero;stroke:#231f20;stroke-width:0.4;stroke-linecap:round;stroke-linejoin:round;stroke-miterlimit:4;stroke-dasharray:none;stroke-opacity:1"
       transform="matrix(0.35277776,0,0,-0.35277776,62.638113,126.22211)"
       clip-path="url(#clipPath9062)" />
    <path
       id="path9063"
       d="m 0,0 h -2.266 c -1.253,0 -2.268,-1.015 -2.268,-2.267 v -7.472 c 0,-1.252 1.015,-2.267 2.268,-2.267 v 9.739 H 0 c 0.627,0 1.134,0.508 1.134,1.133 C 1.134,-0.508 0.627,0 0,0"
       style="fill:#e9e9e9;fill-opacity:1;fill-rule:nonzero;stroke:#231f20;stroke-width:0.4;stroke-linecap:round;stroke-linejoin:round;stroke-miterlimit:4;stroke-dasharray:none;stroke-opacity:1"
       transform="matrix(0.35277776,0,0,-0.35277776,58.873621,122.62236)"
       clip-path="url(#clipPath9064)" />
    <path
       id="path9065"
       d="m 0,0 c -0.378,0 -0.687,0.309 -0.687,0.687 0,0.378 0.309,0.695 0.687,0.695 0.378,0 0.695,-0.317 0.695,-0.695 C 0.695,0.309 0.378,0 0,0 M 1.381,3.485 0.73,2.623 C 0.642,2.509 0.572,2.323 0.572,2.174 V 1.989 h -1.144 v 0.264 c 0,0.378 0.105,0.616 0.334,0.915 l 0.651,0.836 c 0.142,0.185 0.256,0.396 0.256,0.59 0,0.413 -0.274,0.721 -0.713,0.721 -0.467,0 -0.704,-0.325 -0.704,-0.73 h -1.144 c 0,1.091 0.826,1.76 1.848,1.76 0.994,0 1.856,-0.643 1.856,-1.76 0,-0.44 -0.184,-0.775 -0.431,-1.1"
       style="fill:#231f20;fill-opacity:1;fill-rule:nonzero;stroke:none"
       transform="matrix(0.35277776,0,0,-0.35277776,60.056494,125.97234)"
       clip-path="url(#clipPath9066)" />
    <path
       id="path9067"
       d="M 0,0 -5.322,7.408 V 5.323 h -6.55 V -5.323 h 6.55 v -2.008 z"
       style="fill:#7b7979;fill-opacity:1;fill-rule:nonzero;stroke:#ffffff;stroke-width:0.4;stroke-linecap:round;stroke-linejoin:round;stroke-miterlimit:4;stroke-dasharray:none;stroke-opacity:1"
       transform="matrix(0.35277776,0,0,-0.35277776,58.873621,124.74009)"
       clip-path="url(#clipPath9068)" />
    <path
       id="path9069"
       d="m 0,0 c 0,2.414 -1.958,4.372 -4.372,4.373 -2.416,0 -4.373,-1.957 -4.373,-4.373 0,-2.414 1.957,-4.372 4.373,-4.372 C -1.958,-4.372 0,-2.414 0,0"
       style="fill:#ffffff;fill-opacity:1;fill-rule:nonzero;stroke:#ed1c24;stroke-width:0.8;stroke-linecap:butt;stroke-linejoin:miter;stroke-miterlimit:4;stroke-dasharray:none;stroke-opacity:1"
       transform="matrix(0.35277776,0,0,-0.35277776,63.616727,121.54004)"
       clip-path="url(#clipPath9070)" />
    <path
       id="path9071"
       d="M 0,0 -2.503,3.484 V 2.503 h -3.08 v -5.006 h 3.08 v -0.944 z"
       style="fill:#ffffff;fill-opacity:1;fill-rule:nonzero;stroke:#231f20;stroke-width:0.4;stroke-linecap:round;stroke-linejoin:round;stroke-miterlimit:4;stroke-dasharray:none;stroke-opacity:1"
       transform="matrix(0.35277776,0,0,-0.35277776,63.15458,121.56615)"
       clip-path="url(#clipPath9072)" />
    <path
       id="path9073"
       d="m 0,0 v -0.432 h -0.367 v 0.436 c -0.361,0.06 -0.541,0.304 -0.541,0.652 v 0.096 h 0.421 V 0.7 c 0,-0.2 0.076,-0.332 0.3,-0.332 0.251,0 0.307,0.16 0.307,0.412 0,0.308 -0.056,0.396 -0.279,0.488 L -0.5,1.408 c -0.28,0.116 -0.383,0.26 -0.383,0.708 0,0.388 0.183,0.676 0.516,0.752 v 0.38 H 0 V 2.872 C 0.325,2.804 0.525,2.556 0.525,2.248 V 2.116 H 0.1 V 2.16 c 0,0.2 -0.072,0.348 -0.283,0.348 -0.228,0 -0.281,-0.172 -0.281,-0.376 0,-0.244 0.041,-0.32 0.236,-0.4 L 0.117,1.592 C 0.461,1.452 0.541,1.256 0.541,0.796 0.541,0.344 0.4,0.064 0,0"
       style="fill:#231f20;fill-opacity:1;fill-rule:nonzero;stroke:none"
       transform="matrix(0.35277776,0,0,-0.35277776,62.135775,122.06392)"
       clip-path="url(#clipPath9074)" />
    <path
       id="path9075"
       d="M 0,0 6.178,-6.178"
       style="fill:none;stroke:#ed1c24;stroke-width:0.8;stroke-linecap:butt;stroke-linejoin:miter;stroke-miterlimit:4;stroke-dasharray:none;stroke-opacity:1"
       transform="matrix(0.35277776,0,0,-0.35277776,61.015344,120.42032)"
       clip-path="url(#clipPath9076)" />
  </g>
</svg>
