<?xml version="1.0" encoding="UTF-8" standalone="no"?>
<!-- Created with Inkscape (http://www.inkscape.org/) -->

<svg
   width="0.97403246mm"
   height="0.9740324mm"
   viewBox="0 0 0.97403245 0.97403238"
   version="1.1"
   id="svg1"
   inkscape:version="1.3 (0e150ed6c4, 2023-07-21)"
   sodipodi:docname="genes-good.svg"
   xmlns:inkscape="http://www.inkscape.org/namespaces/inkscape"
   xmlns:sodipodi="http://sodipodi.sourceforge.net/DTD/sodipodi-0.dtd"
   xmlns="http://www.w3.org/2000/svg"
   xmlns:svg="http://www.w3.org/2000/svg">
  <sodipodi:namedview
     id="namedview1"
     pagecolor="#ffffff"
     bordercolor="#000000"
     borderopacity="0.25"
     inkscape:showpageshadow="2"
     inkscape:pageopacity="0.0"
     inkscape:pagecheckerboard="0"
     inkscape:deskcolor="#d1d1d1"
     inkscape:document-units="mm"
     inkscape:zoom="121.5847"
     inkscape:cx="1.4146516"
     inkscape:cy="1.579146"
     inkscape:window-width="1920"
     inkscape:window-height="1013"
     inkscape:window-x="0"
     inkscape:window-y="30"
     inkscape:window-maximized="1"
     inkscape:current-layer="layer1" />
  <defs
     id="defs1">
    <clipPath
       clipPathUnits="userSpaceOnUse"
       id="clipPath7701">
      <path
         d="m 266.392,483.852 c -1.017,0 -2.109,-0.322 -2.109,-1.563 v 0 -6.381 c 0.005,-0.859 0.703,-1.553 1.563,-1.553 v 0 h 3.263 c 0.651,0 1.736,-0.144 2.696,-0.059 v 0 c 1.064,0.093 1.975,0.465 1.975,1.621 v 0 6.357 c 0,0.858 -0.698,1.578 -1.562,1.578 v 0 z"
         transform="matrix(1.25,0,0,-1.25,-3.125e-5,0)"
         id="path7701" />
    </clipPath>
    <clipPath
       clipPathUnits="userSpaceOnUse"
       id="clipPath7703">
      <path
         d="m 266.392,483.852 c -1.017,0 -2.109,-0.322 -2.109,-1.563 v 0 -6.381 c 0.005,-0.859 0.703,-1.553 1.563,-1.553 v 0 h 3.263 c 0.651,0 1.736,-0.144 2.696,-0.059 v 0 c 1.064,0.093 1.975,0.465 1.975,1.621 v 0 6.357 c 0,0.858 -0.698,1.578 -1.562,1.578 v 0 z"
         transform="matrix(1.25,0,0,-1.25,-3.125e-5,0)"
         id="path7703" />
    </clipPath>
    <clipPath
       clipPathUnits="userSpaceOnUse"
       id="clipPath7705">
      <path
         d="m 266.392,483.852 c -1.017,0 -2.109,-0.322 -2.109,-1.563 v 0 -6.381 c 0.005,-0.859 0.703,-1.553 1.563,-1.553 v 0 h 3.263 c 0.651,0 1.736,-0.144 2.696,-0.059 v 0 c 1.064,0.093 1.975,0.465 1.975,1.621 v 0 6.357 c 0,0.858 -0.698,1.578 -1.562,1.578 v 0 z"
         transform="matrix(1.25,0,0,-1.25,-3.125e-5,0)"
         id="path7705" />
    </clipPath>
    <clipPath
       clipPathUnits="userSpaceOnUse"
       id="clipPath7707">
      <path
         d="m 266.392,483.852 c -1.017,0 -2.109,-0.322 -2.109,-1.563 v 0 -6.381 c 0.005,-0.859 0.703,-1.553 1.563,-1.553 v 0 h 3.263 c 0.651,0 1.736,-0.144 2.696,-0.059 v 0 c 1.064,0.093 1.975,0.465 1.975,1.621 v 0 6.357 c 0,0.858 -0.698,1.578 -1.562,1.578 v 0 z"
         transform="matrix(1.25,0,0,-1.25,-3.125e-5,0)"
         id="path7707" />
    </clipPath>
    <clipPath
       clipPathUnits="userSpaceOnUse"
       id="clipPath7709">
      <path
         d="m 266.392,483.852 c -1.017,0 -2.109,-0.322 -2.109,-1.563 v 0 -6.381 c 0.005,-0.859 0.703,-1.553 1.563,-1.553 v 0 h 3.263 c 0.651,0 1.736,-0.144 2.696,-0.059 v 0 c 1.064,0.093 1.975,0.465 1.975,1.621 v 0 6.357 c 0,0.858 -0.698,1.578 -1.562,1.578 v 0 z"
         transform="matrix(1.25,0,0,-1.25,-3.125e-5,0)"
         id="path7709" />
    </clipPath>
    <clipPath
       clipPathUnits="userSpaceOnUse"
       id="clipPath7711">
      <path
         d="m 266.392,483.852 c -1.017,0 -2.109,-0.322 -2.109,-1.563 v 0 -6.381 c 0.005,-0.859 0.703,-1.553 1.563,-1.553 v 0 h 3.263 c 0.651,0 1.736,-0.144 2.696,-0.059 v 0 c 1.064,0.093 1.975,0.465 1.975,1.621 v 0 6.357 c 0,0.858 -0.698,1.578 -1.562,1.578 v 0 z"
         transform="matrix(1.25,0,0,-1.25,-3.125e-5,0)"
         id="path7711" />
    </clipPath>
    <clipPath
       clipPathUnits="userSpaceOnUse"
       id="clipPath7713">
      <path
         d="m 266.392,483.852 c -1.017,0 -2.109,-0.322 -2.109,-1.563 v 0 -6.381 c 0.005,-0.859 0.703,-1.553 1.563,-1.553 v 0 h 3.263 c 0.651,0 1.736,-0.144 2.696,-0.059 v 0 c 1.064,0.093 1.975,0.465 1.975,1.621 v 0 6.357 c 0,0.858 -0.698,1.578 -1.562,1.578 v 0 z"
         transform="matrix(1.25,0,0,-1.25,-3.125e-5,0)"
         id="path7713" />
    </clipPath>
    <clipPath
       clipPathUnits="userSpaceOnUse"
       id="clipPath7715">
      <path
         d="m 266.392,483.852 c -1.017,0 -2.109,-0.322 -2.109,-1.563 v 0 -6.381 c 0.005,-0.859 0.703,-1.553 1.563,-1.553 v 0 h 3.263 c 0.651,0 1.736,-0.144 2.696,-0.059 v 0 c 1.064,0.093 1.975,0.465 1.975,1.621 v 0 6.357 c 0,0.858 -0.698,1.578 -1.562,1.578 v 0 z"
         transform="matrix(1.25,0,0,-1.25,-3.125e-5,0)"
         id="path7715" />
    </clipPath>
    <clipPath
       clipPathUnits="userSpaceOnUse"
       id="clipPath7717">
      <path
         d="m 266.392,483.852 c -1.017,0 -2.109,-0.322 -2.109,-1.563 v 0 -6.381 c 0.005,-0.859 0.703,-1.553 1.563,-1.553 v 0 h 3.263 c 0.651,0 1.736,-0.144 2.696,-0.059 v 0 c 1.064,0.093 1.975,0.465 1.975,1.621 v 0 6.357 c 0,0.858 -0.698,1.578 -1.562,1.578 v 0 z"
         transform="matrix(1.25,0,0,-1.25,-3.125e-5,0)"
         id="path7717" />
    </clipPath>
    <clipPath
       clipPathUnits="userSpaceOnUse"
       id="clipPath7719">
      <path
         d="m 266.392,483.852 c -1.017,0 -2.109,-0.322 -2.109,-1.563 v 0 -6.381 c 0.005,-0.859 0.703,-1.553 1.563,-1.553 v 0 h 3.263 c 0.651,0 1.736,-0.144 2.696,-0.059 v 0 c 1.064,0.093 1.975,0.465 1.975,1.621 v 0 6.357 c 0,0.858 -0.698,1.578 -1.562,1.578 v 0 z"
         transform="matrix(1.25,0,0,-1.25,-3.125e-5,0)"
         id="path7719" />
    </clipPath>
    <clipPath
       clipPathUnits="userSpaceOnUse"
       id="clipPath7721">
      <path
         d="m 266.392,483.852 c -1.017,0 -2.109,-0.322 -2.109,-1.563 v 0 -6.381 c 0.005,-0.859 0.703,-1.553 1.563,-1.553 v 0 h 3.263 c 0.651,0 1.736,-0.144 2.696,-0.059 v 0 c 1.064,0.093 1.975,0.465 1.975,1.621 v 0 6.357 c 0,0.858 -0.698,1.578 -1.562,1.578 v 0 z"
         transform="matrix(1.25,0,0,-1.25,-3.125e-5,0)"
         id="path7721" />
    </clipPath>
    <clipPath
       clipPathUnits="userSpaceOnUse"
       id="clipPath7723">
      <path
         d="m 266.392,483.852 c -1.017,0 -2.109,-0.322 -2.109,-1.563 v 0 -6.381 c 0.005,-0.859 0.703,-1.553 1.563,-1.553 v 0 h 3.263 c 0.651,0 1.736,-0.144 2.696,-0.059 v 0 c 1.064,0.093 1.975,0.465 1.975,1.621 v 0 6.357 c 0,0.858 -0.698,1.578 -1.562,1.578 v 0 z"
         transform="matrix(1.25,0,0,-1.25,-3.125e-5,0)"
         id="path7723" />
    </clipPath>
    <clipPath
       clipPathUnits="userSpaceOnUse"
       id="clipPath7725">
      <path
         d="m 266.392,483.852 c -1.017,0 -2.109,-0.322 -2.109,-1.563 v 0 -6.381 c 0.005,-0.859 0.703,-1.553 1.563,-1.553 v 0 h 3.263 c 0.651,0 1.736,-0.144 2.696,-0.059 v 0 c 1.064,0.093 1.975,0.465 1.975,1.621 v 0 6.357 c 0,0.858 -0.698,1.578 -1.562,1.578 v 0 z"
         transform="matrix(1.25,0,0,-1.25,-3.125e-5,0)"
         id="path7725" />
    </clipPath>
    <clipPath
       clipPathUnits="userSpaceOnUse"
       id="clipPath7727">
      <path
         d="m 266.392,483.852 c -1.017,0 -2.109,-0.322 -2.109,-1.563 v 0 -6.381 c 0.005,-0.859 0.703,-1.553 1.563,-1.553 v 0 h 3.263 c 0.651,0 1.736,-0.144 2.696,-0.059 v 0 c 1.064,0.093 1.975,0.465 1.975,1.621 v 0 6.357 c 0,0.858 -0.698,1.578 -1.562,1.578 v 0 z"
         transform="matrix(1.25,0,0,-1.25,-3.125e-5,0)"
         id="path7727" />
    </clipPath>
    <clipPath
       clipPathUnits="userSpaceOnUse"
       id="clipPath7729">
      <path
         d="m 266.392,483.852 c -1.017,0 -2.109,-0.322 -2.109,-1.563 v 0 -6.381 c 0.005,-0.859 0.703,-1.553 1.563,-1.553 v 0 h 3.263 c 0.651,0 1.736,-0.144 2.696,-0.059 v 0 c 1.064,0.093 1.975,0.465 1.975,1.621 v 0 6.357 c 0,0.858 -0.698,1.578 -1.562,1.578 v 0 z"
         transform="matrix(1.25,0,0,-1.25,-3.125e-5,0)"
         id="path7729" />
    </clipPath>
    <clipPath
       clipPathUnits="userSpaceOnUse"
       id="clipPath7731">
      <path
         d="m 266.392,483.852 c -1.017,0 -2.109,-0.322 -2.109,-1.563 v 0 -6.381 c 0.005,-0.859 0.703,-1.553 1.563,-1.553 v 0 h 3.263 c 0.651,0 1.736,-0.144 2.696,-0.059 v 0 c 1.064,0.093 1.975,0.465 1.975,1.621 v 0 6.357 c 0,0.858 -0.698,1.578 -1.562,1.578 v 0 z"
         transform="matrix(1.25,0,0,-1.25,-3.125e-5,0)"
         id="path7731" />
    </clipPath>
    <clipPath
       clipPathUnits="userSpaceOnUse"
       id="clipPath7733">
      <path
         d="m 266.392,483.852 c -1.017,0 -2.109,-0.322 -2.109,-1.563 v 0 -6.381 c 0.005,-0.859 0.703,-1.553 1.563,-1.553 v 0 h 3.263 c 0.651,0 1.736,-0.144 2.696,-0.059 v 0 c 1.064,0.093 1.975,0.465 1.975,1.621 v 0 6.357 c 0,0.858 -0.698,1.578 -1.562,1.578 v 0 z"
         transform="matrix(1.25,0,0,-1.25,-3.125e-5,0)"
         id="path7733" />
    </clipPath>
    <clipPath
       clipPathUnits="userSpaceOnUse"
       id="clipPath7735">
      <path
         d="m 266.392,483.852 c -1.017,0 -2.109,-0.322 -2.109,-1.563 v 0 -6.381 c 0.005,-0.859 0.703,-1.553 1.563,-1.553 v 0 h 3.263 c 0.651,0 1.736,-0.144 2.696,-0.059 v 0 c 1.064,0.093 1.975,0.465 1.975,1.621 v 0 6.357 c 0,0.858 -0.698,1.578 -1.562,1.578 v 0 z"
         transform="matrix(1.25,0,0,-1.25,-3.125e-5,0)"
         id="path7735" />
    </clipPath>
    <clipPath
       clipPathUnits="userSpaceOnUse"
       id="clipPath7737">
      <path
         d="m 266.392,483.852 c -1.017,0 -2.109,-0.322 -2.109,-1.563 v 0 -6.381 c 0.005,-0.859 0.703,-1.553 1.563,-1.553 v 0 h 3.263 c 0.651,0 1.736,-0.144 2.696,-0.059 v 0 c 1.064,0.093 1.975,0.465 1.975,1.621 v 0 6.357 c 0,0.858 -0.698,1.578 -1.562,1.578 v 0 z"
         transform="matrix(1.25,0,0,-1.25,-3.125e-5,0)"
         id="path7737" />
    </clipPath>
    <clipPath
       clipPathUnits="userSpaceOnUse"
       id="clipPath7739">
      <path
         d="m 266.392,483.852 c -1.017,0 -2.109,-0.322 -2.109,-1.563 v 0 -6.381 c 0.005,-0.859 0.703,-1.553 1.563,-1.553 v 0 h 3.263 c 0.651,0 1.736,-0.144 2.696,-0.059 v 0 c 1.064,0.093 1.975,0.465 1.975,1.621 v 0 6.357 c 0,0.858 -0.698,1.578 -1.562,1.578 v 0 z"
         transform="matrix(1.25,0,0,-1.25,-3.125e-5,0)"
         id="path7739" />
    </clipPath>
    <clipPath
       clipPathUnits="userSpaceOnUse"
       id="clipPath7741">
      <path
         d="m 266.392,483.852 c -1.017,0 -2.109,-0.322 -2.109,-1.563 v 0 -6.381 c 0.005,-0.859 0.703,-1.553 1.563,-1.553 v 0 h 3.263 c 0.651,0 1.736,-0.144 2.696,-0.059 v 0 c 1.064,0.093 1.975,0.465 1.975,1.621 v 0 6.357 c 0,0.858 -0.698,1.578 -1.562,1.578 v 0 z"
         transform="matrix(1.25,0,0,-1.25,-3.125e-5,0)"
         id="path7741" />
    </clipPath>
    <clipPath
       clipPathUnits="userSpaceOnUse"
       id="clipPath7743">
      <path
         d="m 266.392,483.852 c -1.017,0 -2.109,-0.322 -2.109,-1.563 v 0 -6.381 c 0.005,-0.859 0.703,-1.553 1.563,-1.553 v 0 h 3.263 c 0.651,0 1.736,-0.144 2.696,-0.059 v 0 c 1.064,0.093 1.975,0.465 1.975,1.621 v 0 6.357 c 0,0.858 -0.698,1.578 -1.562,1.578 v 0 z"
         transform="matrix(1.25,0,0,-1.25,-3.125e-5,0)"
         id="path7743" />
    </clipPath>
    <clipPath
       clipPathUnits="userSpaceOnUse"
       id="clipPath7745">
      <path
         d="m 266.392,483.852 c -1.017,0 -2.109,-0.322 -2.109,-1.563 v 0 -6.381 c 0.005,-0.859 0.703,-1.553 1.563,-1.553 v 0 h 3.263 c 0.651,0 1.736,-0.144 2.696,-0.059 v 0 c 1.064,0.093 1.975,0.465 1.975,1.621 v 0 6.357 c 0,0.858 -0.698,1.578 -1.562,1.578 v 0 z"
         transform="matrix(1.25,0,0,-1.25,-3.125e-5,0)"
         id="path7745" />
    </clipPath>
    <clipPath
       clipPathUnits="userSpaceOnUse"
       id="clipPath7747">
      <path
         d="m 266.392,483.852 c -1.017,0 -2.109,-0.322 -2.109,-1.563 v 0 -6.381 c 0.005,-0.859 0.703,-1.553 1.563,-1.553 v 0 h 3.263 c 0.651,0 1.736,-0.144 2.696,-0.059 v 0 c 1.064,0.093 1.975,0.465 1.975,1.621 v 0 6.357 c 0,0.858 -0.698,1.578 -1.562,1.578 v 0 z"
         transform="matrix(1.25,0,0,-1.25,-3.125e-5,0)"
         id="path7747" />
    </clipPath>
    <clipPath
       clipPathUnits="userSpaceOnUse"
       id="clipPath7749">
      <path
         d="m 266.392,483.852 c -1.017,0 -2.109,-0.322 -2.109,-1.563 v 0 -6.381 c 0.005,-0.859 0.703,-1.553 1.563,-1.553 v 0 h 3.263 c 0.651,0 1.736,-0.144 2.696,-0.059 v 0 c 1.064,0.093 1.975,0.465 1.975,1.621 v 0 6.357 c 0,0.858 -0.698,1.578 -1.562,1.578 v 0 z"
         transform="matrix(1.25,0,0,-1.25,-3.125e-5,0)"
         id="path7749" />
    </clipPath>
    <clipPath
       clipPathUnits="userSpaceOnUse"
       id="clipPath7751">
      <path
         d="m 266.392,483.852 c -1.017,0 -2.109,-0.322 -2.109,-1.563 v 0 -6.381 c 0.005,-0.859 0.703,-1.553 1.563,-1.553 v 0 h 3.263 c 0.651,0 1.736,-0.144 2.696,-0.059 v 0 c 1.064,0.093 1.975,0.465 1.975,1.621 v 0 6.357 c 0,0.858 -0.698,1.578 -1.562,1.578 v 0 z"
         transform="matrix(1.25,0,0,-1.25,-3.125e-5,0)"
         id="path7751" />
    </clipPath>
    <clipPath
       clipPathUnits="userSpaceOnUse"
       id="clipPath7753">
      <path
         d="m 266.392,483.852 c -1.017,0 -2.109,-0.322 -2.109,-1.563 v 0 -6.381 c 0.005,-0.859 0.703,-1.553 1.563,-1.553 v 0 h 3.263 c 0.651,0 1.736,-0.144 2.696,-0.059 v 0 c 1.064,0.093 1.975,0.465 1.975,1.621 v 0 6.357 c 0,0.858 -0.698,1.578 -1.562,1.578 v 0 z"
         transform="matrix(1.25,0,0,-1.25,-3.125e-5,0)"
         id="path7753" />
    </clipPath>
    <clipPath
       clipPathUnits="userSpaceOnUse"
       id="clipPath7755">
      <path
         d="m 266.392,483.852 c -1.017,0 -2.109,-0.322 -2.109,-1.563 v 0 -6.381 c 0.005,-0.859 0.703,-1.553 1.563,-1.553 v 0 h 3.263 c 0.651,0 1.736,-0.144 2.696,-0.059 v 0 c 1.064,0.093 1.975,0.465 1.975,1.621 v 0 6.357 c 0,0.858 -0.698,1.578 -1.562,1.578 v 0 z"
         transform="matrix(1.25,0,0,-1.25,-3.125e-5,0)"
         id="path7755" />
    </clipPath>
    <clipPath
       clipPathUnits="userSpaceOnUse"
       id="clipPath7757">
      <path
         d="m 266.392,483.852 c -1.017,0 -2.109,-0.322 -2.109,-1.563 v 0 -6.381 c 0.005,-0.859 0.703,-1.553 1.563,-1.553 v 0 h 3.263 c 0.651,0 1.736,-0.144 2.696,-0.059 v 0 c 1.064,0.093 1.975,0.465 1.975,1.621 v 0 6.357 c 0,0.858 -0.698,1.578 -1.562,1.578 v 0 z"
         transform="matrix(1.25,0,0,-1.25,-3.125e-5,0)"
         id="path7757" />
    </clipPath>
    <clipPath
       clipPathUnits="userSpaceOnUse"
       id="clipPath7759">
      <path
         d="m 266.392,483.852 c -1.017,0 -2.109,-0.322 -2.109,-1.563 v 0 -6.381 c 0.005,-0.859 0.703,-1.553 1.563,-1.553 v 0 h 3.263 c 0.651,0 1.736,-0.144 2.696,-0.059 v 0 c 1.064,0.093 1.975,0.465 1.975,1.621 v 0 6.357 c 0,0.858 -0.698,1.578 -1.562,1.578 v 0 z"
         transform="matrix(1.25,0,0,-1.25,-3.125e-5,0)"
         id="path7759" />
    </clipPath>
    <clipPath
       clipPathUnits="userSpaceOnUse"
       id="clipPath7761">
      <path
         d="m 266.392,483.852 c -1.017,0 -2.109,-0.322 -2.109,-1.563 v 0 -6.381 c 0.005,-0.859 0.703,-1.553 1.563,-1.553 v 0 h 3.263 c 0.651,0 1.736,-0.144 2.696,-0.059 v 0 c 1.064,0.093 1.975,0.465 1.975,1.621 v 0 6.357 c 0,0.858 -0.698,1.578 -1.562,1.578 v 0 z"
         transform="matrix(1.25,0,0,-1.25,-3.125e-5,0)"
         id="path7761" />
    </clipPath>
    <clipPath
       clipPathUnits="userSpaceOnUse"
       id="clipPath7763">
      <path
         d="m 266.392,483.852 c -1.017,0 -2.109,-0.322 -2.109,-1.563 v 0 -6.381 c 0.005,-0.859 0.703,-1.553 1.563,-1.553 v 0 h 3.263 c 0.651,0 1.736,-0.144 2.696,-0.059 v 0 c 1.064,0.093 1.975,0.465 1.975,1.621 v 0 6.357 c 0,0.858 -0.698,1.578 -1.562,1.578 v 0 z"
         transform="matrix(1.25,0,0,-1.25,-3.125e-5,0)"
         id="path7763" />
    </clipPath>
    <clipPath
       clipPathUnits="userSpaceOnUse"
       id="clipPath7765">
      <path
         d="m 266.392,483.852 c -1.017,0 -2.109,-0.322 -2.109,-1.563 v 0 -6.381 c 0.005,-0.859 0.703,-1.553 1.563,-1.553 v 0 h 3.263 c 0.651,0 1.736,-0.144 2.696,-0.059 v 0 c 1.064,0.093 1.975,0.465 1.975,1.621 v 0 6.357 c 0,0.858 -0.698,1.578 -1.562,1.578 v 0 z"
         transform="matrix(1.25,0,0,-1.25,-3.125e-5,0)"
         id="path7765" />
    </clipPath>
    <clipPath
       clipPathUnits="userSpaceOnUse"
       id="clipPath7767">
      <path
         d="m 266.392,483.852 c -1.017,0 -2.109,-0.322 -2.109,-1.563 v 0 -6.381 c 0.005,-0.859 0.703,-1.553 1.563,-1.553 v 0 h 3.263 c 0.651,0 1.736,-0.144 2.696,-0.059 v 0 c 1.064,0.093 1.975,0.465 1.975,1.621 v 0 6.357 c 0,0.858 -0.698,1.578 -1.562,1.578 v 0 z"
         transform="matrix(1.25,0,0,-1.25,-3.125e-5,0)"
         id="path7767" />
    </clipPath>
    <clipPath
       clipPathUnits="userSpaceOnUse"
       id="clipPath7769">
      <path
         d="m 266.392,483.852 c -1.017,0 -2.109,-0.322 -2.109,-1.563 v 0 -6.381 c 0.005,-0.859 0.703,-1.553 1.563,-1.553 v 0 h 3.263 c 0.651,0 1.736,-0.144 2.696,-0.059 v 0 c 1.064,0.093 1.975,0.465 1.975,1.621 v 0 6.357 c 0,0.858 -0.698,1.578 -1.562,1.578 v 0 z"
         transform="matrix(1.25,0,0,-1.25,-3.125e-5,0)"
         id="path7769" />
    </clipPath>
    <clipPath
       clipPathUnits="userSpaceOnUse"
       id="clipPath7771">
      <path
         d="m 266.392,483.852 c -1.017,0 -2.109,-0.322 -2.109,-1.563 v 0 -6.381 c 0.005,-0.859 0.703,-1.553 1.563,-1.553 v 0 h 3.263 c 0.651,0 1.736,-0.144 2.696,-0.059 v 0 c 1.064,0.093 1.975,0.465 1.975,1.621 v 0 6.357 c 0,0.858 -0.698,1.578 -1.562,1.578 v 0 z"
         transform="matrix(1.25,0,0,-1.25,-3.125e-5,0)"
         id="path7771" />
    </clipPath>
    <clipPath
       clipPathUnits="userSpaceOnUse"
       id="clipPath7773">
      <path
         d="m 266.392,483.852 c -1.017,0 -2.109,-0.322 -2.109,-1.563 v 0 -6.381 c 0.005,-0.859 0.703,-1.553 1.563,-1.553 v 0 h 3.263 c 0.651,0 1.736,-0.144 2.696,-0.059 v 0 c 1.064,0.093 1.975,0.465 1.975,1.621 v 0 6.357 c 0,0.858 -0.698,1.578 -1.562,1.578 v 0 z"
         transform="matrix(1.25,0,0,-1.25,-3.125e-5,0)"
         id="path7773" />
    </clipPath>
    <clipPath
       clipPathUnits="userSpaceOnUse"
       id="clipPath7775">
      <path
         d="m 266.392,483.852 c -1.017,0 -2.109,-0.322 -2.109,-1.563 v 0 -6.381 c 0.005,-0.859 0.703,-1.553 1.563,-1.553 v 0 h 3.263 c 0.651,0 1.736,-0.144 2.696,-0.059 v 0 c 1.064,0.093 1.975,0.465 1.975,1.621 v 0 6.357 c 0,0.858 -0.698,1.578 -1.562,1.578 v 0 z"
         transform="matrix(1.25,0,0,-1.25,-3.125e-5,0)"
         id="path7775" />
    </clipPath>
    <clipPath
       clipPathUnits="userSpaceOnUse"
       id="clipPath7777">
      <path
         d="m 266.392,483.852 c -1.017,0 -2.109,-0.322 -2.109,-1.563 v 0 -6.381 c 0.005,-0.859 0.703,-1.553 1.563,-1.553 v 0 h 3.263 c 0.651,0 1.736,-0.144 2.696,-0.059 v 0 c 1.064,0.093 1.975,0.465 1.975,1.621 v 0 6.357 c 0,0.858 -0.698,1.578 -1.562,1.578 v 0 z"
         transform="matrix(1.25,0,0,-1.25,-3.125e-5,0)"
         id="path7777" />
    </clipPath>
    <clipPath
       clipPathUnits="userSpaceOnUse"
       id="clipPath7779">
      <path
         d="m 266.392,483.852 c -1.017,0 -2.109,-0.322 -2.109,-1.563 v 0 -6.381 c 0.005,-0.859 0.703,-1.553 1.563,-1.553 v 0 h 3.263 c 0.651,0 1.736,-0.144 2.696,-0.059 v 0 c 1.064,0.093 1.975,0.465 1.975,1.621 v 0 6.357 c 0,0.858 -0.698,1.578 -1.562,1.578 v 0 z"
         transform="matrix(1.25,0,0,-1.25,-3.125e-5,0)"
         id="path7779" />
    </clipPath>
    <clipPath
       clipPathUnits="userSpaceOnUse"
       id="clipPath7781">
      <path
         d="m 266.392,483.852 c -1.017,0 -2.109,-0.322 -2.109,-1.563 v 0 -6.381 c 0.005,-0.859 0.703,-1.553 1.563,-1.553 v 0 h 3.263 c 0.651,0 1.736,-0.144 2.696,-0.059 v 0 c 1.064,0.093 1.975,0.465 1.975,1.621 v 0 6.357 c 0,0.858 -0.698,1.578 -1.562,1.578 v 0 z"
         transform="matrix(1.25,0,0,-1.25,-3.125e-5,0)"
         id="path7781" />
    </clipPath>
    <clipPath
       clipPathUnits="userSpaceOnUse"
       id="clipPath7783">
      <path
         d="m 266.392,483.852 c -1.017,0 -2.109,-0.322 -2.109,-1.563 v 0 -6.381 c 0.005,-0.859 0.703,-1.553 1.563,-1.553 v 0 h 3.263 c 0.651,0 1.736,-0.144 2.696,-0.059 v 0 c 1.064,0.093 1.975,0.465 1.975,1.621 v 0 6.357 c 0,0.858 -0.698,1.578 -1.562,1.578 v 0 z"
         transform="matrix(1.25,0,0,-1.25,-3.125e-5,0)"
         id="path7783" />
    </clipPath>
    <clipPath
       clipPathUnits="userSpaceOnUse"
       id="clipPath7785">
      <path
         d="m 266.392,483.852 c -1.017,0 -2.109,-0.322 -2.109,-1.563 v 0 -6.381 c 0.005,-0.859 0.703,-1.553 1.563,-1.553 v 0 h 3.263 c 0.651,0 1.736,-0.144 2.696,-0.059 v 0 c 1.064,0.093 1.975,0.465 1.975,1.621 v 0 6.357 c 0,0.858 -0.698,1.578 -1.562,1.578 v 0 z"
         transform="matrix(1.25,0,0,-1.25,-3.125e-5,0)"
         id="path7785" />
    </clipPath>
    <clipPath
       clipPathUnits="userSpaceOnUse"
       id="clipPath7787">
      <path
         d="m 266.392,483.852 c -1.017,0 -2.109,-0.322 -2.109,-1.563 v 0 -6.381 c 0.005,-0.859 0.703,-1.553 1.563,-1.553 v 0 h 3.263 c 0.651,0 1.736,-0.144 2.696,-0.059 v 0 c 1.064,0.093 1.975,0.465 1.975,1.621 v 0 6.357 c 0,0.858 -0.698,1.578 -1.562,1.578 v 0 z"
         transform="matrix(1.25,0,0,-1.25,-3.125e-5,0)"
         id="path7787" />
    </clipPath>
    <clipPath
       clipPathUnits="userSpaceOnUse"
       id="clipPath7789">
      <path
         d="m 266.392,483.852 c -1.017,0 -2.109,-0.322 -2.109,-1.563 v 0 -6.381 c 0.005,-0.859 0.703,-1.553 1.563,-1.553 v 0 h 3.263 c 0.651,0 1.736,-0.144 2.696,-0.059 v 0 c 1.064,0.093 1.975,0.465 1.975,1.621 v 0 6.357 c 0,0.858 -0.698,1.578 -1.562,1.578 v 0 z"
         transform="matrix(1.25,0,0,-1.25,-3.125e-5,0)"
         id="path7789" />
    </clipPath>
    <clipPath
       clipPathUnits="userSpaceOnUse"
       id="clipPath7791">
      <path
         d="m 266.392,483.852 c -1.017,0 -2.109,-0.322 -2.109,-1.563 v 0 -6.381 c 0.005,-0.859 0.703,-1.553 1.563,-1.553 v 0 h 3.263 c 0.651,0 1.736,-0.144 2.696,-0.059 v 0 c 1.064,0.093 1.975,0.465 1.975,1.621 v 0 6.357 c 0,0.858 -0.698,1.578 -1.562,1.578 v 0 z"
         transform="matrix(1.25,0,0,-1.25,-3.125e-5,0)"
         id="path7791" />
    </clipPath>
    <clipPath
       clipPathUnits="userSpaceOnUse"
       id="clipPath7793">
      <path
         d="m 266.392,483.852 c -1.017,0 -2.109,-0.322 -2.109,-1.563 v 0 -6.381 c 0.005,-0.859 0.703,-1.553 1.563,-1.553 v 0 h 3.263 c 0.651,0 1.736,-0.144 2.696,-0.059 v 0 c 1.064,0.093 1.975,0.465 1.975,1.621 v 0 6.357 c 0,0.858 -0.698,1.578 -1.562,1.578 v 0 z"
         transform="matrix(1.25,0,0,-1.25,-3.125e-5,0)"
         id="path7793" />
    </clipPath>
    <clipPath
       clipPathUnits="userSpaceOnUse"
       id="clipPath7795">
      <path
         d="m 266.392,483.852 c -1.017,0 -2.109,-0.322 -2.109,-1.563 v 0 -6.381 c 0.005,-0.859 0.703,-1.553 1.563,-1.553 v 0 h 3.263 c 0.651,0 1.736,-0.144 2.696,-0.059 v 0 c 1.064,0.093 1.975,0.465 1.975,1.621 v 0 6.357 c 0,0.858 -0.698,1.578 -1.562,1.578 v 0 z"
         transform="matrix(1.25,0,0,-1.25,-3.125e-5,0)"
         id="path7795" />
    </clipPath>
    <clipPath
       clipPathUnits="userSpaceOnUse"
       id="clipPath7797">
      <path
         d="m 266.392,483.852 c -1.017,0 -2.109,-0.322 -2.109,-1.563 v 0 -6.381 c 0.005,-0.859 0.703,-1.553 1.563,-1.553 v 0 h 3.263 c 0.651,0 1.736,-0.144 2.696,-0.059 v 0 c 1.064,0.093 1.975,0.465 1.975,1.621 v 0 6.357 c 0,0.858 -0.698,1.578 -1.562,1.578 v 0 z"
         transform="matrix(1.25,0,0,-1.25,-3.125e-5,0)"
         id="path7797" />
    </clipPath>
    <clipPath
       clipPathUnits="userSpaceOnUse"
       id="clipPath7799">
      <path
         d="m 266.392,483.852 c -1.017,0 -2.109,-0.322 -2.109,-1.563 v 0 -6.381 c 0.005,-0.859 0.703,-1.553 1.563,-1.553 v 0 h 3.263 c 0.651,0 1.736,-0.144 2.696,-0.059 v 0 c 1.064,0.093 1.975,0.465 1.975,1.621 v 0 6.357 c 0,0.858 -0.698,1.578 -1.562,1.578 v 0 z"
         transform="matrix(1.25,0,0,-1.25,-3.125e-5,0)"
         id="path7799" />
    </clipPath>
    <clipPath
       clipPathUnits="userSpaceOnUse"
       id="clipPath7801">
      <path
         d="m 266.392,483.852 c -1.017,0 -2.109,-0.322 -2.109,-1.563 v 0 -6.381 c 0.005,-0.859 0.703,-1.553 1.563,-1.553 v 0 h 3.263 c 0.651,0 1.736,-0.144 2.696,-0.059 v 0 c 1.064,0.093 1.975,0.465 1.975,1.621 v 0 6.357 c 0,0.858 -0.698,1.578 -1.562,1.578 v 0 z"
         transform="matrix(1.25,0,0,-1.25,-3.125e-5,0)"
         id="path7801" />
    </clipPath>
    <clipPath
       clipPathUnits="userSpaceOnUse"
       id="clipPath7803">
      <path
         d="m 266.392,483.852 c -1.017,0 -2.109,-0.322 -2.109,-1.563 v 0 -6.381 c 0.005,-0.859 0.703,-1.553 1.563,-1.553 v 0 h 3.263 c 0.651,0 1.736,-0.144 2.696,-0.059 v 0 c 1.064,0.093 1.975,0.465 1.975,1.621 v 0 6.357 c 0,0.858 -0.698,1.578 -1.562,1.578 v 0 z"
         transform="matrix(1.25,0,0,-1.25,-3.125e-5,0)"
         id="path7803" />
    </clipPath>
    <clipPath
       clipPathUnits="userSpaceOnUse"
       id="clipPath7805">
      <path
         d="m 266.392,483.852 c -1.017,0 -2.109,-0.322 -2.109,-1.563 v 0 -6.381 c 0.005,-0.859 0.703,-1.553 1.563,-1.553 v 0 h 3.263 c 0.651,0 1.736,-0.144 2.696,-0.059 v 0 c 1.064,0.093 1.975,0.465 1.975,1.621 v 0 6.357 c 0,0.858 -0.698,1.578 -1.562,1.578 v 0 z"
         transform="matrix(1.25,0,0,-1.25,-3.125e-5,0)"
         id="path7805" />
    </clipPath>
    <clipPath
       clipPathUnits="userSpaceOnUse"
       id="clipPath7807">
      <path
         d="m 266.392,483.852 c -1.017,0 -2.109,-0.322 -2.109,-1.563 v 0 -6.381 c 0.005,-0.859 0.703,-1.553 1.563,-1.553 v 0 h 3.263 c 0.651,0 1.736,-0.144 2.696,-0.059 v 0 c 1.064,0.093 1.975,0.465 1.975,1.621 v 0 6.357 c 0,0.858 -0.698,1.578 -1.562,1.578 v 0 z"
         transform="matrix(1.25,0,0,-1.25,-3.125e-5,0)"
         id="path7807" />
    </clipPath>
    <clipPath
       clipPathUnits="userSpaceOnUse"
       id="clipPath7809">
      <path
         d="m 266.392,483.852 c -1.017,0 -2.109,-0.322 -2.109,-1.563 v 0 -6.381 c 0.005,-0.859 0.703,-1.553 1.563,-1.553 v 0 h 3.263 c 0.651,0 1.736,-0.144 2.696,-0.059 v 0 c 1.064,0.093 1.975,0.465 1.975,1.621 v 0 6.357 c 0,0.858 -0.698,1.578 -1.562,1.578 v 0 z"
         transform="matrix(1.25,0,0,-1.25,-3.125e-5,0)"
         id="path7809" />
    </clipPath>
    <clipPath
       clipPathUnits="userSpaceOnUse"
       id="clipPath7811">
      <path
         d="m 266.392,483.852 c -1.017,0 -2.109,-0.322 -2.109,-1.563 v 0 -6.381 c 0.005,-0.859 0.703,-1.553 1.563,-1.553 v 0 h 3.263 c 0.651,0 1.736,-0.144 2.696,-0.059 v 0 c 1.064,0.093 1.975,0.465 1.975,1.621 v 0 6.357 c 0,0.858 -0.698,1.578 -1.562,1.578 v 0 z"
         transform="matrix(1.25,0,0,-1.25,-3.125e-5,0)"
         id="path7811" />
    </clipPath>
    <clipPath
       clipPathUnits="userSpaceOnUse"
       id="clipPath7813">
      <path
         d="m 266.392,483.852 c -1.017,0 -2.109,-0.322 -2.109,-1.563 v 0 -6.381 c 0.005,-0.859 0.703,-1.553 1.563,-1.553 v 0 h 3.263 c 0.651,0 1.736,-0.144 2.696,-0.059 v 0 c 1.064,0.093 1.975,0.465 1.975,1.621 v 0 6.357 c 0,0.858 -0.698,1.578 -1.562,1.578 v 0 z"
         transform="matrix(1.25,0,0,-1.25,-3.125e-5,0)"
         id="path7813" />
    </clipPath>
    <clipPath
       clipPathUnits="userSpaceOnUse"
       id="clipPath7815">
      <path
         d="m 266.392,483.852 c -1.017,0 -2.109,-0.322 -2.109,-1.563 v 0 -6.381 c 0.005,-0.859 0.703,-1.553 1.563,-1.553 v 0 h 3.263 c 0.651,0 1.736,-0.144 2.696,-0.059 v 0 c 1.064,0.093 1.975,0.465 1.975,1.621 v 0 6.357 c 0,0.858 -0.698,1.578 -1.562,1.578 v 0 z"
         transform="matrix(1.25,0,0,-1.25,-3.125e-5,0)"
         id="path7815" />
    </clipPath>
    <clipPath
       clipPathUnits="userSpaceOnUse"
       id="clipPath7817">
      <path
         d="m 266.392,483.852 c -1.017,0 -2.109,-0.322 -2.109,-1.563 v 0 -6.381 c 0.005,-0.859 0.703,-1.553 1.563,-1.553 v 0 h 3.263 c 0.651,0 1.736,-0.144 2.696,-0.059 v 0 c 1.064,0.093 1.975,0.465 1.975,1.621 v 0 6.357 c 0,0.858 -0.698,1.578 -1.562,1.578 v 0 z"
         transform="matrix(1.25,0,0,-1.25,-3.125e-5,0)"
         id="path7817" />
    </clipPath>
    <clipPath
       clipPathUnits="userSpaceOnUse"
       id="clipPath7819">
      <path
         d="m 266.392,483.852 c -1.017,0 -2.109,-0.322 -2.109,-1.563 v 0 -6.381 c 0.005,-0.859 0.703,-1.553 1.563,-1.553 v 0 h 3.263 c 0.651,0 1.736,-0.144 2.696,-0.059 v 0 c 1.064,0.093 1.975,0.465 1.975,1.621 v 0 6.357 c 0,0.858 -0.698,1.578 -1.562,1.578 v 0 z"
         transform="matrix(1.25,0,0,-1.25,-3.125e-5,0)"
         id="path7819" />
    </clipPath>
    <clipPath
       clipPathUnits="userSpaceOnUse"
       id="clipPath7821">
      <path
         d="m 266.392,483.852 c -1.017,0 -2.109,-0.322 -2.109,-1.563 v 0 -6.381 c 0.005,-0.859 0.703,-1.553 1.563,-1.553 v 0 h 3.263 c 0.651,0 1.736,-0.144 2.696,-0.059 v 0 c 1.064,0.093 1.975,0.465 1.975,1.621 v 0 6.357 c 0,0.858 -0.698,1.578 -1.562,1.578 v 0 z"
         transform="matrix(1.25,0,0,-1.25,-3.125e-5,0)"
         id="path7821" />
    </clipPath>
    <clipPath
       clipPathUnits="userSpaceOnUse"
       id="clipPath7823">
      <path
         d="m 266.392,483.852 c -1.017,0 -2.109,-0.322 -2.109,-1.563 v 0 -6.381 c 0.005,-0.859 0.703,-1.553 1.563,-1.553 v 0 h 3.263 c 0.651,0 1.736,-0.144 2.696,-0.059 v 0 c 1.064,0.093 1.975,0.465 1.975,1.621 v 0 6.357 c 0,0.858 -0.698,1.578 -1.562,1.578 v 0 z"
         transform="matrix(1.25,0,0,-1.25,-3.125e-5,0)"
         id="path7823" />
    </clipPath>
    <clipPath
       clipPathUnits="userSpaceOnUse"
       id="clipPath7825">
      <path
         d="m 266.392,483.852 c -1.017,0 -2.109,-0.322 -2.109,-1.563 v 0 -6.381 c 0.005,-0.859 0.703,-1.553 1.563,-1.553 v 0 h 3.263 c 0.651,0 1.736,-0.144 2.696,-0.059 v 0 c 1.064,0.093 1.975,0.465 1.975,1.621 v 0 6.357 c 0,0.858 -0.698,1.578 -1.562,1.578 v 0 z"
         transform="matrix(1.25,0,0,-1.25,-3.125e-5,0)"
         id="path7825" />
    </clipPath>
    <clipPath
       clipPathUnits="userSpaceOnUse"
       id="clipPath7827">
      <path
         d="m 266.392,483.852 c -1.017,0 -2.109,-0.322 -2.109,-1.563 v 0 -6.381 c 0.005,-0.859 0.703,-1.553 1.563,-1.553 v 0 h 3.263 c 0.651,0 1.736,-0.144 2.696,-0.059 v 0 c 1.064,0.093 1.975,0.465 1.975,1.621 v 0 6.357 c 0,0.858 -0.698,1.578 -1.562,1.578 v 0 z"
         transform="matrix(1.25,0,0,-1.25,-3.125e-5,0)"
         id="path7827" />
    </clipPath>
    <clipPath
       clipPathUnits="userSpaceOnUse"
       id="clipPath7829">
      <path
         d="m 266.392,483.852 c -1.017,0 -2.109,-0.322 -2.109,-1.563 v 0 -6.381 c 0.005,-0.859 0.703,-1.553 1.563,-1.553 v 0 h 3.263 c 0.651,0 1.736,-0.144 2.696,-0.059 v 0 c 1.064,0.093 1.975,0.465 1.975,1.621 v 0 6.357 c 0,0.858 -0.698,1.578 -1.562,1.578 v 0 z"
         transform="matrix(1.25,0,0,-1.25,-3.125e-5,0)"
         id="path7829" />
    </clipPath>
    <clipPath
       clipPathUnits="userSpaceOnUse"
       id="clipPath7831">
      <path
         d="m 266.392,483.852 c -1.017,0 -2.109,-0.322 -2.109,-1.563 v 0 -6.381 c 0.005,-0.859 0.703,-1.553 1.563,-1.553 v 0 h 3.263 c 0.651,0 1.736,-0.144 2.696,-0.059 v 0 c 1.064,0.093 1.975,0.465 1.975,1.621 v 0 6.357 c 0,0.858 -0.698,1.578 -1.562,1.578 v 0 z"
         transform="matrix(1.25,0,0,-1.25,-3.125e-5,0)"
         id="path7831" />
    </clipPath>
    <clipPath
       clipPathUnits="userSpaceOnUse"
       id="clipPath7833">
      <path
         d="m 266.392,483.852 c -1.017,0 -2.109,-0.322 -2.109,-1.563 v 0 -6.381 c 0.005,-0.859 0.703,-1.553 1.563,-1.553 v 0 h 3.263 c 0.651,0 1.736,-0.144 2.696,-0.059 v 0 c 1.064,0.093 1.975,0.465 1.975,1.621 v 0 6.357 c 0,0.858 -0.698,1.578 -1.562,1.578 v 0 z"
         transform="matrix(1.25,0,0,-1.25,-3.125e-5,0)"
         id="path7833" />
    </clipPath>
    <clipPath
       clipPathUnits="userSpaceOnUse"
       id="clipPath7835">
      <path
         d="m 266.392,483.852 c -1.017,0 -2.109,-0.322 -2.109,-1.563 v 0 -6.381 c 0.005,-0.859 0.703,-1.553 1.563,-1.553 v 0 h 3.263 c 0.651,0 1.736,-0.144 2.696,-0.059 v 0 c 1.064,0.093 1.975,0.465 1.975,1.621 v 0 6.357 c 0,0.858 -0.698,1.578 -1.562,1.578 v 0 z"
         transform="matrix(1.25,0,0,-1.25,-3.125e-5,0)"
         id="path7835" />
    </clipPath>
    <clipPath
       clipPathUnits="userSpaceOnUse"
       id="clipPath7837">
      <path
         d="m 266.392,483.852 c -1.017,0 -2.109,-0.322 -2.109,-1.563 v 0 -6.381 c 0.005,-0.859 0.703,-1.553 1.563,-1.553 v 0 h 3.263 c 0.651,0 1.736,-0.144 2.696,-0.059 v 0 c 1.064,0.093 1.975,0.465 1.975,1.621 v 0 6.357 c 0,0.858 -0.698,1.578 -1.562,1.578 v 0 z"
         transform="matrix(1.25,0,0,-1.25,-3.125e-5,0)"
         id="path7837" />
    </clipPath>
    <clipPath
       clipPathUnits="userSpaceOnUse"
       id="clipPath7839">
      <path
         d="m 266.392,483.852 c -1.017,0 -2.109,-0.322 -2.109,-1.563 v 0 -6.381 c 0.005,-0.859 0.703,-1.553 1.563,-1.553 v 0 h 3.263 c 0.651,0 1.736,-0.144 2.696,-0.059 v 0 c 1.064,0.093 1.975,0.465 1.975,1.621 v 0 6.357 c 0,0.858 -0.698,1.578 -1.562,1.578 v 0 z"
         transform="matrix(1.25,0,0,-1.25,-3.125e-5,0)"
         id="path7839" />
    </clipPath>
    <clipPath
       clipPathUnits="userSpaceOnUse"
       id="clipPath7841">
      <path
         d="m 266.392,483.852 c -1.017,0 -2.109,-0.322 -2.109,-1.563 v 0 -6.381 c 0.005,-0.859 0.703,-1.553 1.563,-1.553 v 0 h 3.263 c 0.651,0 1.736,-0.144 2.696,-0.059 v 0 c 1.064,0.093 1.975,0.465 1.975,1.621 v 0 6.357 c 0,0.858 -0.698,1.578 -1.562,1.578 v 0 z"
         transform="matrix(1.25,0,0,-1.25,-3.125e-5,0)"
         id="path7841" />
    </clipPath>
    <clipPath
       clipPathUnits="userSpaceOnUse"
       id="clipPath7843">
      <path
         d="m 266.392,483.852 c -1.017,0 -2.109,-0.322 -2.109,-1.563 v 0 -6.381 c 0.005,-0.859 0.703,-1.553 1.563,-1.553 v 0 h 3.263 c 0.651,0 1.736,-0.144 2.696,-0.059 v 0 c 1.064,0.093 1.975,0.465 1.975,1.621 v 0 6.357 c 0,0.858 -0.698,1.578 -1.562,1.578 v 0 z"
         transform="matrix(1.25,0,0,-1.25,-3.125e-5,0)"
         id="path7843" />
    </clipPath>
    <clipPath
       clipPathUnits="userSpaceOnUse"
       id="clipPath7845">
      <path
         d="m 266.392,483.852 c -1.017,0 -2.109,-0.322 -2.109,-1.563 v 0 -6.381 c 0.005,-0.859 0.703,-1.553 1.563,-1.553 v 0 h 3.263 c 0.651,0 1.736,-0.144 2.696,-0.059 v 0 c 1.064,0.093 1.975,0.465 1.975,1.621 v 0 6.357 c 0,0.858 -0.698,1.578 -1.562,1.578 v 0 z"
         transform="matrix(1.25,0,0,-1.25,-3.125e-5,0)"
         id="path7845" />
    </clipPath>
    <clipPath
       clipPathUnits="userSpaceOnUse"
       id="clipPath7847">
      <path
         d="m 266.392,483.852 c -1.017,0 -2.109,-0.322 -2.109,-1.563 v 0 -6.381 c 0.005,-0.859 0.703,-1.553 1.563,-1.553 v 0 h 3.263 c 0.651,0 1.736,-0.144 2.696,-0.059 v 0 c 1.064,0.093 1.975,0.465 1.975,1.621 v 0 6.357 c 0,0.858 -0.698,1.578 -1.562,1.578 v 0 z"
         transform="matrix(1.25,0,0,-1.25,-3.125e-5,0)"
         id="path7847" />
    </clipPath>
    <clipPath
       clipPathUnits="userSpaceOnUse"
       id="clipPath7849">
      <path
         d="m 266.392,483.852 c -1.017,0 -2.109,-0.322 -2.109,-1.563 v 0 -6.381 c 0.005,-0.859 0.703,-1.553 1.563,-1.553 v 0 h 3.263 c 0.651,0 1.736,-0.144 2.696,-0.059 v 0 c 1.064,0.093 1.975,0.465 1.975,1.621 v 0 6.357 c 0,0.858 -0.698,1.578 -1.562,1.578 v 0 z"
         transform="matrix(1.25,0,0,-1.25,-3.125e-5,0)"
         id="path7849" />
    </clipPath>
    <clipPath
       clipPathUnits="userSpaceOnUse"
       id="clipPath7851">
      <path
         d="m 266.392,483.852 c -1.017,0 -2.109,-0.322 -2.109,-1.563 v 0 -6.381 c 0.005,-0.859 0.703,-1.553 1.563,-1.553 v 0 h 3.263 c 0.651,0 1.736,-0.144 2.696,-0.059 v 0 c 1.064,0.093 1.975,0.465 1.975,1.621 v 0 6.357 c 0,0.858 -0.698,1.578 -1.562,1.578 v 0 z"
         transform="matrix(1.25,0,0,-1.25,-3.125e-5,0)"
         id="path7851" />
    </clipPath>
    <clipPath
       clipPathUnits="userSpaceOnUse"
       id="clipPath7853">
      <path
         d="m 266.392,483.852 c -1.017,0 -2.109,-0.322 -2.109,-1.563 v 0 -6.381 c 0.005,-0.859 0.703,-1.553 1.563,-1.553 v 0 h 3.263 c 0.651,0 1.736,-0.144 2.696,-0.059 v 0 c 1.064,0.093 1.975,0.465 1.975,1.621 v 0 6.357 c 0,0.858 -0.698,1.578 -1.562,1.578 v 0 z"
         transform="matrix(1.25,0,0,-1.25,-3.125e-5,0)"
         id="path7853" />
    </clipPath>
    <clipPath
       clipPathUnits="userSpaceOnUse"
       id="clipPath7855">
      <path
         d="m 266.392,483.852 c -1.017,0 -2.109,-0.322 -2.109,-1.563 v 0 -6.381 c 0.005,-0.859 0.703,-1.553 1.563,-1.553 v 0 h 3.263 c 0.651,0 1.736,-0.144 2.696,-0.059 v 0 c 1.064,0.093 1.975,0.465 1.975,1.621 v 0 6.357 c 0,0.858 -0.698,1.578 -1.562,1.578 v 0 z"
         transform="matrix(1.25,0,0,-1.25,-3.125e-5,0)"
         id="path7855" />
    </clipPath>
    <clipPath
       clipPathUnits="userSpaceOnUse"
       id="clipPath7857">
      <path
         d="m 266.392,483.852 c -1.017,0 -2.109,-0.322 -2.109,-1.563 v 0 -6.381 c 0.005,-0.859 0.703,-1.553 1.563,-1.553 v 0 h 3.263 c 0.651,0 1.736,-0.144 2.696,-0.059 v 0 c 1.064,0.093 1.975,0.465 1.975,1.621 v 0 6.357 c 0,0.858 -0.698,1.578 -1.562,1.578 v 0 z"
         transform="matrix(1.25,0,0,-1.25,-3.125e-5,0)"
         id="path7857" />
    </clipPath>
    <clipPath
       clipPathUnits="userSpaceOnUse"
       id="clipPath7859">
      <path
         d="m 266.392,483.852 c -1.017,0 -2.109,-0.322 -2.109,-1.563 v 0 -6.381 c 0.005,-0.859 0.703,-1.553 1.563,-1.553 v 0 h 3.263 c 0.651,0 1.736,-0.144 2.696,-0.059 v 0 c 1.064,0.093 1.975,0.465 1.975,1.621 v 0 6.357 c 0,0.858 -0.698,1.578 -1.562,1.578 v 0 z"
         transform="matrix(1.25,0,0,-1.25,-3.125e-5,0)"
         id="path7859" />
    </clipPath>
    <clipPath
       clipPathUnits="userSpaceOnUse"
       id="clipPath7861">
      <path
         d="m 266.392,483.852 c -1.017,0 -2.109,-0.322 -2.109,-1.563 v 0 -6.381 c 0.005,-0.859 0.703,-1.553 1.563,-1.553 v 0 h 3.263 c 0.651,0 1.736,-0.144 2.696,-0.059 v 0 c 1.064,0.093 1.975,0.465 1.975,1.621 v 0 6.357 c 0,0.858 -0.698,1.578 -1.562,1.578 v 0 z"
         transform="matrix(1.25,0,0,-1.25,-3.125e-5,0)"
         id="path7861" />
    </clipPath>
  </defs>
  <g
     inkscape:label="Layer 1"
     inkscape:groupmode="layer"
     id="layer1"
     transform="translate(-120.52675,-170.56429)">
    <rect
       style="fill:#80cc28;fill-opacity:1;stroke:#231f20;stroke-width:0.05;stroke-linecap:round;stroke-linejoin:round;stroke-dasharray:none;stroke-dashoffset:0;paint-order:normal"
       id="rect4"
       width="0.92403245"
       height="0.92403239"
       x="120.55175"
       y="170.58929" />
  </g>
</svg>
