<?xml version="1.0" encoding="UTF-8" standalone="no"?>
<!-- Created with Inkscape (http://www.inkscape.org/) -->

<svg
   width="2.7520287mm"
   height="2.7520237mm"
   viewBox="0 0 2.7520288 2.7520238"
   version="1.1"
   id="svg1"
   inkscape:version="1.3 (0e150ed6c4, 2023-07-21)"
   sodipodi:docname="generic-world.svg"
   xml:space="preserve"
   xmlns:inkscape="http://www.inkscape.org/namespaces/inkscape"
   xmlns:sodipodi="http://sodipodi.sourceforge.net/DTD/sodipodi-0.dtd"
   xmlns="http://www.w3.org/2000/svg"
   xmlns:svg="http://www.w3.org/2000/svg"><sodipodi:namedview
     id="namedview1"
     pagecolor="#ffffff"
     bordercolor="#000000"
     borderopacity="0.25"
     inkscape:showpageshadow="2"
     inkscape:pageopacity="0.0"
     inkscape:pagecheckerboard="0"
     inkscape:deskcolor="#d1d1d1"
     inkscape:document-units="mm"
     inkscape:zoom="28.087778"
     inkscape:cx="5.7320304"
     inkscape:cy="9.1854898"
     inkscape:window-width="1920"
     inkscape:window-height="1013"
     inkscape:window-x="0"
     inkscape:window-y="30"
     inkscape:window-maximized="1"
     inkscape:current-layer="layer1" /><defs
     id="defs1"><clipPath
       clipPathUnits="userSpaceOnUse"
       id="clipPath4310"><path
         d="m 60.813,544.359 h 15.605 v 18.543 H 60.813 Z"
         transform="translate(-74.619327,-546.82702)"
         id="path4310" /></clipPath><clipPath
       clipPathUnits="userSpaceOnUse"
       id="clipPath4312"><path
         d="m 60.813,544.359 h 15.605 v 18.543 H 60.813 Z"
         transform="translate(-76.217727,-556.23101)"
         id="path4312" /></clipPath><clipPath
       clipPathUnits="userSpaceOnUse"
       id="clipPath4314"><path
         d="m 60.813,544.359 h 15.605 v 18.543 H 60.813 Z"
         transform="translate(-76.217727,-553.96301)"
         id="path4314" /></clipPath><clipPath
       clipPathUnits="userSpaceOnUse"
       id="clipPath4316"><path
         d="m 60.813,544.359 h 15.605 v 18.543 H 60.813 Z"
         transform="translate(-76.217727,-551.69501)"
         id="path4316" /></clipPath><clipPath
       clipPathUnits="userSpaceOnUse"
       id="clipPath4318"><path
         d="m 60.813,544.359 h 15.605 v 18.543 H 60.813 Z"
         transform="translate(-76.217727,-549.42802)"
         id="path4318" /></clipPath><clipPath
       clipPathUnits="userSpaceOnUse"
       id="clipPath4320"><path
         d="m 60.813,544.359 h 15.605 v 18.543 H 60.813 Z"
         transform="translate(-65.548602,-559.63201)"
         id="path4320" /></clipPath><clipPath
       clipPathUnits="userSpaceOnUse"
       id="clipPath4322"><path
         d="m 60.813,544.359 h 15.605 v 18.543 H 60.813 Z"
         transform="translate(-67.404927,-550.16401)"
         id="path4322" /></clipPath><clipPath
       clipPathUnits="userSpaceOnUse"
       id="clipPath4325"><path
         d="m 216.169,547.275 h 15.489 v 18.542 h -15.489 z"
         transform="translate(-231.45798,-556.49902)"
         id="path4325" /></clipPath><clipPath
       clipPathUnits="userSpaceOnUse"
       id="clipPath4330"><path
         d="m 234.688,547.276 h 15.489 v 18.543 h -15.489 z"
         transform="translate(-249.97803,-556.50001)"
         id="path4330" /></clipPath><clipPath
       clipPathUnits="userSpaceOnUse"
       id="clipPath4333"><path
         d="m 234.688,547.276 h 15.489 v 18.543 h -15.489 z"
         transform="translate(-241.93698,-553.60001)"
         id="path4333" /></clipPath><clipPath
       clipPathUnits="userSpaceOnUse"
       id="clipPath4336"><path
         d="m 378.176,547.276 h 19.348 v 18.542 h -19.348 z"
         transform="translate(-393.46601,-556.50001)"
         id="path4336" /></clipPath><clipPath
       clipPathUnits="userSpaceOnUse"
       id="clipPath4338"><path
         d="m 378.176,547.276 h 19.348 v 18.542 h -19.348 z"
         transform="translate(-396.12401,-551.44501)"
         id="path4338" /></clipPath><clipPath
       clipPathUnits="userSpaceOnUse"
       id="clipPath4340"><path
         d="m 378.176,547.276 h 19.348 v 18.542 h -19.348 z"
         transform="translate(-397.32401,-558.49801)"
         id="path4340" /></clipPath><clipPath
       clipPathUnits="userSpaceOnUse"
       id="clipPath4342"><path
         d="m 378.176,547.276 h 19.348 v 18.542 h -19.348 z"
         transform="translate(-397.32401,-556.79602)"
         id="path4342" /></clipPath><clipPath
       clipPathUnits="userSpaceOnUse"
       id="clipPath4344"><path
         d="m 378.176,547.276 h 19.348 v 18.542 h -19.348 z"
         transform="translate(-397.32401,-555.09601)"
         id="path4344" /></clipPath><clipPath
       clipPathUnits="userSpaceOnUse"
       id="clipPath4346"><path
         d="m 378.176,547.276 h 19.348 v 18.542 h -19.348 z"
         transform="translate(-397.32401,-553.39601)"
         id="path4346" /></clipPath><clipPath
       clipPathUnits="userSpaceOnUse"
       id="clipPath4348"><path
         d="m 378.176,547.276 h 19.348 v 18.542 h -19.348 z"
         transform="translate(-389.32098,-561.05002)"
         id="path4348" /></clipPath><clipPath
       clipPathUnits="userSpaceOnUse"
       id="clipPath4350"><path
         d="m 378.176,547.276 h 19.348 v 18.542 h -19.348 z"
         transform="translate(-390.65103,-553.97401)"
         id="path4350" /></clipPath><clipPath
       clipPathUnits="userSpaceOnUse"
       id="clipPath4336-9"><path
         d="m 378.176,547.276 h 19.348 v 18.542 h -19.348 z"
         transform="translate(-393.46601,-556.50001)"
         id="path4336-2" /></clipPath><clipPath
       clipPathUnits="userSpaceOnUse"
       id="clipPath4338-0"><path
         d="m 378.176,547.276 h 19.348 v 18.542 h -19.348 z"
         transform="translate(-396.12401,-551.44501)"
         id="path4338-2" /></clipPath><clipPath
       clipPathUnits="userSpaceOnUse"
       id="clipPath4340-3"><path
         d="m 378.176,547.276 h 19.348 v 18.542 h -19.348 z"
         transform="translate(-397.32401,-558.49801)"
         id="path4340-7" /></clipPath><clipPath
       clipPathUnits="userSpaceOnUse"
       id="clipPath4342-5"><path
         d="m 378.176,547.276 h 19.348 v 18.542 h -19.348 z"
         transform="translate(-397.32401,-556.79602)"
         id="path4342-9" /></clipPath><clipPath
       clipPathUnits="userSpaceOnUse"
       id="clipPath4344-2"><path
         d="m 378.176,547.276 h 19.348 v 18.542 h -19.348 z"
         transform="translate(-397.32401,-555.09601)"
         id="path4344-2" /></clipPath><clipPath
       clipPathUnits="userSpaceOnUse"
       id="clipPath4346-8"><path
         d="m 378.176,547.276 h 19.348 v 18.542 h -19.348 z"
         transform="translate(-397.32401,-553.39601)"
         id="path4346-9" /></clipPath><clipPath
       clipPathUnits="userSpaceOnUse"
       id="clipPath4348-7"><path
         d="m 378.176,547.276 h 19.348 v 18.542 h -19.348 z"
         transform="translate(-389.32098,-561.05002)"
         id="path4348-3" /></clipPath><clipPath
       clipPathUnits="userSpaceOnUse"
       id="clipPath4350-6"><path
         d="m 378.176,547.276 h 19.348 v 18.542 h -19.348 z"
         transform="translate(-390.65103,-553.97401)"
         id="path4350-1" /></clipPath><clipPath
       clipPathUnits="userSpaceOnUse"
       id="clipPath4496"><path
         d="m 161.771,461.299 h 11.371 v 11.37 h -11.371 z"
         transform="translate(-171.142,-466.98401)"
         id="path4496" /></clipPath><clipPath
       clipPathUnits="userSpaceOnUse"
       id="clipPath4502"><path
         d="m 302.944,451.568 h 19.614 v 10.801 h -19.614 z"
         transform="translate(-308.34401,-453.56801)"
         id="path4502" /></clipPath><clipPath
       clipPathUnits="userSpaceOnUse"
       id="clipPath4500"><path
         d="m 302.944,451.568 h 19.614 v 10.801 h -19.614 z"
         transform="translate(-311.74503,-456.96801)"
         id="path4500" /></clipPath><clipPath
       clipPathUnits="userSpaceOnUse"
       id="clipPath4498"><path
         d="m 302.944,451.568 h 19.614 v 10.801 h -19.614 z"
         transform="translate(-311.74503,-456.96801)"
         id="path4498" /></clipPath><clipPath
       clipPathUnits="userSpaceOnUse"
       id="clipPath4502-7"><path
         d="m 302.944,451.568 h 19.614 v 10.801 h -19.614 z"
         transform="translate(-308.34401,-453.56801)"
         id="path4502-4" /></clipPath><clipPath
       clipPathUnits="userSpaceOnUse"
       id="clipPath4500-4"><path
         d="m 302.944,451.568 h 19.614 v 10.801 h -19.614 z"
         transform="translate(-311.74503,-456.96801)"
         id="path4500-3" /></clipPath><clipPath
       clipPathUnits="userSpaceOnUse"
       id="clipPath4498-0"><path
         d="m 302.944,451.568 h 19.614 v 10.801 h -19.614 z"
         transform="translate(-311.74503,-456.96801)"
         id="path4498-7" /></clipPath><clipPath
       clipPathUnits="userSpaceOnUse"
       id="clipPath4502-8"><path
         d="m 302.944,451.568 h 19.614 v 10.801 h -19.614 z"
         transform="translate(-308.34401,-453.56801)"
         id="path4502-43" /></clipPath><clipPath
       clipPathUnits="userSpaceOnUse"
       id="clipPath4500-1"><path
         d="m 302.944,451.568 h 19.614 v 10.801 h -19.614 z"
         transform="translate(-311.74503,-456.96801)"
         id="path4500-4" /></clipPath><clipPath
       clipPathUnits="userSpaceOnUse"
       id="clipPath4498-9"><path
         d="m 302.944,451.568 h 19.614 v 10.801 h -19.614 z"
         transform="translate(-311.74503,-456.96801)"
         id="path4498-2" /></clipPath><clipPath
       clipPathUnits="userSpaceOnUse"
       id="clipPath4508"><path
         d="m 302.944,451.568 h 19.614 v 10.801 h -19.614 z"
         transform="translate(-318.59103,-458.89601)"
         id="path4508" /></clipPath><clipPath
       clipPathUnits="userSpaceOnUse"
       id="clipPath4506"><path
         d="m 302.944,451.568 h 19.614 v 10.801 h -19.614 z"
         transform="translate(-320.51703,-456.96801)"
         id="path4506" /></clipPath><clipPath
       clipPathUnits="userSpaceOnUse"
       id="clipPath4504"><path
         d="m 302.944,451.568 h 19.614 v 10.801 h -19.614 z"
         transform="translate(-322.55703,-456.96801)"
         id="path4504" /></clipPath><clipPath
       clipPathUnits="userSpaceOnUse"
       id="clipPath4364"><path
         d="m 375.244,456.034 h 41.586 v 26.778 h -41.586 z"
         transform="translate(-410.44699,-467.50601)"
         id="path4364" /></clipPath><clipPath
       clipPathUnits="userSpaceOnUse"
       id="clipPath4366"><path
         d="m 375.244,456.034 h 41.586 v 26.778 h -41.586 z"
         transform="translate(-2.5000001e-5)"
         id="path4366" /></clipPath><clipPath
       clipPathUnits="userSpaceOnUse"
       id="clipPath4368"><path
         d="m 375.244,456.034 h 41.586 v 26.778 h -41.586 z"
         transform="translate(-404.83901,-468.77501)"
         id="path4368" /></clipPath><clipPath
       clipPathUnits="userSpaceOnUse"
       id="clipPath4370"><path
         d="m 375.244,456.034 h 41.586 v 26.778 h -41.586 z"
         transform="translate(-414.43001,-476.18701)"
         id="path4370" /></clipPath><radialGradient
       fx="0"
       fy="0"
       cx="0"
       cy="0"
       r="1"
       gradientUnits="userSpaceOnUse"
       gradientTransform="matrix(0.79988124,0,0,0.79988124,99.064506,164.78954)"
       spreadMethod="pad"
       id="radialGradient4372"><stop
         style="stop-opacity:1;stop-color:#fff200"
         offset="0"
         id="stop4370" /><stop
         style="stop-opacity:1;stop-color:#fff200"
         offset="0.79908705"
         id="stop4371" /><stop
         style="stop-opacity:1;stop-color:#b0a600"
         offset="1"
         id="stop4372" /></radialGradient><clipPath
       clipPathUnits="userSpaceOnUse"
       id="clipPath4374"><path
         d="m 375.244,456.034 h 41.586 v 26.778 h -41.586 z"
         transform="translate(-407.05601,-479.36101)"
         id="path4374" /></clipPath><clipPath
       clipPathUnits="userSpaceOnUse"
       id="clipPath4376"><path
         d="m 375.244,456.034 h 41.586 v 26.778 h -41.586 z"
         transform="translate(-395.18598,-467.50601)"
         id="path4376" /></clipPath><clipPath
       clipPathUnits="userSpaceOnUse"
       id="clipPath4378"><path
         d="m 375.244,456.034 h 41.586 v 26.778 h -41.586 z"
         transform="translate(-386.78298,-460.70301)"
         id="path4378" /></clipPath><clipPath
       clipPathUnits="userSpaceOnUse"
       id="clipPath4380"><path
         d="m 375.244,456.034 h 41.586 v 26.778 h -41.586 z"
         transform="translate(-377.08203,-475.04601)"
         id="path4380" /></clipPath><clipPath
       clipPathUnits="userSpaceOnUse"
       id="clipPath4382"><path
         d="m 375.244,456.034 h 41.586 v 26.778 h -41.586 z"
         transform="translate(-385.14701,-475.04601)"
         id="path4382" /></clipPath><clipPath
       clipPathUnits="userSpaceOnUse"
       id="clipPath4364-5"><path
         d="m 375.244,456.034 h 41.586 v 26.778 h -41.586 z"
         transform="translate(-410.44699,-467.50601)"
         id="path4364-0" /></clipPath><clipPath
       clipPathUnits="userSpaceOnUse"
       id="clipPath4366-4"><path
         d="m 375.244,456.034 h 41.586 v 26.778 h -41.586 z"
         transform="translate(-2.5000001e-5)"
         id="path4366-8" /></clipPath><clipPath
       clipPathUnits="userSpaceOnUse"
       id="clipPath4368-7"><path
         d="m 375.244,456.034 h 41.586 v 26.778 h -41.586 z"
         transform="translate(-404.83901,-468.77501)"
         id="path4368-1" /></clipPath><clipPath
       clipPathUnits="userSpaceOnUse"
       id="clipPath4370-7"><path
         d="m 375.244,456.034 h 41.586 v 26.778 h -41.586 z"
         transform="translate(-414.43001,-476.18701)"
         id="path4370-2" /></clipPath><radialGradient
       fx="0"
       fy="0"
       cx="0"
       cy="0"
       r="1"
       gradientUnits="userSpaceOnUse"
       gradientTransform="matrix(0.79988124,0,0,0.79988124,99.858206,161.61453)"
       spreadMethod="pad"
       id="radialGradient4372-7"><stop
         style="stop-opacity:1;stop-color:#fff200"
         offset="0"
         id="stop4370-2" /><stop
         style="stop-opacity:1;stop-color:#fff200"
         offset="0.79908705"
         id="stop4371-2" /><stop
         style="stop-opacity:1;stop-color:#b0a600"
         offset="1"
         id="stop4372-6" /></radialGradient><clipPath
       clipPathUnits="userSpaceOnUse"
       id="clipPath4374-1"><path
         d="m 375.244,456.034 h 41.586 v 26.778 h -41.586 z"
         transform="translate(-407.05601,-479.36101)"
         id="path4374-0" /></clipPath><clipPath
       clipPathUnits="userSpaceOnUse"
       id="clipPath4376-6"><path
         d="m 375.244,456.034 h 41.586 v 26.778 h -41.586 z"
         transform="translate(-395.18598,-467.50601)"
         id="path4376-1" /></clipPath><clipPath
       clipPathUnits="userSpaceOnUse"
       id="clipPath4378-5"><path
         d="m 375.244,456.034 h 41.586 v 26.778 h -41.586 z"
         transform="translate(-386.78298,-460.70301)"
         id="path4378-9" /></clipPath><clipPath
       clipPathUnits="userSpaceOnUse"
       id="clipPath4380-4"><path
         d="m 375.244,456.034 h 41.586 v 26.778 h -41.586 z"
         transform="translate(-377.08203,-475.04601)"
         id="path4380-9" /></clipPath><clipPath
       clipPathUnits="userSpaceOnUse"
       id="clipPath4382-0"><path
         d="m 375.244,456.034 h 41.586 v 26.778 h -41.586 z"
         transform="translate(-385.14701,-475.04601)"
         id="path4382-9" /></clipPath><clipPath
       clipPathUnits="userSpaceOnUse"
       id="clipPath4510"><path
         d="m 476.075,411.308 h 19.614 v 10.801 h -19.614 z"
         transform="translate(-484.87601,-416.70801)"
         id="path4510" /></clipPath><clipPath
       clipPathUnits="userSpaceOnUse"
       id="clipPath4512"><path
         d="m 476.075,411.308 h 19.614 v 10.801 h -19.614 z"
         transform="translate(-484.87601,-416.70801)"
         id="path4512" /></clipPath><clipPath
       clipPathUnits="userSpaceOnUse"
       id="clipPath4514"><path
         d="m 476.075,411.308 h 19.614 v 10.801 h -19.614 z"
         transform="translate(-481.47604,-413.30801)"
         id="path4514" /></clipPath><clipPath
       clipPathUnits="userSpaceOnUse"
       id="clipPath4516"><path
         d="m 476.075,411.308 h 19.614 v 10.801 h -19.614 z"
         transform="translate(-495.68801,-416.70901)"
         id="path4516" /></clipPath><clipPath
       clipPathUnits="userSpaceOnUse"
       id="clipPath4518"><path
         d="m 476.075,411.308 h 19.614 v 10.801 h -19.614 z"
         transform="translate(-493.64899,-416.70901)"
         id="path4518" /></clipPath><clipPath
       clipPathUnits="userSpaceOnUse"
       id="clipPath4520"><path
         d="m 476.075,411.308 h 19.614 v 10.801 h -19.614 z"
         transform="translate(-491.72299,-418.63601)"
         id="path4520" /></clipPath><clipPath
       clipPathUnits="userSpaceOnUse"
       id="clipPath4510-6"><path
         d="m 476.075,411.308 h 19.614 v 10.801 h -19.614 z"
         transform="translate(-484.87601,-416.70801)"
         id="path4510-7" /></clipPath><clipPath
       clipPathUnits="userSpaceOnUse"
       id="clipPath4512-3"><path
         d="m 476.075,411.308 h 19.614 v 10.801 h -19.614 z"
         transform="translate(-484.87601,-416.70801)"
         id="path4512-6" /></clipPath><clipPath
       clipPathUnits="userSpaceOnUse"
       id="clipPath4514-5"><path
         d="m 476.075,411.308 h 19.614 v 10.801 h -19.614 z"
         transform="translate(-481.47604,-413.30801)"
         id="path4514-6" /></clipPath></defs><g
     inkscape:label="Layer 1"
     inkscape:groupmode="layer"
     id="layer1"
     transform="translate(-96.0432,-161.4473)"><path
       id="path4509"
       d="m 0,0 c 0,1.878 -1.522,3.401 -3.4,3.401 -1.878,0 -3.401,-1.523 -3.401,-3.401 0,-1.878 1.523,-3.4 3.401,-3.4 1.878,0 3.4,1.522 3.4,3.4"
       style="fill:#ffffff;fill-opacity:1;fill-rule:nonzero;stroke:none"
       transform="matrix(0.35277776,0,0,-0.35277776,98.61883,162.82349)"
       clip-path="url(#clipPath4510-6)" /><path
       id="path4511"
       d="m 0,0 c 0,1.878 -1.522,3.401 -3.4,3.401 -1.878,0 -3.401,-1.523 -3.401,-3.401 0,-1.878 1.523,-3.4 3.401,-3.4 1.878,0 3.4,1.522 3.4,3.4 z"
       style="fill:none;stroke:#231f20;stroke-width:1;stroke-linecap:butt;stroke-linejoin:miter;stroke-miterlimit:4;stroke-dasharray:none;stroke-opacity:1"
       transform="matrix(0.35277776,0,0,-0.35277776,98.61883,162.82349)"
       clip-path="url(#clipPath4512-3)" /><path
       id="path4513"
       d="M 0,0 C 1.878,0 3.4,1.521 3.4,3.4 3.4,5.278 1.878,6.801 0,6.801"
       style="fill:none;stroke:#ed1c24;stroke-width:1;stroke-linecap:butt;stroke-linejoin:miter;stroke-miterlimit:4;stroke-dasharray:none;stroke-opacity:1"
       transform="matrix(0.35277776,0,0,-0.35277776,97.419395,164.02293)"
       clip-path="url(#clipPath4514-5)" /></g></svg>
