<?xml version="1.0" encoding="UTF-8" standalone="no"?>
<!-- Created with Inkscape (http://www.inkscape.org/) -->

<svg
   width="9.5638113mm"
   height="4.9409981mm"
   viewBox="0 0 9.5638113 4.9409981"
   version="1.1"
   id="svg1"
   inkscape:version="1.3 (0e150ed6c4, 2023-07-21)"
   sodipodi:docname="draw-2-keep-1-extra.svg"
   xmlns:inkscape="http://www.inkscape.org/namespaces/inkscape"
   xmlns:sodipodi="http://sodipodi.sourceforge.net/DTD/sodipodi-0.dtd"
   xmlns="http://www.w3.org/2000/svg"
   xmlns:svg="http://www.w3.org/2000/svg">
  <sodipodi:namedview
     id="namedview1"
     pagecolor="#ffffff"
     bordercolor="#000000"
     borderopacity="0.25"
     inkscape:showpageshadow="2"
     inkscape:pageopacity="0.0"
     inkscape:pagecheckerboard="0"
     inkscape:deskcolor="#d1d1d1"
     inkscape:document-units="mm"
     showgrid="false"
     inkscape:zoom="18.47893"
     inkscape:cx="21.754507"
     inkscape:cy="5.3574531"
     inkscape:window-width="1920"
     inkscape:window-height="1013"
     inkscape:window-x="0"
     inkscape:window-y="30"
     inkscape:window-maximized="1"
     inkscape:current-layer="layer1">
    <inkscape:grid
       id="grid1"
       units="mm"
       originx="0"
       originy="0"
       spacingx="1.0000001"
       spacingy="0.99999999"
       empcolor="#0099e5"
       empopacity="0.30196078"
       color="#0099e5"
       opacity="0.14901961"
       empspacing="5"
       dotted="false"
       gridanglex="30"
       gridanglez="30"
       visible="false" />
  </sodipodi:namedview>
  <defs
     id="defs1">
    <clipPath
       clipPathUnits="userSpaceOnUse"
       id="clipPath5786">
      <path
         d="m 375.382,664.548 h 27.111 v 14.006 h -27.111 z"
         transform="translate(-384.65298,-667.07002)"
         id="path5786" />
    </clipPath>
    <clipPath
       clipPathUnits="userSpaceOnUse"
       id="clipPath5788">
      <path
         d="m 375.382,664.548 h 27.111 v 14.006 h -27.111 z"
         transform="translate(-389.13198,-671.55002)"
         id="path5788" />
    </clipPath>
    <clipPath
       clipPathUnits="userSpaceOnUse"
       id="clipPath5790">
      <path
         d="m 375.382,664.548 h 27.111 v 14.006 h -27.111 z"
         transform="translate(-383.56503,-671.05301)"
         id="path5790" />
    </clipPath>
    <clipPath
       clipPathUnits="userSpaceOnUse"
       id="clipPath5792">
      <path
         d="m 375.382,664.548 h 27.111 v 14.006 h -27.111 z"
         transform="translate(-384.85601,-670.01702)"
         id="path5792" />
    </clipPath>
    <clipPath
       clipPathUnits="userSpaceOnUse"
       id="clipPath5794">
      <path
         d="m 375.382,664.548 h 27.111 v 14.006 h -27.111 z"
         transform="translate(-401.09201,-666.45002)"
         id="path5794" />
    </clipPath>
    <clipPath
       clipPathUnits="userSpaceOnUse"
       id="clipPath5796">
      <path
         d="m 375.382,664.548 h 27.111 v 14.006 h -27.111 z"
         transform="translate(-402.29201,-673.50101)"
         id="path5796" />
    </clipPath>
    <clipPath
       clipPathUnits="userSpaceOnUse"
       id="clipPath5798">
      <path
         d="m 375.382,664.548 h 27.111 v 14.006 h -27.111 z"
         transform="translate(-402.29201,-671.80102)"
         id="path5798" />
    </clipPath>
    <clipPath
       clipPathUnits="userSpaceOnUse"
       id="clipPath5800">
      <path
         d="m 375.382,664.548 h 27.111 v 14.006 h -27.111 z"
         transform="translate(-402.29201,-670.10002)"
         id="path5800" />
    </clipPath>
    <clipPath
       clipPathUnits="userSpaceOnUse"
       id="clipPath5802">
      <path
         d="m 375.382,664.548 h 27.111 v 14.006 h -27.111 z"
         transform="translate(-402.29201,-668.40002)"
         id="path5802" />
    </clipPath>
    <clipPath
       clipPathUnits="userSpaceOnUse"
       id="clipPath5804">
      <path
         d="m 375.382,664.548 h 27.111 v 14.006 h -27.111 z"
         transform="translate(-394.28898,-676.05302)"
         id="path5804" />
    </clipPath>
    <clipPath
       clipPathUnits="userSpaceOnUse"
       id="clipPath5806">
      <path
         d="m 375.382,664.548 h 27.111 v 14.006 h -27.111 z"
         transform="translate(-395.13401,-670.58702)"
         id="path5806" />
    </clipPath>
    <clipPath
       clipPathUnits="userSpaceOnUse"
       id="clipPath5808">
      <path
         d="m 375.382,664.548 h 27.111 v 14.006 h -27.111 z"
         transform="translate(-396.67503,-669.55001)"
         id="path5808" />
    </clipPath>
  </defs>
  <g
     inkscape:label="Layer 1"
     inkscape:groupmode="layer"
     id="layer1"
     transform="translate(-105.83327,-111.91875)">
    <path
       id="path5785"
       d="M 0,0 C 3.727,0 7.021,1.768 9.071,4.48 7.021,7.191 3.727,8.959 0,8.959 -3.727,8.959 -7.021,7.191 -9.071,4.48 -7.021,1.768 -3.727,0 0,0"
       style="fill:#918f90;fill-opacity:1;fill-rule:nonzero;stroke:#231f20;stroke-width:0.4;stroke-linecap:round;stroke-linejoin:round;stroke-miterlimit:4;stroke-dasharray:none;stroke-opacity:1"
       transform="matrix(0.35277776,0,0,-0.35277776,109.10387,115.97004)"
       clip-path="url(#clipPath5786)" />
    <path
       id="path5787"
       d="m 0,0 c 0,-2.474 -2.005,-4.48 -4.48,-4.48 -2.474,0 -4.479,2.006 -4.479,4.48 0,2.473 2.005,4.479 4.479,4.479 C -2.005,4.479 0,2.473 0,0"
       style="fill:#ffffff;fill-opacity:1;fill-rule:nonzero;stroke:#231f20;stroke-width:0.4;stroke-linecap:round;stroke-linejoin:round;stroke-miterlimit:4;stroke-dasharray:none;stroke-opacity:1"
       transform="matrix(0.35277776,0,0,-0.35277776,110.68397,114.3896)"
       clip-path="url(#clipPath5788)" />
    <path
       id="path5789"
       d="M 0,0 V -0.767 H -0.586 V 0 h -0.773 v 0.586 h 0.773 V 1.354 H 0 V 0.586 H 0.768 V 0 Z"
       style="fill:#231f20;fill-opacity:1;fill-rule:nonzero;stroke:none"
       transform="matrix(0.35277776,0,0,-0.35277776,108.72007,114.56493)"
       clip-path="url(#clipPath5790)" />
    <path
       id="path5791"
       d="m 0,0 v 0.561 l 1.277,1.483 c 0.125,0.149 0.177,0.255 0.177,0.413 0,0.255 -0.149,0.427 -0.412,0.427 -0.207,0 -0.418,-0.105 -0.418,-0.436 H 0 c 0,0.623 0.456,0.998 1.042,0.998 0.604,0 1.037,-0.379 1.037,-0.994 0,-0.331 -0.13,-0.508 -0.365,-0.782 L 0.758,0.561 H 2.079 V 0 Z"
       style="fill:#231f20;fill-opacity:1;fill-rule:nonzero;stroke:none"
       transform="matrix(0.35277776,0,0,-0.35277776,109.1755,114.93041)"
       clip-path="url(#clipPath5792)" />
    <path
       id="path5793"
       d="m 0,0 c 0,-0.941 -0.761,-1.702 -1.702,-1.702 h -5.101 c -0.939,0 -1.7,0.761 -1.7,1.702 v 10.203 c 0,0.94 0.761,1.702 1.7,1.702 h 5.101 C -0.761,11.905 0,11.143 0,10.203 Z"
       style="fill:#ffffff;fill-opacity:1;fill-rule:nonzero;stroke:#231f20;stroke-width:0.4;stroke-linecap:round;stroke-linejoin:round;stroke-miterlimit:4;stroke-dasharray:none;stroke-opacity:1"
       transform="matrix(0.35277776,0,0,-0.35277776,114.9032,116.18876)"
       clip-path="url(#clipPath5794)" />
    <path
       id="path5795"
       d="m 0,0 c 0,-0.469 -0.381,-0.85 -0.852,-0.85 h -1.1 c -0.47,0 -0.851,0.381 -0.851,0.85 0,0.47 0.381,0.851 0.851,0.851 h 1.1 C -0.381,0.851 0,0.47 0,0"
       style="fill:#e9e9e9;fill-opacity:1;fill-rule:nonzero;stroke:#231f20;stroke-width:0.4;stroke-linecap:round;stroke-linejoin:round;stroke-miterlimit:4;stroke-dasharray:none;stroke-opacity:1"
       transform="matrix(0.35277776,0,0,-0.35277776,115.32653,113.70133)"
       clip-path="url(#clipPath5796)" />
    <path
       id="path5797"
       d="m 0,0 c 0,-0.469 -0.381,-0.85 -0.852,-0.85 h -1.1 c -0.47,0 -0.851,0.381 -0.851,0.85 0,0.47 0.381,0.85 0.851,0.85 h 1.1 C -0.381,0.85 0,0.47 0,0"
       style="fill:#e9e9e9;fill-opacity:1;fill-rule:nonzero;stroke:#231f20;stroke-width:0.4;stroke-linecap:round;stroke-linejoin:round;stroke-miterlimit:4;stroke-dasharray:none;stroke-opacity:1"
       transform="matrix(0.35277776,0,0,-0.35277776,115.32653,114.30105)"
       clip-path="url(#clipPath5798)" />
    <path
       id="path5799"
       d="m 0,0 c 0,-0.469 -0.381,-0.849 -0.852,-0.849 h -1.1 c -0.47,0 -0.851,0.38 -0.851,0.849 0,0.47 0.381,0.852 0.851,0.852 h 1.1 C -0.381,0.852 0,0.47 0,0"
       style="fill:#e9e9e9;fill-opacity:1;fill-rule:nonzero;stroke:#231f20;stroke-width:0.4;stroke-linecap:round;stroke-linejoin:round;stroke-miterlimit:4;stroke-dasharray:none;stroke-opacity:1"
       transform="matrix(0.35277776,0,0,-0.35277776,115.32653,114.90112)"
       clip-path="url(#clipPath5800)" />
    <path
       id="path5801"
       d="m 0,0 c 0,-0.47 -0.381,-0.85 -0.852,-0.85 h -1.1 c -0.47,0 -0.851,0.38 -0.851,0.85 0,0.47 0.381,0.851 0.851,0.851 h 1.1 C -0.381,0.851 0,0.47 0,0"
       style="fill:#e9e9e9;fill-opacity:1;fill-rule:nonzero;stroke:#231f20;stroke-width:0.4;stroke-linecap:round;stroke-linejoin:round;stroke-miterlimit:4;stroke-dasharray:none;stroke-opacity:1"
       transform="matrix(0.35277776,0,0,-0.35277776,115.32653,115.50085)"
       clip-path="url(#clipPath5802)" />
    <path
       id="path5803"
       d="m 0,0 h -1.7 c -0.939,0 -1.7,-0.761 -1.7,-1.7 v -5.604 c 0,-0.938 0.761,-1.701 1.7,-1.701 V -1.7 H 0 c 0.47,0 0.852,0.38 0.852,0.85 C 0.852,-0.38 0.47,0 0,0"
       style="fill:#e9e9e9;fill-opacity:1;fill-rule:nonzero;stroke:#231f20;stroke-width:0.4;stroke-linecap:round;stroke-linejoin:round;stroke-miterlimit:4;stroke-dasharray:none;stroke-opacity:1"
       transform="matrix(0.35277776,0,0,-0.35277776,112.50324,112.80104)"
       clip-path="url(#clipPath5804)" />
    <path
       id="path5805"
       d="M 0,0 V -0.768 H -0.585 V 0 h -0.774 v 0.586 h 0.774 V 1.354 H 0 V 0.586 H 0.768 V 0 Z"
       style="fill:#231f20;fill-opacity:1;fill-rule:nonzero;stroke:none"
       transform="matrix(0.35277776,0,0,-0.35277776,112.80135,114.72932)"
       clip-path="url(#clipPath5806)" />
    <path
       id="path5807"
       d="M 0,0 V 0.528 H 0.576 V 2.746 L -0.12,2.141 V 2.813 L 0.576,3.418 H 1.2 V 0.528 H 1.733 V 0 Z"
       style="fill:#231f20;fill-opacity:1;fill-rule:nonzero;stroke:none"
       transform="matrix(0.35277776,0,0,-0.35277776,113.34499,115.09515)"
       clip-path="url(#clipPath5808)" />
  </g>
</svg>
