<?xml version="1.0" encoding="UTF-8" standalone="no"?>
<!-- Created with Inkscape (http://www.inkscape.org/) -->

<svg
   width="8.1343441mm"
   height="6.8234305mm"
   viewBox="0 0 8.1343442 6.8234308"
   version="1.1"
   id="svg1"
   inkscape:version="1.3 (0e150ed6c4, 2023-07-21)"
   sodipodi:docname="draw-after-settle.svg"
   xml:space="preserve"
   xmlns:inkscape="http://www.inkscape.org/namespaces/inkscape"
   xmlns:sodipodi="http://sodipodi.sourceforge.net/DTD/sodipodi-0.dtd"
   xmlns="http://www.w3.org/2000/svg"
   xmlns:svg="http://www.w3.org/2000/svg"><sodipodi:namedview
     id="namedview1"
     pagecolor="#ffffff"
     bordercolor="#000000"
     borderopacity="0.25"
     inkscape:showpageshadow="2"
     inkscape:pageopacity="0.0"
     inkscape:pagecheckerboard="0"
     inkscape:deskcolor="#d1d1d1"
     inkscape:document-units="mm"
     inkscape:zoom="13.564307"
     inkscape:cx="9.1785008"
     inkscape:cy="15.924146"
     inkscape:window-width="1920"
     inkscape:window-height="1013"
     inkscape:window-x="0"
     inkscape:window-y="30"
     inkscape:window-maximized="1"
     inkscape:current-layer="layer1" /><defs
     id="defs1"><clipPath
       clipPathUnits="userSpaceOnUse"
       id="clipPath4310"><path
         d="m 60.813,544.359 h 15.605 v 18.543 H 60.813 Z"
         transform="translate(-74.619327,-546.82702)"
         id="path4310" /></clipPath><clipPath
       clipPathUnits="userSpaceOnUse"
       id="clipPath4312"><path
         d="m 60.813,544.359 h 15.605 v 18.543 H 60.813 Z"
         transform="translate(-76.217727,-556.23101)"
         id="path4312" /></clipPath><clipPath
       clipPathUnits="userSpaceOnUse"
       id="clipPath4314"><path
         d="m 60.813,544.359 h 15.605 v 18.543 H 60.813 Z"
         transform="translate(-76.217727,-553.96301)"
         id="path4314" /></clipPath><clipPath
       clipPathUnits="userSpaceOnUse"
       id="clipPath4316"><path
         d="m 60.813,544.359 h 15.605 v 18.543 H 60.813 Z"
         transform="translate(-76.217727,-551.69501)"
         id="path4316" /></clipPath><clipPath
       clipPathUnits="userSpaceOnUse"
       id="clipPath4318"><path
         d="m 60.813,544.359 h 15.605 v 18.543 H 60.813 Z"
         transform="translate(-76.217727,-549.42802)"
         id="path4318" /></clipPath><clipPath
       clipPathUnits="userSpaceOnUse"
       id="clipPath4320"><path
         d="m 60.813,544.359 h 15.605 v 18.543 H 60.813 Z"
         transform="translate(-65.548602,-559.63201)"
         id="path4320" /></clipPath><clipPath
       clipPathUnits="userSpaceOnUse"
       id="clipPath4322"><path
         d="m 60.813,544.359 h 15.605 v 18.543 H 60.813 Z"
         transform="translate(-67.404927,-550.16401)"
         id="path4322" /></clipPath><clipPath
       clipPathUnits="userSpaceOnUse"
       id="clipPath4325"><path
         d="m 216.169,547.275 h 15.489 v 18.542 h -15.489 z"
         transform="translate(-231.45798,-556.49902)"
         id="path4325" /></clipPath><clipPath
       clipPathUnits="userSpaceOnUse"
       id="clipPath4330"><path
         d="m 234.688,547.276 h 15.489 v 18.543 h -15.489 z"
         transform="translate(-249.97803,-556.50001)"
         id="path4330" /></clipPath><clipPath
       clipPathUnits="userSpaceOnUse"
       id="clipPath4333"><path
         d="m 234.688,547.276 h 15.489 v 18.543 h -15.489 z"
         transform="translate(-241.93698,-553.60001)"
         id="path4333" /></clipPath><clipPath
       clipPathUnits="userSpaceOnUse"
       id="clipPath4336"><path
         d="m 378.176,547.276 h 19.348 v 18.542 h -19.348 z"
         transform="translate(-393.46601,-556.50001)"
         id="path4336" /></clipPath><clipPath
       clipPathUnits="userSpaceOnUse"
       id="clipPath4338"><path
         d="m 378.176,547.276 h 19.348 v 18.542 h -19.348 z"
         transform="translate(-396.12401,-551.44501)"
         id="path4338" /></clipPath><clipPath
       clipPathUnits="userSpaceOnUse"
       id="clipPath4340"><path
         d="m 378.176,547.276 h 19.348 v 18.542 h -19.348 z"
         transform="translate(-397.32401,-558.49801)"
         id="path4340" /></clipPath><clipPath
       clipPathUnits="userSpaceOnUse"
       id="clipPath4342"><path
         d="m 378.176,547.276 h 19.348 v 18.542 h -19.348 z"
         transform="translate(-397.32401,-556.79602)"
         id="path4342" /></clipPath><clipPath
       clipPathUnits="userSpaceOnUse"
       id="clipPath4344"><path
         d="m 378.176,547.276 h 19.348 v 18.542 h -19.348 z"
         transform="translate(-397.32401,-555.09601)"
         id="path4344" /></clipPath><clipPath
       clipPathUnits="userSpaceOnUse"
       id="clipPath4346"><path
         d="m 378.176,547.276 h 19.348 v 18.542 h -19.348 z"
         transform="translate(-397.32401,-553.39601)"
         id="path4346" /></clipPath><clipPath
       clipPathUnits="userSpaceOnUse"
       id="clipPath4348"><path
         d="m 378.176,547.276 h 19.348 v 18.542 h -19.348 z"
         transform="translate(-389.32098,-561.05002)"
         id="path4348" /></clipPath><clipPath
       clipPathUnits="userSpaceOnUse"
       id="clipPath4350"><path
         d="m 378.176,547.276 h 19.348 v 18.542 h -19.348 z"
         transform="translate(-390.65103,-553.97401)"
         id="path4350" /></clipPath><clipPath
       clipPathUnits="userSpaceOnUse"
       id="clipPath4336-9"><path
         d="m 378.176,547.276 h 19.348 v 18.542 h -19.348 z"
         transform="translate(-393.46601,-556.50001)"
         id="path4336-2" /></clipPath><clipPath
       clipPathUnits="userSpaceOnUse"
       id="clipPath4338-0"><path
         d="m 378.176,547.276 h 19.348 v 18.542 h -19.348 z"
         transform="translate(-396.12401,-551.44501)"
         id="path4338-2" /></clipPath><clipPath
       clipPathUnits="userSpaceOnUse"
       id="clipPath4340-3"><path
         d="m 378.176,547.276 h 19.348 v 18.542 h -19.348 z"
         transform="translate(-397.32401,-558.49801)"
         id="path4340-7" /></clipPath><clipPath
       clipPathUnits="userSpaceOnUse"
       id="clipPath4342-5"><path
         d="m 378.176,547.276 h 19.348 v 18.542 h -19.348 z"
         transform="translate(-397.32401,-556.79602)"
         id="path4342-9" /></clipPath><clipPath
       clipPathUnits="userSpaceOnUse"
       id="clipPath4344-2"><path
         d="m 378.176,547.276 h 19.348 v 18.542 h -19.348 z"
         transform="translate(-397.32401,-555.09601)"
         id="path4344-2" /></clipPath><clipPath
       clipPathUnits="userSpaceOnUse"
       id="clipPath4346-8"><path
         d="m 378.176,547.276 h 19.348 v 18.542 h -19.348 z"
         transform="translate(-397.32401,-553.39601)"
         id="path4346-9" /></clipPath><clipPath
       clipPathUnits="userSpaceOnUse"
       id="clipPath4348-7"><path
         d="m 378.176,547.276 h 19.348 v 18.542 h -19.348 z"
         transform="translate(-389.32098,-561.05002)"
         id="path4348-3" /></clipPath><clipPath
       clipPathUnits="userSpaceOnUse"
       id="clipPath4350-6"><path
         d="m 378.176,547.276 h 19.348 v 18.542 h -19.348 z"
         transform="translate(-390.65103,-553.97401)"
         id="path4350-1" /></clipPath><clipPath
       clipPathUnits="userSpaceOnUse"
       id="clipPath4496"><path
         d="m 161.771,461.299 h 11.371 v 11.37 h -11.371 z"
         transform="translate(-171.142,-466.98401)"
         id="path4496" /></clipPath><clipPath
       clipPathUnits="userSpaceOnUse"
       id="clipPath4502"><path
         d="m 302.944,451.568 h 19.614 v 10.801 h -19.614 z"
         transform="translate(-308.34401,-453.56801)"
         id="path4502" /></clipPath><clipPath
       clipPathUnits="userSpaceOnUse"
       id="clipPath4500"><path
         d="m 302.944,451.568 h 19.614 v 10.801 h -19.614 z"
         transform="translate(-311.74503,-456.96801)"
         id="path4500" /></clipPath><clipPath
       clipPathUnits="userSpaceOnUse"
       id="clipPath4498"><path
         d="m 302.944,451.568 h 19.614 v 10.801 h -19.614 z"
         transform="translate(-311.74503,-456.96801)"
         id="path4498" /></clipPath><clipPath
       clipPathUnits="userSpaceOnUse"
       id="clipPath4502-7"><path
         d="m 302.944,451.568 h 19.614 v 10.801 h -19.614 z"
         transform="translate(-308.34401,-453.56801)"
         id="path4502-4" /></clipPath><clipPath
       clipPathUnits="userSpaceOnUse"
       id="clipPath4500-4"><path
         d="m 302.944,451.568 h 19.614 v 10.801 h -19.614 z"
         transform="translate(-311.74503,-456.96801)"
         id="path4500-3" /></clipPath><clipPath
       clipPathUnits="userSpaceOnUse"
       id="clipPath4498-0"><path
         d="m 302.944,451.568 h 19.614 v 10.801 h -19.614 z"
         transform="translate(-311.74503,-456.96801)"
         id="path4498-7" /></clipPath><clipPath
       clipPathUnits="userSpaceOnUse"
       id="clipPath4502-8"><path
         d="m 302.944,451.568 h 19.614 v 10.801 h -19.614 z"
         transform="translate(-308.34401,-453.56801)"
         id="path4502-43" /></clipPath><clipPath
       clipPathUnits="userSpaceOnUse"
       id="clipPath4500-1"><path
         d="m 302.944,451.568 h 19.614 v 10.801 h -19.614 z"
         transform="translate(-311.74503,-456.96801)"
         id="path4500-4" /></clipPath><clipPath
       clipPathUnits="userSpaceOnUse"
       id="clipPath4498-9"><path
         d="m 302.944,451.568 h 19.614 v 10.801 h -19.614 z"
         transform="translate(-311.74503,-456.96801)"
         id="path4498-2" /></clipPath><clipPath
       clipPathUnits="userSpaceOnUse"
       id="clipPath4508"><path
         d="m 302.944,451.568 h 19.614 v 10.801 h -19.614 z"
         transform="translate(-318.59103,-458.89601)"
         id="path4508" /></clipPath><clipPath
       clipPathUnits="userSpaceOnUse"
       id="clipPath4506"><path
         d="m 302.944,451.568 h 19.614 v 10.801 h -19.614 z"
         transform="translate(-320.51703,-456.96801)"
         id="path4506" /></clipPath><clipPath
       clipPathUnits="userSpaceOnUse"
       id="clipPath4504"><path
         d="m 302.944,451.568 h 19.614 v 10.801 h -19.614 z"
         transform="translate(-322.55703,-456.96801)"
         id="path4504" /></clipPath><clipPath
       clipPathUnits="userSpaceOnUse"
       id="clipPath4364"><path
         d="m 375.244,456.034 h 41.586 v 26.778 h -41.586 z"
         transform="translate(-410.44699,-467.50601)"
         id="path4364" /></clipPath><clipPath
       clipPathUnits="userSpaceOnUse"
       id="clipPath4366"><path
         d="m 375.244,456.034 h 41.586 v 26.778 h -41.586 z"
         transform="translate(-2.5000001e-5)"
         id="path4366" /></clipPath><clipPath
       clipPathUnits="userSpaceOnUse"
       id="clipPath4368"><path
         d="m 375.244,456.034 h 41.586 v 26.778 h -41.586 z"
         transform="translate(-404.83901,-468.77501)"
         id="path4368" /></clipPath><clipPath
       clipPathUnits="userSpaceOnUse"
       id="clipPath4370"><path
         d="m 375.244,456.034 h 41.586 v 26.778 h -41.586 z"
         transform="translate(-414.43001,-476.18701)"
         id="path4370" /></clipPath><radialGradient
       fx="0"
       fy="0"
       cx="0"
       cy="0"
       r="1"
       gradientUnits="userSpaceOnUse"
       gradientTransform="matrix(0.79988124,0,0,0.79988124,99.064506,164.78954)"
       spreadMethod="pad"
       id="radialGradient4372"><stop
         style="stop-opacity:1;stop-color:#fff200"
         offset="0"
         id="stop4370" /><stop
         style="stop-opacity:1;stop-color:#fff200"
         offset="0.79908705"
         id="stop4371" /><stop
         style="stop-opacity:1;stop-color:#b0a600"
         offset="1"
         id="stop4372" /></radialGradient><clipPath
       clipPathUnits="userSpaceOnUse"
       id="clipPath4374"><path
         d="m 375.244,456.034 h 41.586 v 26.778 h -41.586 z"
         transform="translate(-407.05601,-479.36101)"
         id="path4374" /></clipPath><clipPath
       clipPathUnits="userSpaceOnUse"
       id="clipPath4376"><path
         d="m 375.244,456.034 h 41.586 v 26.778 h -41.586 z"
         transform="translate(-395.18598,-467.50601)"
         id="path4376" /></clipPath><clipPath
       clipPathUnits="userSpaceOnUse"
       id="clipPath4378"><path
         d="m 375.244,456.034 h 41.586 v 26.778 h -41.586 z"
         transform="translate(-386.78298,-460.70301)"
         id="path4378" /></clipPath><clipPath
       clipPathUnits="userSpaceOnUse"
       id="clipPath4380"><path
         d="m 375.244,456.034 h 41.586 v 26.778 h -41.586 z"
         transform="translate(-377.08203,-475.04601)"
         id="path4380" /></clipPath><clipPath
       clipPathUnits="userSpaceOnUse"
       id="clipPath4382"><path
         d="m 375.244,456.034 h 41.586 v 26.778 h -41.586 z"
         transform="translate(-385.14701,-475.04601)"
         id="path4382" /></clipPath><clipPath
       clipPathUnits="userSpaceOnUse"
       id="clipPath4364-5"><path
         d="m 375.244,456.034 h 41.586 v 26.778 h -41.586 z"
         transform="translate(-410.44699,-467.50601)"
         id="path4364-0" /></clipPath><clipPath
       clipPathUnits="userSpaceOnUse"
       id="clipPath4366-4"><path
         d="m 375.244,456.034 h 41.586 v 26.778 h -41.586 z"
         transform="translate(-2.5000001e-5)"
         id="path4366-8" /></clipPath><clipPath
       clipPathUnits="userSpaceOnUse"
       id="clipPath4368-7"><path
         d="m 375.244,456.034 h 41.586 v 26.778 h -41.586 z"
         transform="translate(-404.83901,-468.77501)"
         id="path4368-1" /></clipPath><clipPath
       clipPathUnits="userSpaceOnUse"
       id="clipPath4370-7"><path
         d="m 375.244,456.034 h 41.586 v 26.778 h -41.586 z"
         transform="translate(-414.43001,-476.18701)"
         id="path4370-2" /></clipPath><radialGradient
       fx="0"
       fy="0"
       cx="0"
       cy="0"
       r="1"
       gradientUnits="userSpaceOnUse"
       gradientTransform="matrix(0.79988124,0,0,0.79988124,99.858206,161.61453)"
       spreadMethod="pad"
       id="radialGradient4372-7"><stop
         style="stop-opacity:1;stop-color:#fff200"
         offset="0"
         id="stop4370-2" /><stop
         style="stop-opacity:1;stop-color:#fff200"
         offset="0.79908705"
         id="stop4371-2" /><stop
         style="stop-opacity:1;stop-color:#b0a600"
         offset="1"
         id="stop4372-6" /></radialGradient><clipPath
       clipPathUnits="userSpaceOnUse"
       id="clipPath4374-1"><path
         d="m 375.244,456.034 h 41.586 v 26.778 h -41.586 z"
         transform="translate(-407.05601,-479.36101)"
         id="path4374-0" /></clipPath><clipPath
       clipPathUnits="userSpaceOnUse"
       id="clipPath4376-6"><path
         d="m 375.244,456.034 h 41.586 v 26.778 h -41.586 z"
         transform="translate(-395.18598,-467.50601)"
         id="path4376-1" /></clipPath><clipPath
       clipPathUnits="userSpaceOnUse"
       id="clipPath4378-5"><path
         d="m 375.244,456.034 h 41.586 v 26.778 h -41.586 z"
         transform="translate(-386.78298,-460.70301)"
         id="path4378-9" /></clipPath><clipPath
       clipPathUnits="userSpaceOnUse"
       id="clipPath4380-4"><path
         d="m 375.244,456.034 h 41.586 v 26.778 h -41.586 z"
         transform="translate(-377.08203,-475.04601)"
         id="path4380-9" /></clipPath><clipPath
       clipPathUnits="userSpaceOnUse"
       id="clipPath4382-0"><path
         d="m 375.244,456.034 h 41.586 v 26.778 h -41.586 z"
         transform="translate(-385.14701,-475.04601)"
         id="path4382-9" /></clipPath><clipPath
       clipPathUnits="userSpaceOnUse"
       id="clipPath4510"><path
         d="m 476.075,411.308 h 19.614 v 10.801 h -19.614 z"
         transform="translate(-484.87601,-416.70801)"
         id="path4510" /></clipPath><clipPath
       clipPathUnits="userSpaceOnUse"
       id="clipPath4512"><path
         d="m 476.075,411.308 h 19.614 v 10.801 h -19.614 z"
         transform="translate(-484.87601,-416.70801)"
         id="path4512" /></clipPath><clipPath
       clipPathUnits="userSpaceOnUse"
       id="clipPath4514"><path
         d="m 476.075,411.308 h 19.614 v 10.801 h -19.614 z"
         transform="translate(-481.47604,-413.30801)"
         id="path4514" /></clipPath><clipPath
       clipPathUnits="userSpaceOnUse"
       id="clipPath4516"><path
         d="m 476.075,411.308 h 19.614 v 10.801 h -19.614 z"
         transform="translate(-495.68801,-416.70901)"
         id="path4516" /></clipPath><clipPath
       clipPathUnits="userSpaceOnUse"
       id="clipPath4518"><path
         d="m 476.075,411.308 h 19.614 v 10.801 h -19.614 z"
         transform="translate(-493.64899,-416.70901)"
         id="path4518" /></clipPath><clipPath
       clipPathUnits="userSpaceOnUse"
       id="clipPath4520"><path
         d="m 476.075,411.308 h 19.614 v 10.801 h -19.614 z"
         transform="translate(-491.72299,-418.63601)"
         id="path4520" /></clipPath><clipPath
       clipPathUnits="userSpaceOnUse"
       id="clipPath4510-6"><path
         d="m 476.075,411.308 h 19.614 v 10.801 h -19.614 z"
         transform="translate(-484.87601,-416.70801)"
         id="path4510-7" /></clipPath><clipPath
       clipPathUnits="userSpaceOnUse"
       id="clipPath4512-3"><path
         d="m 476.075,411.308 h 19.614 v 10.801 h -19.614 z"
         transform="translate(-484.87601,-416.70801)"
         id="path4512-6" /></clipPath><clipPath
       clipPathUnits="userSpaceOnUse"
       id="clipPath4514-5"><path
         d="m 476.075,411.308 h 19.614 v 10.801 h -19.614 z"
         transform="translate(-481.47604,-413.30801)"
         id="path4514-6" /></clipPath><clipPath
       clipPathUnits="userSpaceOnUse"
       id="clipPath4516-8"><path
         d="m 476.075,411.308 h 19.614 v 10.801 h -19.614 z"
         transform="translate(-495.68801,-416.70901)"
         id="path4516-1" /></clipPath><clipPath
       clipPathUnits="userSpaceOnUse"
       id="clipPath4518-2"><path
         d="m 476.075,411.308 h 19.614 v 10.801 h -19.614 z"
         transform="translate(-493.64899,-416.70901)"
         id="path4518-9" /></clipPath><clipPath
       clipPathUnits="userSpaceOnUse"
       id="clipPath4520-3"><path
         d="m 476.075,411.308 h 19.614 v 10.801 h -19.614 z"
         transform="translate(-491.72299,-418.63601)"
         id="path4520-9" /></clipPath><clipPath
       clipPathUnits="userSpaceOnUse"
       id="clipPath5812"><path
         d="m 273.283,303.047 h 12.504 v 12.504 h -12.504 z"
         transform="translate(-283.78698,-309.29801)"
         id="path5812" /></clipPath><clipPath
       clipPathUnits="userSpaceOnUse"
       id="clipPath4524"><path
         d="m 92.984,303.031 h 11.37 v 11.371 h -11.37 z"
         transform="translate(-102.35403,-308.71701)"
         id="path4524" /></clipPath><clipPath
       clipPathUnits="userSpaceOnUse"
       id="clipPath4384"><path
         d="m 56.072,311.551 h 22.94 v 22.677 h -22.94 z"
         transform="translate(-76.612377,-322.89101)"
         id="path4384" /></clipPath><clipPath
       clipPathUnits="userSpaceOnUse"
       id="clipPath4386"><path
         d="m 56.072,311.551 h 22.94 v 22.677 h -22.94 z"
         transform="translate(-64.888527,-321.16401)"
         id="path4386" /></clipPath><clipPath
       clipPathUnits="userSpaceOnUse"
       id="clipPath4388"><path
         d="m 56.072,311.551 h 22.94 v 22.677 h -22.94 z"
         transform="translate(-68.226777,-318.91801)"
         id="path4388" /></clipPath><clipPath
       clipPathUnits="userSpaceOnUse"
       id="clipPath4358"><path
         d="m 215.042,459.341 h 22.941 v 22.942 h -22.941 z"
         transform="translate(-235.58201,-470.81301)"
         id="path4358" /></clipPath><clipPath
       clipPathUnits="userSpaceOnUse"
       id="clipPath4360"><path
         d="m 215.042,459.341 h 22.941 v 22.942 h -22.941 z"
         transform="translate(-2.5000001e-5)"
         id="path4360" /></clipPath><clipPath
       clipPathUnits="userSpaceOnUse"
       id="clipPath4362"><path
         d="m 215.042,459.341 h 22.941 v 22.942 h -22.941 z"
         transform="translate(-225.97998,-466.84101)"
         id="path4362" /></clipPath><clipPath
       clipPathUnits="userSpaceOnUse"
       id="clipPath4352"><path
         d="m 59.614,459.341 h 22.94 v 22.942 h -22.94 z"
         transform="translate(-80.154327,-470.81301)"
         id="path4352" /></clipPath><clipPath
       clipPathUnits="userSpaceOnUse"
       id="clipPath4354"><path
         d="m 59.614,459.341 h 22.94 v 22.942 h -22.94 z"
         transform="translate(-2.5000001e-5)"
         id="path4354" /></clipPath><clipPath
       clipPathUnits="userSpaceOnUse"
       id="clipPath4356"><path
         d="m 59.614,459.341 h 22.94 v 22.942 h -22.94 z"
         transform="translate(-70.011402,-466.84001)"
         id="path4356" /></clipPath><clipPath
       clipPathUnits="userSpaceOnUse"
       id="clipPath4402"><path
         d="m 56.072,239.268 h 22.94 v 22.677 h -22.94 z"
         transform="translate(-76.612302,-250.60701)"
         id="path4402" /></clipPath><clipPath
       clipPathUnits="userSpaceOnUse"
       id="clipPath4404"><path
         d="m 56.072,239.268 h 22.94 v 22.677 h -22.94 z"
         transform="translate(-2.5000001e-5)"
         id="path4404" /></clipPath><clipPath
       clipPathUnits="userSpaceOnUse"
       id="clipPath4406"><path
         d="m 56.072,239.268 h 22.94 v 22.677 h -22.94 z"
         transform="translate(-67.010427,-246.63501)"
         id="path4406" /></clipPath><clipPath
       clipPathUnits="userSpaceOnUse"
       id="clipPath4408"><path
         d="m 216.459,311.561 h 22.94 v 22.942 h -22.94 z"
         transform="translate(-236.99898,-323.03301)"
         id="path4408" /></clipPath><clipPath
       clipPathUnits="userSpaceOnUse"
       id="clipPath4410"><path
         d="m 216.459,311.561 h 22.94 v 22.942 h -22.94 z"
         transform="translate(-225.27603,-321.30501)"
         id="path4410" /></clipPath><clipPath
       clipPathUnits="userSpaceOnUse"
       id="clipPath4412"><path
         d="m 216.459,311.561 h 22.94 v 22.942 h -22.94 z"
         transform="translate(-232.10703,-320.11001)"
         id="path4412" /></clipPath><clipPath
       clipPathUnits="userSpaceOnUse"
       id="clipPath4426"><path
         d="m 375.483,311.56 h 39.267 v 22.943 h -39.267 z"
         transform="translate(-412.35004,-323.03201)"
         id="path4426" /></clipPath><clipPath
       clipPathUnits="userSpaceOnUse"
       id="clipPath4428"><path
         d="m 375.483,311.56 h 39.267 v 22.943 h -39.267 z"
         transform="translate(-400.62604,-321.30601)"
         id="path4428" /></clipPath><clipPath
       clipPathUnits="userSpaceOnUse"
       id="clipPath4430"><path
         d="m 375.483,311.56 h 39.267 v 22.943 h -39.267 z"
         transform="translate(-403.96399,-319.06001)"
         id="path4430" /></clipPath><clipPath
       clipPathUnits="userSpaceOnUse"
       id="clipPath4432"><path
         d="m 375.483,311.56 h 39.267 v 22.943 h -39.267 z"
         transform="translate(-396.02298,-323.03201)"
         id="path4432" /></clipPath><clipPath
       clipPathUnits="userSpaceOnUse"
       id="clipPath4434"><path
         d="m 375.483,311.56 h 39.267 v 22.943 h -39.267 z"
         transform="translate(-2.5000001e-5)"
         id="path4434" /></clipPath><clipPath
       clipPathUnits="userSpaceOnUse"
       id="clipPath4436"><path
         d="m 375.483,311.56 h 39.267 v 22.943 h -39.267 z"
         transform="translate(-386.42103,-319.06001)"
         id="path4436" /></clipPath><clipPath
       clipPathUnits="userSpaceOnUse"
       id="clipPath4426-7"><path
         d="m 375.483,311.56 h 39.267 v 22.943 h -39.267 z"
         transform="translate(-412.35004,-323.03201)"
         id="path4426-5" /></clipPath><clipPath
       clipPathUnits="userSpaceOnUse"
       id="clipPath4428-9"><path
         d="m 375.483,311.56 h 39.267 v 22.943 h -39.267 z"
         transform="translate(-400.62604,-321.30601)"
         id="path4428-6" /></clipPath><clipPath
       clipPathUnits="userSpaceOnUse"
       id="clipPath4430-2"><path
         d="m 375.483,311.56 h 39.267 v 22.943 h -39.267 z"
         transform="translate(-403.96399,-319.06001)"
         id="path4430-1" /></clipPath><clipPath
       clipPathUnits="userSpaceOnUse"
       id="clipPath4432-7"><path
         d="m 375.483,311.56 h 39.267 v 22.943 h -39.267 z"
         transform="translate(-396.02298,-323.03201)"
         id="path4432-8" /></clipPath><clipPath
       clipPathUnits="userSpaceOnUse"
       id="clipPath4434-5"><path
         d="m 375.483,311.56 h 39.267 v 22.943 h -39.267 z"
         transform="translate(-2.5000001e-5)"
         id="path4434-7" /></clipPath><clipPath
       clipPathUnits="userSpaceOnUse"
       id="clipPath4436-4"><path
         d="m 375.483,311.56 h 39.267 v 22.943 h -39.267 z"
         transform="translate(-386.42103,-319.06001)"
         id="path4436-1" /></clipPath><clipPath
       clipPathUnits="userSpaceOnUse"
       id="clipPath4414"><path
         d="m 375.483,284.206 h 39.267 v 22.942 h -39.267 z"
         transform="translate(-412.35004,-295.678)"
         id="path4414" /></clipPath><clipPath
       clipPathUnits="userSpaceOnUse"
       id="clipPath4416"><path
         d="m 375.483,284.206 h 39.267 v 22.942 h -39.267 z"
         transform="translate(-400.62604,-293.95101)"
         id="path4416" /></clipPath><clipPath
       clipPathUnits="userSpaceOnUse"
       id="clipPath4418"><path
         d="m 375.483,284.206 h 39.267 v 22.942 h -39.267 z"
         transform="translate(-403.42301,-291.70501)"
         id="path4418" /></clipPath><clipPath
       clipPathUnits="userSpaceOnUse"
       id="clipPath4420"><path
         d="m 375.483,284.206 h 39.267 v 22.942 h -39.267 z"
         transform="translate(-396.02298,-295.678)"
         id="path4420" /></clipPath><clipPath
       clipPathUnits="userSpaceOnUse"
       id="clipPath4422"><path
         d="m 375.483,284.206 h 39.267 v 22.942 h -39.267 z"
         transform="translate(-2.5000001e-5)"
         id="path4422" /></clipPath><clipPath
       clipPathUnits="userSpaceOnUse"
       id="clipPath4424"><path
         d="m 375.483,284.206 h 39.267 v 22.942 h -39.267 z"
         transform="translate(-385.87998,-291.70501)"
         id="path4424" /></clipPath><clipPath
       clipPathUnits="userSpaceOnUse"
       id="clipPath7643"><path
         d="m 71.166,464.989 h 45.154 v 18.543 H 71.166 Z"
         transform="translate(-82.704777,-474.26001)"
         id="path7643" /></clipPath><clipPath
       clipPathUnits="userSpaceOnUse"
       id="clipPath7645"><path
         d="m 71.166,464.989 h 45.154 v 18.543 H 71.166 Z"
         transform="translate(-77.035302,-483.33101)"
         id="path7645" /></clipPath><clipPath
       clipPathUnits="userSpaceOnUse"
       id="clipPath7647"><path
         d="m 71.166,464.989 h 45.154 v 18.543 H 71.166 Z"
         transform="translate(-71.365677,-474.26001)"
         id="path7647" /></clipPath><clipPath
       clipPathUnits="userSpaceOnUse"
       id="clipPath7649"><path
         d="m 71.166,464.989 h 45.154 v 18.543 H 71.166 Z"
         transform="translate(-77.035302,-474.26001)"
         id="path7649" /></clipPath><clipPath
       clipPathUnits="userSpaceOnUse"
       id="clipPath7651"><path
         d="m 71.166,464.989 h 45.154 v 18.543 H 71.166 Z"
         transform="translate(-82.704777,-467.45701)"
         id="path7651" /></clipPath><clipPath
       clipPathUnits="userSpaceOnUse"
       id="clipPath4438"><path
         d="M 59.246,182.798 H 96.849 V 205.74 H 59.246 Z"
         transform="translate(-94.449402,-194.27001)"
         id="path4438" /></clipPath><clipPath
       clipPathUnits="userSpaceOnUse"
       id="clipPath4440"><path
         d="M 59.246,182.798 H 96.849 V 205.74 H 59.246 Z"
         transform="translate(-82.725177,-192.543)"
         id="path4440" /></clipPath><clipPath
       clipPathUnits="userSpaceOnUse"
       id="clipPath4442"><path
         d="M 59.246,182.798 H 96.849 V 205.74 H 59.246 Z"
         transform="translate(-87.706377,-190.23501)"
         id="path4442" /></clipPath><clipPath
       clipPathUnits="userSpaceOnUse"
       id="clipPath4444"><path
         d="M 59.246,182.798 H 96.849 V 205.74 H 59.246 Z"
         transform="translate(-79.187727,-194.30301)"
         id="path4444" /></clipPath><clipPath
       clipPathUnits="userSpaceOnUse"
       id="clipPath4446"><path
         d="M 59.246,182.798 H 96.849 V 205.74 H 59.246 Z"
         transform="translate(-70.785327,-187.501)"
         id="path4446" /></clipPath><clipPath
       clipPathUnits="userSpaceOnUse"
       id="clipPath4448"><path
         d="M 59.246,182.798 H 96.849 V 205.74 H 59.246 Z"
         transform="translate(-61.083777,-201.84301)"
         id="path4448" /></clipPath><clipPath
       clipPathUnits="userSpaceOnUse"
       id="clipPath4450"><path
         d="M 59.246,182.798 H 96.849 V 205.74 H 59.246 Z"
         transform="translate(-69.149427,-201.84301)"
         id="path4450" /></clipPath><clipPath
       clipPathUnits="userSpaceOnUse"
       id="clipPath4452"><path
         d="m 215.118,177.488 h 50.095 v 26.806 h -50.095 z"
         transform="translate(-258.12701,-188.961)"
         id="path4452" /></clipPath><clipPath
       clipPathUnits="userSpaceOnUse"
       id="clipPath4454"><path
         d="m 215.118,177.488 h 50.095 v 26.806 h -50.095 z"
         transform="translate(-244.21601,-184.978)"
         id="path4454" /></clipPath><clipPath
       clipPathUnits="userSpaceOnUse"
       id="clipPath4456"><path
         d="m 215.118,177.488 h 50.095 v 26.806 h -50.095 z"
         transform="translate(-2.5000001e-5)"
         id="path4456" /></clipPath><clipPath
       clipPathUnits="userSpaceOnUse"
       id="clipPath4458"><path
         d="m 215.118,177.488 h 50.095 v 26.806 h -50.095 z"
         transform="translate(-251.69403,-185.007)"
         id="path4458" /></clipPath><clipPath
       clipPathUnits="userSpaceOnUse"
       id="clipPath4460"><path
         d="m 215.118,177.488 h 50.095 v 26.806 h -50.095 z"
         transform="translate(-242.79003,-188.961)"
         id="path4460" /></clipPath><clipPath
       clipPathUnits="userSpaceOnUse"
       id="clipPath4462"><path
         d="m 215.118,177.488 h 50.095 v 26.806 h -50.095 z"
         transform="translate(-235.66001,-188.96001)"
         id="path4462" /></clipPath><clipPath
       clipPathUnits="userSpaceOnUse"
       id="clipPath4464"><path
         d="m 215.118,177.488 h 50.095 v 26.806 h -50.095 z"
         transform="translate(-226.72398,-182.928)"
         id="path4464" /></clipPath><clipPath
       clipPathUnits="userSpaceOnUse"
       id="clipPath4466"><path
         d="m 215.118,177.488 h 50.095 v 26.806 h -50.095 z"
         transform="translate(-262.81301,-197.52)"
         id="path4466" /></clipPath><radialGradient
       fx="0"
       fy="0"
       cx="0"
       cy="0"
       r="1"
       gradientUnits="userSpaceOnUse"
       gradientTransform="matrix(0.80002235,0,0,0.80002235,107.78045,161.6145)"
       spreadMethod="pad"
       id="radialGradient4468"><stop
         style="stop-opacity:1;stop-color:#fff200"
         offset="0"
         id="stop4466" /><stop
         style="stop-opacity:1;stop-color:#fff200"
         offset="0.79908705"
         id="stop4467" /><stop
         style="stop-opacity:1;stop-color:#b0a600"
         offset="1"
         id="stop4468" /></radialGradient><clipPath
       clipPathUnits="userSpaceOnUse"
       id="clipPath4470"><path
         d="m 215.118,177.488 h 50.095 v 26.806 h -50.095 z"
         transform="translate(-255.43803,-200.69401)"
         id="path4470" /></clipPath><clipPath
       clipPathUnits="userSpaceOnUse"
       id="clipPath4496-8"><path
         d="m 161.771,461.299 h 11.371 v 11.37 h -11.371 z"
         transform="translate(-171.142,-466.98401)"
         id="path4496-8" /></clipPath><clipPath
       clipPathUnits="userSpaceOnUse"
       id="clipPath4472"><path
         d="m 377.892,182.68 h 23.058 v 22.942 h -23.058 z"
         transform="translate(-396.63101,-194.151)"
         id="path4472" /></clipPath><clipPath
       clipPathUnits="userSpaceOnUse"
       id="clipPath4474"><path
         d="m 377.892,182.68 h 23.058 v 22.942 h -23.058 z"
         transform="translate(-387.56201,-203.22201)"
         id="path4474" /></clipPath><clipPath
       clipPathUnits="userSpaceOnUse"
       id="clipPath4476"><path
         d="m 377.892,182.68 h 23.058 v 22.942 h -23.058 z"
         transform="translate(-399.55001,-189.05001)"
         id="path4476" /></clipPath><clipPath
       clipPathUnits="userSpaceOnUse"
       id="clipPath4478"><path
         d="m 377.892,182.68 h 23.058 v 22.942 h -23.058 z"
         transform="translate(-400.75001,-196.10301)"
         id="path4478" /></clipPath><clipPath
       clipPathUnits="userSpaceOnUse"
       id="clipPath4480"><path
         d="m 377.892,182.68 h 23.058 v 22.942 h -23.058 z"
         transform="translate(-400.75001,-194.401)"
         id="path4480" /></clipPath><clipPath
       clipPathUnits="userSpaceOnUse"
       id="clipPath4482"><path
         d="m 377.892,182.68 h 23.058 v 22.942 h -23.058 z"
         transform="translate(-400.75001,-192.70101)"
         id="path4482" /></clipPath><clipPath
       clipPathUnits="userSpaceOnUse"
       id="clipPath4484"><path
         d="m 377.892,182.68 h 23.058 v 22.942 h -23.058 z"
         transform="translate(-400.75001,-191.00001)"
         id="path4484" /></clipPath><clipPath
       clipPathUnits="userSpaceOnUse"
       id="clipPath4486"><path
         d="m 377.892,182.68 h 23.058 v 22.942 h -23.058 z"
         transform="translate(-392.74698,-198.654)"
         id="path4486" /></clipPath><clipPath
       clipPathUnits="userSpaceOnUse"
       id="clipPath4488"><path
         d="m 377.892,182.68 h 23.058 v 22.942 h -23.058 z"
         transform="translate(-394.07598,-191.57901)"
         id="path4488" /></clipPath></defs><g
     inkscape:label="Layer 1"
     inkscape:groupmode="layer"
     id="layer1"
     transform="translate(-100.80526,-161.18268)"><path
       id="path4471"
       d="m 0,0 c 0,-5.009 -4.061,-9.071 -9.07,-9.071 -5.008,0 -9.069,4.062 -9.069,9.071 0,5.01 4.061,9.071 9.069,9.071 C -4.061,9.071 0,5.01 0,0"
       style="fill:#ffffff;fill-opacity:1;fill-rule:nonzero;stroke:#231f20;stroke-width:1.2;stroke-linecap:round;stroke-linejoin:round;stroke-miterlimit:4;stroke-dasharray:none;stroke-opacity:1"
       transform="matrix(0.35277776,0,0,-0.35277776,107.41596,164.5944)"
       clip-path="url(#clipPath4472)" /><path
       id="path4473"
       d="M 0,0 C 5.009,0 9.07,-4.061 9.07,-9.071 9.07,-14.08 5.009,-18.142 0,-18.142"
       style="fill:none;stroke:#ed1c24;stroke-width:1.2;stroke-linecap:butt;stroke-linejoin:miter;stroke-miterlimit:4;stroke-dasharray:none;stroke-opacity:1"
       transform="matrix(0.35277776,0,0,-0.35277776,104.21661,161.39435)"
       clip-path="url(#clipPath4474)" /><path
       id="path4475"
       d="m 0,0 c 0,-0.939 -0.761,-1.702 -1.702,-1.702 h -5.101 c -0.939,0 -1.7,0.763 -1.7,1.702 v 10.205 c 0,0.939 0.761,1.7 1.7,1.7 h 5.101 c 0.941,0 1.702,-0.761 1.702,-1.7 z"
       style="fill:#ffffff;fill-opacity:1;fill-rule:nonzero;stroke:#231f20;stroke-width:0.4;stroke-linecap:round;stroke-linejoin:round;stroke-miterlimit:4;stroke-dasharray:none;stroke-opacity:1"
       transform="matrix(0.35277776,0,0,-0.35277776,108.44571,166.39392)"
       clip-path="url(#clipPath4476)" /><path
       id="path4477"
       d="m 0,0 c 0,-0.47 -0.381,-0.85 -0.852,-0.85 h -1.1 c -0.47,0 -0.851,0.38 -0.851,0.85 0,0.469 0.381,0.85 0.851,0.85 h 1.1 C -0.381,0.85 0,0.469 0,0"
       style="fill:#e9e9e9;fill-opacity:1;fill-rule:nonzero;stroke:#231f20;stroke-width:0.4;stroke-linecap:round;stroke-linejoin:round;stroke-miterlimit:4;stroke-dasharray:none;stroke-opacity:1"
       transform="matrix(0.35277776,0,0,-0.35277776,108.86905,163.90578)"
       clip-path="url(#clipPath4478)" /><path
       id="path4479"
       d="m 0,0 c 0,-0.469 -0.381,-0.85 -0.852,-0.85 h -1.1 c -0.47,0 -0.851,0.381 -0.851,0.85 0,0.47 0.381,0.852 0.851,0.852 h 1.1 C -0.381,0.852 0,0.47 0,0"
       style="fill:#e9e9e9;fill-opacity:1;fill-rule:nonzero;stroke:#231f20;stroke-width:0.4;stroke-linecap:round;stroke-linejoin:round;stroke-miterlimit:4;stroke-dasharray:none;stroke-opacity:1"
       transform="matrix(0.35277776,0,0,-0.35277776,108.86905,164.50621)"
       clip-path="url(#clipPath4480)" /><path
       id="path4481"
       d="m 0,0 c 0,-0.47 -0.381,-0.85 -0.852,-0.85 h -1.1 c -0.47,0 -0.851,0.38 -0.851,0.85 0,0.47 0.381,0.85 0.851,0.85 h 1.1 C -0.381,0.85 0,0.47 0,0"
       style="fill:#e9e9e9;fill-opacity:1;fill-rule:nonzero;stroke:#231f20;stroke-width:0.4;stroke-linecap:round;stroke-linejoin:round;stroke-miterlimit:4;stroke-dasharray:none;stroke-opacity:1"
       transform="matrix(0.35277776,0,0,-0.35277776,108.86905,165.10593)"
       clip-path="url(#clipPath4482)" /><path
       id="path4483"
       d="m 0,0 c 0,-0.47 -0.381,-0.85 -0.852,-0.85 h -1.1 c -0.47,0 -0.851,0.38 -0.851,0.85 0,0.47 0.381,0.851 0.851,0.851 h 1.1 C -0.381,0.851 0,0.47 0,0"
       style="fill:#e9e9e9;fill-opacity:1;fill-rule:nonzero;stroke:#231f20;stroke-width:0.4;stroke-linecap:round;stroke-linejoin:round;stroke-miterlimit:4;stroke-dasharray:none;stroke-opacity:1"
       transform="matrix(0.35277776,0,0,-0.35277776,108.86905,165.706)"
       clip-path="url(#clipPath4484)" /><path
       id="path4485"
       d="m 0,0 h -1.7 c -0.939,0 -1.7,-0.762 -1.7,-1.702 v -5.603 c 0,-0.939 0.761,-1.7 1.7,-1.7 v 7.303 H 0 c 0.47,0 0.852,0.382 0.852,0.851 C 0.852,-0.381 0.47,0 0,0"
       style="fill:#e9e9e9;fill-opacity:1;fill-rule:nonzero;stroke:#231f20;stroke-width:0.4;stroke-linecap:round;stroke-linejoin:round;stroke-miterlimit:4;stroke-dasharray:none;stroke-opacity:1"
       transform="matrix(0.35277776,0,0,-0.35277776,106.04576,163.00584)"
       clip-path="url(#clipPath4486)" /><path
       id="path4487"
       d="M 0,0 V 0.704 H 0.769 V 3.661 L -0.159,2.855 V 3.75 L 0.769,4.557 H 1.6 V 0.704 H 2.311 V 0 Z"
       style="fill:#231f20;fill-opacity:1;fill-rule:nonzero;stroke:none"
       transform="matrix(0.35277776,0,0,-0.35277776,106.5146,165.50174)"
       clip-path="url(#clipPath4488)" /></g></svg>
