<?xml version="1.0" encoding="UTF-8" standalone="no"?>
<!-- Created with Inkscape (http://www.inkscape.org/) -->

<svg
   width="8.2405357mm"
   height="4.1412559mm"
   viewBox="0 0 8.2405357 4.1412559"
   version="1.1"
   id="svg1"
   inkscape:version="1.3 (0e150ed6c4, 2023-07-21)"
   sodipodi:docname="draw_1_extra.svg"
   xmlns:inkscape="http://www.inkscape.org/namespaces/inkscape"
   xmlns:sodipodi="http://sodipodi.sourceforge.net/DTD/sodipodi-0.dtd"
   xmlns="http://www.w3.org/2000/svg"
   xmlns:svg="http://www.w3.org/2000/svg">
  <sodipodi:namedview
     id="namedview1"
     pagecolor="#ffffff"
     bordercolor="#000000"
     borderopacity="0.25"
     inkscape:showpageshadow="2"
     inkscape:pageopacity="0.0"
     inkscape:pagecheckerboard="true"
     inkscape:deskcolor="#d1d1d1"
     inkscape:document-units="mm"
     inkscape:clip-to-page="false"
     inkscape:export-bgcolor="#ffffff00"
     inkscape:zoom="30.440804"
     inkscape:cx="8.0812583"
     inkscape:cy="7.3913948"
     inkscape:window-width="1920"
     inkscape:window-height="1013"
     inkscape:window-x="0"
     inkscape:window-y="30"
     inkscape:window-maximized="1"
     inkscape:current-layer="layer1" />
  <defs
     id="defs1">
    <clipPath
       clipPathUnits="userSpaceOnUse"
       id="clipPath5754">
      <path
         d="m 58.643,666.75 h 23.359 v 11.739 H 58.643 Z"
         transform="translate(-70.322802,-666.94901)"
         id="path5754" />
    </clipPath>
    <clipPath
       clipPathUnits="userSpaceOnUse"
       id="clipPath5756">
      <path
         d="m 58.643,666.75 h 23.359 v 11.739 H 58.643 Z"
         transform="translate(-75.992427,-672.62002)"
         id="path5756" />
    </clipPath>
    <clipPath
       clipPathUnits="userSpaceOnUse"
       id="clipPath5758">
      <path
         d="m 58.643,666.75 h 23.359 v 11.739 H 58.643 Z"
         transform="translate(-68.978727,-671.99102)"
         id="path5758" />
    </clipPath>
    <clipPath
       clipPathUnits="userSpaceOnUse"
       id="clipPath5760">
      <path
         d="m 58.643,666.75 h 23.359 v 11.739 H 58.643 Z"
         transform="translate(-71.032977,-670.60802)"
         id="path5760" />
    </clipPath>
  </defs>
  <g
     inkscape:label="Layer 1"
     inkscape:groupmode="layer"
     id="layer1"
     transform="translate(-81.756201,-74.347917)">
    <path
       id="path5753"
       d="M 0,0 C 4.717,0 8.886,2.237 11.48,5.67 8.886,9.102 4.717,11.339 0,11.339 -4.717,11.339 -8.886,9.102 -11.48,5.67 -8.886,2.237 -4.717,0 0,0"
       style="display:inline;fill:#918f90;fill-opacity:1;fill-rule:nonzero;stroke:#231f20;stroke-width:0.4;stroke-linecap:round;stroke-linejoin:round;stroke-miterlimit:4;stroke-dasharray:none;stroke-opacity:1"
       transform="matrix(0.35277776,0,0,-0.35277776,85.876575,78.418967)"
       clip-path="url(#clipPath5754)" />
    <path
       id="path5755"
       d="m 0,0 c 0,-3.131 -2.538,-5.67 -5.67,-5.67 -3.131,0 -5.668,2.539 -5.668,5.67 0,3.13 2.537,5.669 5.668,5.669 C -2.538,5.669 0,3.13 0,0"
       style="display:inline;fill:#ffffff;fill-opacity:1;fill-rule:nonzero;stroke:#231f20;stroke-width:0.4;stroke-linecap:round;stroke-linejoin:round;stroke-miterlimit:4;stroke-dasharray:none;stroke-opacity:1"
       transform="matrix(0.35277776,0,0,-0.35277776,87.876693,76.418363)"
       clip-path="url(#clipPath5756)"
       inkscape:label="path5755" />
    <path
       id="path5757"
       d="M 0,0 V -1.024 H -0.781 V 0 h -1.03 v 0.781 h 1.03 V 1.805 H 0 V 0.781 H 1.024 V 0 Z"
       style="display:inline;fill:#231f20;fill-opacity:1;fill-rule:nonzero;stroke:none"
       transform="matrix(0.35277776,0,0,-0.35277776,85.402416,76.640261)"
       clip-path="url(#clipPath5758)" />
    <path
       id="path5759"
       d="M 0,0 V 0.705 H 0.768 V 3.661 L -0.16,2.855 V 3.751 L 0.768,4.557 H 1.6 V 0.705 H 2.31 V 0 Z"
       style="display:inline;fill:#231f20;fill-opacity:1;fill-rule:nonzero;stroke:none"
       transform="matrix(0.35277776,0,0,-0.35277776,86.127109,77.128153)"
       clip-path="url(#clipPath5760)" />
  </g>
</svg>
