<?xml version="1.0" encoding="UTF-8" standalone="no"?>
<!-- Created with Inkscape (http://www.inkscape.org/) -->

<svg
   width="6.8251863mm"
   height="6.5411973mm"
   viewBox="0 0 6.8251863 6.5411973"
   version="1.1"
   id="svg1"
   inkscape:version="1.3 (0e150ed6c4, 2023-07-21)"
   sodipodi:docname="draw-1-after-develop.svg"
   xml:space="preserve"
   xmlns:inkscape="http://www.inkscape.org/namespaces/inkscape"
   xmlns:sodipodi="http://sodipodi.sourceforge.net/DTD/sodipodi-0.dtd"
   xmlns="http://www.w3.org/2000/svg"
   xmlns:svg="http://www.w3.org/2000/svg"><sodipodi:namedview
     id="namedview1"
     pagecolor="#ffffff"
     bordercolor="#000000"
     borderopacity="0.25"
     inkscape:showpageshadow="2"
     inkscape:pageopacity="0.0"
     inkscape:pagecheckerboard="0"
     inkscape:deskcolor="#d1d1d1"
     inkscape:document-units="mm"
     inkscape:zoom="20.828989"
     inkscape:cx="10.106107"
     inkscape:cy="15.315194"
     inkscape:window-width="1920"
     inkscape:window-height="1013"
     inkscape:window-x="0"
     inkscape:window-y="30"
     inkscape:window-maximized="1"
     inkscape:current-layer="layer1" /><defs
     id="defs1"><clipPath
       clipPathUnits="userSpaceOnUse"
       id="clipPath4310"><path
         d="m 60.813,544.359 h 15.605 v 18.543 H 60.813 Z"
         transform="translate(-74.619327,-546.82702)"
         id="path4310" /></clipPath><clipPath
       clipPathUnits="userSpaceOnUse"
       id="clipPath4312"><path
         d="m 60.813,544.359 h 15.605 v 18.543 H 60.813 Z"
         transform="translate(-76.217727,-556.23101)"
         id="path4312" /></clipPath><clipPath
       clipPathUnits="userSpaceOnUse"
       id="clipPath4314"><path
         d="m 60.813,544.359 h 15.605 v 18.543 H 60.813 Z"
         transform="translate(-76.217727,-553.96301)"
         id="path4314" /></clipPath><clipPath
       clipPathUnits="userSpaceOnUse"
       id="clipPath4316"><path
         d="m 60.813,544.359 h 15.605 v 18.543 H 60.813 Z"
         transform="translate(-76.217727,-551.69501)"
         id="path4316" /></clipPath><clipPath
       clipPathUnits="userSpaceOnUse"
       id="clipPath4318"><path
         d="m 60.813,544.359 h 15.605 v 18.543 H 60.813 Z"
         transform="translate(-76.217727,-549.42802)"
         id="path4318" /></clipPath><clipPath
       clipPathUnits="userSpaceOnUse"
       id="clipPath4320"><path
         d="m 60.813,544.359 h 15.605 v 18.543 H 60.813 Z"
         transform="translate(-65.548602,-559.63201)"
         id="path4320" /></clipPath><clipPath
       clipPathUnits="userSpaceOnUse"
       id="clipPath4322"><path
         d="m 60.813,544.359 h 15.605 v 18.543 H 60.813 Z"
         transform="translate(-67.404927,-550.16401)"
         id="path4322" /></clipPath><clipPath
       clipPathUnits="userSpaceOnUse"
       id="clipPath4325"><path
         d="m 216.169,547.275 h 15.489 v 18.542 h -15.489 z"
         transform="translate(-231.45798,-556.49902)"
         id="path4325" /></clipPath><clipPath
       clipPathUnits="userSpaceOnUse"
       id="clipPath4330"><path
         d="m 234.688,547.276 h 15.489 v 18.543 h -15.489 z"
         transform="translate(-249.97803,-556.50001)"
         id="path4330" /></clipPath><clipPath
       clipPathUnits="userSpaceOnUse"
       id="clipPath4333"><path
         d="m 234.688,547.276 h 15.489 v 18.543 h -15.489 z"
         transform="translate(-241.93698,-553.60001)"
         id="path4333" /></clipPath><clipPath
       clipPathUnits="userSpaceOnUse"
       id="clipPath4336"><path
         d="m 378.176,547.276 h 19.348 v 18.542 h -19.348 z"
         transform="translate(-393.46601,-556.50001)"
         id="path4336" /></clipPath><clipPath
       clipPathUnits="userSpaceOnUse"
       id="clipPath4338"><path
         d="m 378.176,547.276 h 19.348 v 18.542 h -19.348 z"
         transform="translate(-396.12401,-551.44501)"
         id="path4338" /></clipPath><clipPath
       clipPathUnits="userSpaceOnUse"
       id="clipPath4340"><path
         d="m 378.176,547.276 h 19.348 v 18.542 h -19.348 z"
         transform="translate(-397.32401,-558.49801)"
         id="path4340" /></clipPath><clipPath
       clipPathUnits="userSpaceOnUse"
       id="clipPath4342"><path
         d="m 378.176,547.276 h 19.348 v 18.542 h -19.348 z"
         transform="translate(-397.32401,-556.79602)"
         id="path4342" /></clipPath><clipPath
       clipPathUnits="userSpaceOnUse"
       id="clipPath4344"><path
         d="m 378.176,547.276 h 19.348 v 18.542 h -19.348 z"
         transform="translate(-397.32401,-555.09601)"
         id="path4344" /></clipPath><clipPath
       clipPathUnits="userSpaceOnUse"
       id="clipPath4346"><path
         d="m 378.176,547.276 h 19.348 v 18.542 h -19.348 z"
         transform="translate(-397.32401,-553.39601)"
         id="path4346" /></clipPath><clipPath
       clipPathUnits="userSpaceOnUse"
       id="clipPath4348"><path
         d="m 378.176,547.276 h 19.348 v 18.542 h -19.348 z"
         transform="translate(-389.32098,-561.05002)"
         id="path4348" /></clipPath><clipPath
       clipPathUnits="userSpaceOnUse"
       id="clipPath4350"><path
         d="m 378.176,547.276 h 19.348 v 18.542 h -19.348 z"
         transform="translate(-390.65103,-553.97401)"
         id="path4350" /></clipPath><clipPath
       clipPathUnits="userSpaceOnUse"
       id="clipPath4336-9"><path
         d="m 378.176,547.276 h 19.348 v 18.542 h -19.348 z"
         transform="translate(-393.46601,-556.50001)"
         id="path4336-2" /></clipPath><clipPath
       clipPathUnits="userSpaceOnUse"
       id="clipPath4338-0"><path
         d="m 378.176,547.276 h 19.348 v 18.542 h -19.348 z"
         transform="translate(-396.12401,-551.44501)"
         id="path4338-2" /></clipPath><clipPath
       clipPathUnits="userSpaceOnUse"
       id="clipPath4340-3"><path
         d="m 378.176,547.276 h 19.348 v 18.542 h -19.348 z"
         transform="translate(-397.32401,-558.49801)"
         id="path4340-7" /></clipPath><clipPath
       clipPathUnits="userSpaceOnUse"
       id="clipPath4342-5"><path
         d="m 378.176,547.276 h 19.348 v 18.542 h -19.348 z"
         transform="translate(-397.32401,-556.79602)"
         id="path4342-9" /></clipPath><clipPath
       clipPathUnits="userSpaceOnUse"
       id="clipPath4344-2"><path
         d="m 378.176,547.276 h 19.348 v 18.542 h -19.348 z"
         transform="translate(-397.32401,-555.09601)"
         id="path4344-2" /></clipPath><clipPath
       clipPathUnits="userSpaceOnUse"
       id="clipPath4346-8"><path
         d="m 378.176,547.276 h 19.348 v 18.542 h -19.348 z"
         transform="translate(-397.32401,-553.39601)"
         id="path4346-9" /></clipPath><clipPath
       clipPathUnits="userSpaceOnUse"
       id="clipPath4348-7"><path
         d="m 378.176,547.276 h 19.348 v 18.542 h -19.348 z"
         transform="translate(-389.32098,-561.05002)"
         id="path4348-3" /></clipPath><clipPath
       clipPathUnits="userSpaceOnUse"
       id="clipPath4350-6"><path
         d="m 378.176,547.276 h 19.348 v 18.542 h -19.348 z"
         transform="translate(-390.65103,-553.97401)"
         id="path4350-1" /></clipPath></defs><g
     inkscape:label="Layer 1"
     inkscape:groupmode="layer"
     id="layer1"
     transform="translate(-89.428897,-170.17821)"><path
       id="path4334"
       d="m 89.499097,173.46539 2.661708,3.18311 2.661356,-3.18311 -2.661356,-3.21663 z"
       style="fill:#fde3b8;fill-opacity:1;fill-rule:nonzero;stroke:none;stroke-width:0.352778" /><path
       id="path4335"
       d="M 0,0 -7.545,-9.024 -15.089,0 -7.545,9.118 Z"
       style="fill:none;stroke:#231f20;stroke-width:0.4;stroke-linecap:round;stroke-linejoin:round;stroke-miterlimit:4;stroke-dasharray:none;stroke-opacity:1"
       transform="matrix(0.35277776,0,0,-0.35277776,94.822514,173.46539)"
       clip-path="url(#clipPath4336-9)" /><path
       id="path4337"
       d="m 0,0 c 0,-0.939 -0.761,-1.702 -1.702,-1.702 h -5.101 c -0.939,0 -1.7,0.763 -1.7,1.702 v 10.205 c 0,0.939 0.761,1.7 1.7,1.7 h 5.101 c 0.941,0 1.702,-0.761 1.702,-1.7 z"
       style="fill:#ffffff;fill-opacity:1;fill-rule:nonzero;stroke:#231f20;stroke-width:0.4;stroke-linecap:round;stroke-linejoin:round;stroke-miterlimit:4;stroke-dasharray:none;stroke-opacity:1"
       transform="matrix(0.35277776,0,0,-0.35277776,95.760197,175.24868)"
       clip-path="url(#clipPath4338-0)" /><path
       id="path4339"
       d="m 0,0 c 0,-0.47 -0.381,-0.85 -0.852,-0.85 h -1.1 c -0.47,0 -0.851,0.38 -0.851,0.85 0,0.469 0.381,0.85 0.851,0.85 h 1.1 C -0.381,0.85 0,0.469 0,0"
       style="fill:#e9e9e9;fill-opacity:1;fill-rule:nonzero;stroke:#231f20;stroke-width:0.4;stroke-linecap:round;stroke-linejoin:round;stroke-miterlimit:4;stroke-dasharray:none;stroke-opacity:1"
       transform="matrix(0.35277776,0,0,-0.35277776,96.183531,172.76054)"
       clip-path="url(#clipPath4340-3)" /><path
       id="path4341"
       d="m 0,0 c 0,-0.469 -0.381,-0.85 -0.852,-0.85 h -1.1 c -0.47,0 -0.851,0.381 -0.851,0.85 0,0.471 0.381,0.852 0.851,0.852 h 1.1 C -0.381,0.852 0,0.471 0,0"
       style="fill:#e9e9e9;fill-opacity:1;fill-rule:nonzero;stroke:#231f20;stroke-width:0.4;stroke-linecap:round;stroke-linejoin:round;stroke-miterlimit:4;stroke-dasharray:none;stroke-opacity:1"
       transform="matrix(0.35277776,0,0,-0.35277776,96.183531,173.36097)"
       clip-path="url(#clipPath4342-5)" /><path
       id="path4343"
       d="m 0,0 c 0,-0.469 -0.381,-0.85 -0.852,-0.85 h -1.1 c -0.47,0 -0.851,0.381 -0.851,0.85 0,0.47 0.381,0.85 0.851,0.85 h 1.1 C -0.381,0.85 0,0.47 0,0"
       style="fill:#e9e9e9;fill-opacity:1;fill-rule:nonzero;stroke:#231f20;stroke-width:0.4;stroke-linecap:round;stroke-linejoin:round;stroke-miterlimit:4;stroke-dasharray:none;stroke-opacity:1"
       transform="matrix(0.35277776,0,0,-0.35277776,96.183531,173.96069)"
       clip-path="url(#clipPath4344-2)" /><path
       id="path4345"
       d="m 0,0 c 0,-0.47 -0.381,-0.85 -0.852,-0.85 h -1.1 c -0.47,0 -0.851,0.38 -0.851,0.85 0,0.469 0.381,0.85 0.851,0.85 h 1.1 C -0.381,0.85 0,0.469 0,0"
       style="fill:#e9e9e9;fill-opacity:1;fill-rule:nonzero;stroke:#231f20;stroke-width:0.4;stroke-linecap:round;stroke-linejoin:round;stroke-miterlimit:4;stroke-dasharray:none;stroke-opacity:1"
       transform="matrix(0.35277776,0,0,-0.35277776,96.183531,174.56041)"
       clip-path="url(#clipPath4346-8)" /><path
       id="path4347"
       d="m 0,0 h -1.7 c -0.939,0 -1.7,-0.762 -1.7,-1.702 v -5.603 c 0,-0.939 0.761,-1.7 1.7,-1.7 v 7.303 H 0 c 0.47,0 0.852,0.382 0.852,0.851 C 0.852,-0.381 0.47,0 0,0"
       style="fill:#e9e9e9;fill-opacity:1;fill-rule:nonzero;stroke:#231f20;stroke-width:0.4;stroke-linecap:round;stroke-linejoin:round;stroke-miterlimit:4;stroke-dasharray:none;stroke-opacity:1"
       transform="matrix(0.35277776,0,0,-0.35277776,93.360241,171.86025)"
       clip-path="url(#clipPath4348-7)" /><path
       id="path4349"
       d="M 0,0 V 0.703 H 0.768 V 3.661 L -0.16,2.854 V 3.75 L 0.768,4.556 H 1.6 V 0.703 H 2.31 V 0 Z"
       style="fill:#231f20;fill-opacity:1;fill-rule:nonzero;stroke:none"
       transform="matrix(0.35277776,0,0,-0.35277776,93.829453,174.35651)"
       clip-path="url(#clipPath4350-6)" /></g></svg>
