<?xml version="1.0" encoding="UTF-8" standalone="no"?>
<!-- Created with Inkscape (http://www.inkscape.org/) -->

<svg
   width="6.8230748mm"
   height="6.8234277mm"
   viewBox="0 0 6.8230751 6.8234279"
   version="1.1"
   id="svg1"
   inkscape:version="1.3 (0e150ed6c4, 2023-07-21)"
   sodipodi:docname="add-4-military-for-rebel-military-worlds.svg"
   xml:space="preserve"
   xmlns:inkscape="http://www.inkscape.org/namespaces/inkscape"
   xmlns:sodipodi="http://sodipodi.sourceforge.net/DTD/sodipodi-0.dtd"
   xmlns="http://www.w3.org/2000/svg"
   xmlns:svg="http://www.w3.org/2000/svg"><sodipodi:namedview
     id="namedview1"
     pagecolor="#ffffff"
     bordercolor="#000000"
     borderopacity="0.25"
     inkscape:showpageshadow="2"
     inkscape:pageopacity="0.0"
     inkscape:pagecheckerboard="0"
     inkscape:deskcolor="#d1d1d1"
     inkscape:document-units="mm"
     inkscape:zoom="17.613442"
     inkscape:cx="7.4658889"
     inkscape:cy="11.127865"
     inkscape:window-width="1920"
     inkscape:window-height="1013"
     inkscape:window-x="0"
     inkscape:window-y="30"
     inkscape:window-maximized="1"
     inkscape:current-layer="layer1" /><defs
     id="defs1"><clipPath
       clipPathUnits="userSpaceOnUse"
       id="clipPath4310"><path
         d="m 60.813,544.359 h 15.605 v 18.543 H 60.813 Z"
         transform="translate(-74.619327,-546.82702)"
         id="path4310" /></clipPath><clipPath
       clipPathUnits="userSpaceOnUse"
       id="clipPath4312"><path
         d="m 60.813,544.359 h 15.605 v 18.543 H 60.813 Z"
         transform="translate(-76.217727,-556.23101)"
         id="path4312" /></clipPath><clipPath
       clipPathUnits="userSpaceOnUse"
       id="clipPath4314"><path
         d="m 60.813,544.359 h 15.605 v 18.543 H 60.813 Z"
         transform="translate(-76.217727,-553.96301)"
         id="path4314" /></clipPath><clipPath
       clipPathUnits="userSpaceOnUse"
       id="clipPath4316"><path
         d="m 60.813,544.359 h 15.605 v 18.543 H 60.813 Z"
         transform="translate(-76.217727,-551.69501)"
         id="path4316" /></clipPath><clipPath
       clipPathUnits="userSpaceOnUse"
       id="clipPath4318"><path
         d="m 60.813,544.359 h 15.605 v 18.543 H 60.813 Z"
         transform="translate(-76.217727,-549.42802)"
         id="path4318" /></clipPath><clipPath
       clipPathUnits="userSpaceOnUse"
       id="clipPath4320"><path
         d="m 60.813,544.359 h 15.605 v 18.543 H 60.813 Z"
         transform="translate(-65.548602,-559.63201)"
         id="path4320" /></clipPath><clipPath
       clipPathUnits="userSpaceOnUse"
       id="clipPath4322"><path
         d="m 60.813,544.359 h 15.605 v 18.543 H 60.813 Z"
         transform="translate(-67.404927,-550.16401)"
         id="path4322" /></clipPath><clipPath
       clipPathUnits="userSpaceOnUse"
       id="clipPath4325"><path
         d="m 216.169,547.275 h 15.489 v 18.542 h -15.489 z"
         transform="translate(-231.45798,-556.49902)"
         id="path4325" /></clipPath><clipPath
       clipPathUnits="userSpaceOnUse"
       id="clipPath4330"><path
         d="m 234.688,547.276 h 15.489 v 18.543 h -15.489 z"
         transform="translate(-249.97803,-556.50001)"
         id="path4330" /></clipPath><clipPath
       clipPathUnits="userSpaceOnUse"
       id="clipPath4333"><path
         d="m 234.688,547.276 h 15.489 v 18.543 h -15.489 z"
         transform="translate(-241.93698,-553.60001)"
         id="path4333" /></clipPath><clipPath
       clipPathUnits="userSpaceOnUse"
       id="clipPath4336"><path
         d="m 378.176,547.276 h 19.348 v 18.542 h -19.348 z"
         transform="translate(-393.46601,-556.50001)"
         id="path4336" /></clipPath><clipPath
       clipPathUnits="userSpaceOnUse"
       id="clipPath4338"><path
         d="m 378.176,547.276 h 19.348 v 18.542 h -19.348 z"
         transform="translate(-396.12401,-551.44501)"
         id="path4338" /></clipPath><clipPath
       clipPathUnits="userSpaceOnUse"
       id="clipPath4340"><path
         d="m 378.176,547.276 h 19.348 v 18.542 h -19.348 z"
         transform="translate(-397.32401,-558.49801)"
         id="path4340" /></clipPath><clipPath
       clipPathUnits="userSpaceOnUse"
       id="clipPath4342"><path
         d="m 378.176,547.276 h 19.348 v 18.542 h -19.348 z"
         transform="translate(-397.32401,-556.79602)"
         id="path4342" /></clipPath><clipPath
       clipPathUnits="userSpaceOnUse"
       id="clipPath4344"><path
         d="m 378.176,547.276 h 19.348 v 18.542 h -19.348 z"
         transform="translate(-397.32401,-555.09601)"
         id="path4344" /></clipPath><clipPath
       clipPathUnits="userSpaceOnUse"
       id="clipPath4346"><path
         d="m 378.176,547.276 h 19.348 v 18.542 h -19.348 z"
         transform="translate(-397.32401,-553.39601)"
         id="path4346" /></clipPath><clipPath
       clipPathUnits="userSpaceOnUse"
       id="clipPath4348"><path
         d="m 378.176,547.276 h 19.348 v 18.542 h -19.348 z"
         transform="translate(-389.32098,-561.05002)"
         id="path4348" /></clipPath><clipPath
       clipPathUnits="userSpaceOnUse"
       id="clipPath4350"><path
         d="m 378.176,547.276 h 19.348 v 18.542 h -19.348 z"
         transform="translate(-390.65103,-553.97401)"
         id="path4350" /></clipPath><clipPath
       clipPathUnits="userSpaceOnUse"
       id="clipPath4336-9"><path
         d="m 378.176,547.276 h 19.348 v 18.542 h -19.348 z"
         transform="translate(-393.46601,-556.50001)"
         id="path4336-2" /></clipPath><clipPath
       clipPathUnits="userSpaceOnUse"
       id="clipPath4338-0"><path
         d="m 378.176,547.276 h 19.348 v 18.542 h -19.348 z"
         transform="translate(-396.12401,-551.44501)"
         id="path4338-2" /></clipPath><clipPath
       clipPathUnits="userSpaceOnUse"
       id="clipPath4340-3"><path
         d="m 378.176,547.276 h 19.348 v 18.542 h -19.348 z"
         transform="translate(-397.32401,-558.49801)"
         id="path4340-7" /></clipPath><clipPath
       clipPathUnits="userSpaceOnUse"
       id="clipPath4342-5"><path
         d="m 378.176,547.276 h 19.348 v 18.542 h -19.348 z"
         transform="translate(-397.32401,-556.79602)"
         id="path4342-9" /></clipPath><clipPath
       clipPathUnits="userSpaceOnUse"
       id="clipPath4344-2"><path
         d="m 378.176,547.276 h 19.348 v 18.542 h -19.348 z"
         transform="translate(-397.32401,-555.09601)"
         id="path4344-2" /></clipPath><clipPath
       clipPathUnits="userSpaceOnUse"
       id="clipPath4346-8"><path
         d="m 378.176,547.276 h 19.348 v 18.542 h -19.348 z"
         transform="translate(-397.32401,-553.39601)"
         id="path4346-9" /></clipPath><clipPath
       clipPathUnits="userSpaceOnUse"
       id="clipPath4348-7"><path
         d="m 378.176,547.276 h 19.348 v 18.542 h -19.348 z"
         transform="translate(-389.32098,-561.05002)"
         id="path4348-3" /></clipPath><clipPath
       clipPathUnits="userSpaceOnUse"
       id="clipPath4350-6"><path
         d="m 378.176,547.276 h 19.348 v 18.542 h -19.348 z"
         transform="translate(-390.65103,-553.97401)"
         id="path4350-1" /></clipPath><clipPath
       clipPathUnits="userSpaceOnUse"
       id="clipPath4496"><path
         d="m 161.771,461.299 h 11.371 v 11.37 h -11.371 z"
         transform="translate(-171.142,-466.98401)"
         id="path4496" /></clipPath><clipPath
       clipPathUnits="userSpaceOnUse"
       id="clipPath4502"><path
         d="m 302.944,451.568 h 19.614 v 10.801 h -19.614 z"
         transform="translate(-308.34401,-453.56801)"
         id="path4502" /></clipPath><clipPath
       clipPathUnits="userSpaceOnUse"
       id="clipPath4500"><path
         d="m 302.944,451.568 h 19.614 v 10.801 h -19.614 z"
         transform="translate(-311.74503,-456.96801)"
         id="path4500" /></clipPath><clipPath
       clipPathUnits="userSpaceOnUse"
       id="clipPath4498"><path
         d="m 302.944,451.568 h 19.614 v 10.801 h -19.614 z"
         transform="translate(-311.74503,-456.96801)"
         id="path4498" /></clipPath><clipPath
       clipPathUnits="userSpaceOnUse"
       id="clipPath4502-7"><path
         d="m 302.944,451.568 h 19.614 v 10.801 h -19.614 z"
         transform="translate(-308.34401,-453.56801)"
         id="path4502-4" /></clipPath><clipPath
       clipPathUnits="userSpaceOnUse"
       id="clipPath4500-4"><path
         d="m 302.944,451.568 h 19.614 v 10.801 h -19.614 z"
         transform="translate(-311.74503,-456.96801)"
         id="path4500-3" /></clipPath><clipPath
       clipPathUnits="userSpaceOnUse"
       id="clipPath4498-0"><path
         d="m 302.944,451.568 h 19.614 v 10.801 h -19.614 z"
         transform="translate(-311.74503,-456.96801)"
         id="path4498-7" /></clipPath><clipPath
       clipPathUnits="userSpaceOnUse"
       id="clipPath4502-8"><path
         d="m 302.944,451.568 h 19.614 v 10.801 h -19.614 z"
         transform="translate(-308.34401,-453.56801)"
         id="path4502-43" /></clipPath><clipPath
       clipPathUnits="userSpaceOnUse"
       id="clipPath4500-1"><path
         d="m 302.944,451.568 h 19.614 v 10.801 h -19.614 z"
         transform="translate(-311.74503,-456.96801)"
         id="path4500-4" /></clipPath><clipPath
       clipPathUnits="userSpaceOnUse"
       id="clipPath4498-9"><path
         d="m 302.944,451.568 h 19.614 v 10.801 h -19.614 z"
         transform="translate(-311.74503,-456.96801)"
         id="path4498-2" /></clipPath><clipPath
       clipPathUnits="userSpaceOnUse"
       id="clipPath4508"><path
         d="m 302.944,451.568 h 19.614 v 10.801 h -19.614 z"
         transform="translate(-318.59103,-458.89601)"
         id="path4508" /></clipPath><clipPath
       clipPathUnits="userSpaceOnUse"
       id="clipPath4506"><path
         d="m 302.944,451.568 h 19.614 v 10.801 h -19.614 z"
         transform="translate(-320.51703,-456.96801)"
         id="path4506" /></clipPath><clipPath
       clipPathUnits="userSpaceOnUse"
       id="clipPath4504"><path
         d="m 302.944,451.568 h 19.614 v 10.801 h -19.614 z"
         transform="translate(-322.55703,-456.96801)"
         id="path4504" /></clipPath><clipPath
       clipPathUnits="userSpaceOnUse"
       id="clipPath4364"><path
         d="m 375.244,456.034 h 41.586 v 26.778 h -41.586 z"
         transform="translate(-410.44699,-467.50601)"
         id="path4364" /></clipPath><clipPath
       clipPathUnits="userSpaceOnUse"
       id="clipPath4366"><path
         d="m 375.244,456.034 h 41.586 v 26.778 h -41.586 z"
         transform="translate(-2.5000001e-5)"
         id="path4366" /></clipPath><clipPath
       clipPathUnits="userSpaceOnUse"
       id="clipPath4368"><path
         d="m 375.244,456.034 h 41.586 v 26.778 h -41.586 z"
         transform="translate(-404.83901,-468.77501)"
         id="path4368" /></clipPath><clipPath
       clipPathUnits="userSpaceOnUse"
       id="clipPath4370"><path
         d="m 375.244,456.034 h 41.586 v 26.778 h -41.586 z"
         transform="translate(-414.43001,-476.18701)"
         id="path4370" /></clipPath><radialGradient
       fx="0"
       fy="0"
       cx="0"
       cy="0"
       r="1"
       gradientUnits="userSpaceOnUse"
       gradientTransform="matrix(0.79988124,0,0,0.79988124,99.064506,164.78954)"
       spreadMethod="pad"
       id="radialGradient4372"><stop
         style="stop-opacity:1;stop-color:#fff200"
         offset="0"
         id="stop4370" /><stop
         style="stop-opacity:1;stop-color:#fff200"
         offset="0.79908705"
         id="stop4371" /><stop
         style="stop-opacity:1;stop-color:#b0a600"
         offset="1"
         id="stop4372" /></radialGradient><clipPath
       clipPathUnits="userSpaceOnUse"
       id="clipPath4374"><path
         d="m 375.244,456.034 h 41.586 v 26.778 h -41.586 z"
         transform="translate(-407.05601,-479.36101)"
         id="path4374" /></clipPath><clipPath
       clipPathUnits="userSpaceOnUse"
       id="clipPath4376"><path
         d="m 375.244,456.034 h 41.586 v 26.778 h -41.586 z"
         transform="translate(-395.18598,-467.50601)"
         id="path4376" /></clipPath><clipPath
       clipPathUnits="userSpaceOnUse"
       id="clipPath4378"><path
         d="m 375.244,456.034 h 41.586 v 26.778 h -41.586 z"
         transform="translate(-386.78298,-460.70301)"
         id="path4378" /></clipPath><clipPath
       clipPathUnits="userSpaceOnUse"
       id="clipPath4380"><path
         d="m 375.244,456.034 h 41.586 v 26.778 h -41.586 z"
         transform="translate(-377.08203,-475.04601)"
         id="path4380" /></clipPath><clipPath
       clipPathUnits="userSpaceOnUse"
       id="clipPath4382"><path
         d="m 375.244,456.034 h 41.586 v 26.778 h -41.586 z"
         transform="translate(-385.14701,-475.04601)"
         id="path4382" /></clipPath><clipPath
       clipPathUnits="userSpaceOnUse"
       id="clipPath4364-5"><path
         d="m 375.244,456.034 h 41.586 v 26.778 h -41.586 z"
         transform="translate(-410.44699,-467.50601)"
         id="path4364-0" /></clipPath><clipPath
       clipPathUnits="userSpaceOnUse"
       id="clipPath4366-4"><path
         d="m 375.244,456.034 h 41.586 v 26.778 h -41.586 z"
         transform="translate(-2.5000001e-5)"
         id="path4366-8" /></clipPath><clipPath
       clipPathUnits="userSpaceOnUse"
       id="clipPath4368-7"><path
         d="m 375.244,456.034 h 41.586 v 26.778 h -41.586 z"
         transform="translate(-404.83901,-468.77501)"
         id="path4368-1" /></clipPath><clipPath
       clipPathUnits="userSpaceOnUse"
       id="clipPath4370-7"><path
         d="m 375.244,456.034 h 41.586 v 26.778 h -41.586 z"
         transform="translate(-414.43001,-476.18701)"
         id="path4370-2" /></clipPath><radialGradient
       fx="0"
       fy="0"
       cx="0"
       cy="0"
       r="1"
       gradientUnits="userSpaceOnUse"
       gradientTransform="matrix(0.79988124,0,0,0.79988124,99.858206,161.61453)"
       spreadMethod="pad"
       id="radialGradient4372-7"><stop
         style="stop-opacity:1;stop-color:#fff200"
         offset="0"
         id="stop4370-2" /><stop
         style="stop-opacity:1;stop-color:#fff200"
         offset="0.79908705"
         id="stop4371-2" /><stop
         style="stop-opacity:1;stop-color:#b0a600"
         offset="1"
         id="stop4372-6" /></radialGradient><clipPath
       clipPathUnits="userSpaceOnUse"
       id="clipPath4374-1"><path
         d="m 375.244,456.034 h 41.586 v 26.778 h -41.586 z"
         transform="translate(-407.05601,-479.36101)"
         id="path4374-0" /></clipPath><clipPath
       clipPathUnits="userSpaceOnUse"
       id="clipPath4376-6"><path
         d="m 375.244,456.034 h 41.586 v 26.778 h -41.586 z"
         transform="translate(-395.18598,-467.50601)"
         id="path4376-1" /></clipPath><clipPath
       clipPathUnits="userSpaceOnUse"
       id="clipPath4378-5"><path
         d="m 375.244,456.034 h 41.586 v 26.778 h -41.586 z"
         transform="translate(-386.78298,-460.70301)"
         id="path4378-9" /></clipPath><clipPath
       clipPathUnits="userSpaceOnUse"
       id="clipPath4380-4"><path
         d="m 375.244,456.034 h 41.586 v 26.778 h -41.586 z"
         transform="translate(-377.08203,-475.04601)"
         id="path4380-9" /></clipPath><clipPath
       clipPathUnits="userSpaceOnUse"
       id="clipPath4382-0"><path
         d="m 375.244,456.034 h 41.586 v 26.778 h -41.586 z"
         transform="translate(-385.14701,-475.04601)"
         id="path4382-9" /></clipPath><clipPath
       clipPathUnits="userSpaceOnUse"
       id="clipPath4510"><path
         d="m 476.075,411.308 h 19.614 v 10.801 h -19.614 z"
         transform="translate(-484.87601,-416.70801)"
         id="path4510" /></clipPath><clipPath
       clipPathUnits="userSpaceOnUse"
       id="clipPath4512"><path
         d="m 476.075,411.308 h 19.614 v 10.801 h -19.614 z"
         transform="translate(-484.87601,-416.70801)"
         id="path4512" /></clipPath><clipPath
       clipPathUnits="userSpaceOnUse"
       id="clipPath4514"><path
         d="m 476.075,411.308 h 19.614 v 10.801 h -19.614 z"
         transform="translate(-481.47604,-413.30801)"
         id="path4514" /></clipPath><clipPath
       clipPathUnits="userSpaceOnUse"
       id="clipPath4516"><path
         d="m 476.075,411.308 h 19.614 v 10.801 h -19.614 z"
         transform="translate(-495.68801,-416.70901)"
         id="path4516" /></clipPath><clipPath
       clipPathUnits="userSpaceOnUse"
       id="clipPath4518"><path
         d="m 476.075,411.308 h 19.614 v 10.801 h -19.614 z"
         transform="translate(-493.64899,-416.70901)"
         id="path4518" /></clipPath><clipPath
       clipPathUnits="userSpaceOnUse"
       id="clipPath4520"><path
         d="m 476.075,411.308 h 19.614 v 10.801 h -19.614 z"
         transform="translate(-491.72299,-418.63601)"
         id="path4520" /></clipPath><clipPath
       clipPathUnits="userSpaceOnUse"
       id="clipPath4510-6"><path
         d="m 476.075,411.308 h 19.614 v 10.801 h -19.614 z"
         transform="translate(-484.87601,-416.70801)"
         id="path4510-7" /></clipPath><clipPath
       clipPathUnits="userSpaceOnUse"
       id="clipPath4512-3"><path
         d="m 476.075,411.308 h 19.614 v 10.801 h -19.614 z"
         transform="translate(-484.87601,-416.70801)"
         id="path4512-6" /></clipPath><clipPath
       clipPathUnits="userSpaceOnUse"
       id="clipPath4514-5"><path
         d="m 476.075,411.308 h 19.614 v 10.801 h -19.614 z"
         transform="translate(-481.47604,-413.30801)"
         id="path4514-6" /></clipPath><clipPath
       clipPathUnits="userSpaceOnUse"
       id="clipPath4516-8"><path
         d="m 476.075,411.308 h 19.614 v 10.801 h -19.614 z"
         transform="translate(-495.68801,-416.70901)"
         id="path4516-1" /></clipPath><clipPath
       clipPathUnits="userSpaceOnUse"
       id="clipPath4518-2"><path
         d="m 476.075,411.308 h 19.614 v 10.801 h -19.614 z"
         transform="translate(-493.64899,-416.70901)"
         id="path4518-9" /></clipPath><clipPath
       clipPathUnits="userSpaceOnUse"
       id="clipPath4520-3"><path
         d="m 476.075,411.308 h 19.614 v 10.801 h -19.614 z"
         transform="translate(-491.72299,-418.63601)"
         id="path4520-9" /></clipPath><clipPath
       clipPathUnits="userSpaceOnUse"
       id="clipPath5812"><path
         d="m 273.283,303.047 h 12.504 v 12.504 h -12.504 z"
         transform="translate(-283.78698,-309.29801)"
         id="path5812" /></clipPath><clipPath
       clipPathUnits="userSpaceOnUse"
       id="clipPath4524"><path
         d="m 92.984,303.031 h 11.37 v 11.371 h -11.37 z"
         transform="translate(-102.35403,-308.71701)"
         id="path4524" /></clipPath><clipPath
       clipPathUnits="userSpaceOnUse"
       id="clipPath4384"><path
         d="m 56.072,311.551 h 22.94 v 22.677 h -22.94 z"
         transform="translate(-76.612377,-322.89101)"
         id="path4384" /></clipPath><clipPath
       clipPathUnits="userSpaceOnUse"
       id="clipPath4386"><path
         d="m 56.072,311.551 h 22.94 v 22.677 h -22.94 z"
         transform="translate(-64.888527,-321.16401)"
         id="path4386" /></clipPath><clipPath
       clipPathUnits="userSpaceOnUse"
       id="clipPath4388"><path
         d="m 56.072,311.551 h 22.94 v 22.677 h -22.94 z"
         transform="translate(-68.226777,-318.91801)"
         id="path4388" /></clipPath><clipPath
       clipPathUnits="userSpaceOnUse"
       id="clipPath4358"><path
         d="m 215.042,459.341 h 22.941 v 22.942 h -22.941 z"
         transform="translate(-235.58201,-470.81301)"
         id="path4358" /></clipPath><clipPath
       clipPathUnits="userSpaceOnUse"
       id="clipPath4360"><path
         d="m 215.042,459.341 h 22.941 v 22.942 h -22.941 z"
         transform="translate(-2.5000001e-5)"
         id="path4360" /></clipPath><clipPath
       clipPathUnits="userSpaceOnUse"
       id="clipPath4362"><path
         d="m 215.042,459.341 h 22.941 v 22.942 h -22.941 z"
         transform="translate(-225.97998,-466.84101)"
         id="path4362" /></clipPath><clipPath
       clipPathUnits="userSpaceOnUse"
       id="clipPath4352"><path
         d="m 59.614,459.341 h 22.94 v 22.942 h -22.94 z"
         transform="translate(-80.154327,-470.81301)"
         id="path4352" /></clipPath><clipPath
       clipPathUnits="userSpaceOnUse"
       id="clipPath4354"><path
         d="m 59.614,459.341 h 22.94 v 22.942 h -22.94 z"
         transform="translate(-2.5000001e-5)"
         id="path4354" /></clipPath><clipPath
       clipPathUnits="userSpaceOnUse"
       id="clipPath4356"><path
         d="m 59.614,459.341 h 22.94 v 22.942 h -22.94 z"
         transform="translate(-70.011402,-466.84001)"
         id="path4356" /></clipPath><clipPath
       clipPathUnits="userSpaceOnUse"
       id="clipPath4402"><path
         d="m 56.072,239.268 h 22.94 v 22.677 h -22.94 z"
         transform="translate(-76.612302,-250.60701)"
         id="path4402" /></clipPath><clipPath
       clipPathUnits="userSpaceOnUse"
       id="clipPath4404"><path
         d="m 56.072,239.268 h 22.94 v 22.677 h -22.94 z"
         transform="translate(-2.5000001e-5)"
         id="path4404" /></clipPath><clipPath
       clipPathUnits="userSpaceOnUse"
       id="clipPath4406"><path
         d="m 56.072,239.268 h 22.94 v 22.677 h -22.94 z"
         transform="translate(-67.010427,-246.63501)"
         id="path4406" /></clipPath><clipPath
       clipPathUnits="userSpaceOnUse"
       id="clipPath4408"><path
         d="m 216.459,311.561 h 22.94 v 22.942 h -22.94 z"
         transform="translate(-236.99898,-323.03301)"
         id="path4408" /></clipPath><clipPath
       clipPathUnits="userSpaceOnUse"
       id="clipPath4410"><path
         d="m 216.459,311.561 h 22.94 v 22.942 h -22.94 z"
         transform="translate(-225.27603,-321.30501)"
         id="path4410" /></clipPath><clipPath
       clipPathUnits="userSpaceOnUse"
       id="clipPath4412"><path
         d="m 216.459,311.561 h 22.94 v 22.942 h -22.94 z"
         transform="translate(-232.10703,-320.11001)"
         id="path4412" /></clipPath></defs><g
     inkscape:label="Layer 1"
     inkscape:groupmode="layer"
     id="layer1"
     transform="translate(-99.217922,-160.12438)"><path
       id="path4407"
       d="m 0,0 c 0,-5.011 -4.059,-9.072 -9.07,-9.072 -5.01,0 -9.071,4.061 -9.071,9.072 0,5.009 4.061,9.07 9.071,9.07 C -4.059,9.07 0,5.009 0,0"
       style="fill:#fabfac;fill-opacity:1;fill-rule:nonzero;stroke:#ed1c24;stroke-width:1.2;stroke-linecap:butt;stroke-linejoin:miter;stroke-miterlimit:4;stroke-dasharray:none;stroke-opacity:1"
       transform="matrix(0.35277776,0,0,-0.35277776,105.82933,163.53574)"
       clip-path="url(#clipPath4408)" /><path
       id="path4409"
       d="M 0,0 V -1.664 H -1.269 V 0 h -1.674 v 1.269 h 1.674 V 2.933 H 0 V 1.269 H 1.664 V 0 Z"
       style="fill:#ffffff;fill-opacity:1;fill-rule:nonzero;stroke:#ed1c24;stroke-width:0.4;stroke-linecap:butt;stroke-linejoin:miter;stroke-miterlimit:4;stroke-dasharray:none;stroke-opacity:1"
       transform="matrix(0.35277776,0,0,-0.35277776,101.69373,164.14534)"
       clip-path="url(#clipPath4410)" /><path
       id="path4411"
       d="M 0,0 V -1.051 H -1.3 V 0 h -3.025 v 1.279 l 2.537,5.075 h 1.477 L -2.848,1.279 H -1.3 V 2.662 H 0 V 1.279 H 0.677 V 0 Z"
       style="fill:#ffffff;fill-opacity:1;fill-rule:nonzero;stroke:#ed1c24;stroke-width:0.4;stroke-linecap:butt;stroke-linejoin:miter;stroke-miterlimit:4;stroke-dasharray:none;stroke-opacity:1"
       transform="matrix(0.35277776,0,0,-0.35277776,104.10355,164.56691)"
       clip-path="url(#clipPath4412)" /></g></svg>
