<?xml version="1.0" encoding="UTF-8" standalone="no"?>
<!-- Created with Inkscape (http://www.inkscape.org/) -->

<svg
   width="16.402403mm"
   height="8.1865635mm"
   viewBox="0 0 16.402403 8.1865638"
   version="1.1"
   id="svg1"
   inkscape:version="1.3 (0e150ed6c4, 2023-07-21)"
   sodipodi:docname="instead-of-military-pay-to-settle-military-planet.svg"
   xml:space="preserve"
   xmlns:inkscape="http://www.inkscape.org/namespaces/inkscape"
   xmlns:sodipodi="http://sodipodi.sourceforge.net/DTD/sodipodi-0.dtd"
   xmlns="http://www.w3.org/2000/svg"
   xmlns:svg="http://www.w3.org/2000/svg"><sodipodi:namedview
     id="namedview1"
     pagecolor="#ffffff"
     bordercolor="#000000"
     borderopacity="0.25"
     inkscape:showpageshadow="2"
     inkscape:pageopacity="0.0"
     inkscape:pagecheckerboard="0"
     inkscape:deskcolor="#d1d1d1"
     inkscape:document-units="mm"
     inkscape:zoom="17.613442"
     inkscape:cx="19.615701"
     inkscape:cy="12.149812"
     inkscape:window-width="1920"
     inkscape:window-height="1013"
     inkscape:window-x="0"
     inkscape:window-y="30"
     inkscape:window-maximized="1"
     inkscape:current-layer="layer1" /><defs
     id="defs1"><clipPath
       clipPathUnits="userSpaceOnUse"
       id="clipPath4310"><path
         d="m 60.813,544.359 h 15.605 v 18.543 H 60.813 Z"
         transform="translate(-74.619327,-546.82702)"
         id="path4310" /></clipPath><clipPath
       clipPathUnits="userSpaceOnUse"
       id="clipPath4312"><path
         d="m 60.813,544.359 h 15.605 v 18.543 H 60.813 Z"
         transform="translate(-76.217727,-556.23101)"
         id="path4312" /></clipPath><clipPath
       clipPathUnits="userSpaceOnUse"
       id="clipPath4314"><path
         d="m 60.813,544.359 h 15.605 v 18.543 H 60.813 Z"
         transform="translate(-76.217727,-553.96301)"
         id="path4314" /></clipPath><clipPath
       clipPathUnits="userSpaceOnUse"
       id="clipPath4316"><path
         d="m 60.813,544.359 h 15.605 v 18.543 H 60.813 Z"
         transform="translate(-76.217727,-551.69501)"
         id="path4316" /></clipPath><clipPath
       clipPathUnits="userSpaceOnUse"
       id="clipPath4318"><path
         d="m 60.813,544.359 h 15.605 v 18.543 H 60.813 Z"
         transform="translate(-76.217727,-549.42802)"
         id="path4318" /></clipPath><clipPath
       clipPathUnits="userSpaceOnUse"
       id="clipPath4320"><path
         d="m 60.813,544.359 h 15.605 v 18.543 H 60.813 Z"
         transform="translate(-65.548602,-559.63201)"
         id="path4320" /></clipPath><clipPath
       clipPathUnits="userSpaceOnUse"
       id="clipPath4322"><path
         d="m 60.813,544.359 h 15.605 v 18.543 H 60.813 Z"
         transform="translate(-67.404927,-550.16401)"
         id="path4322" /></clipPath><clipPath
       clipPathUnits="userSpaceOnUse"
       id="clipPath4325"><path
         d="m 216.169,547.275 h 15.489 v 18.542 h -15.489 z"
         transform="translate(-231.45798,-556.49902)"
         id="path4325" /></clipPath><clipPath
       clipPathUnits="userSpaceOnUse"
       id="clipPath4330"><path
         d="m 234.688,547.276 h 15.489 v 18.543 h -15.489 z"
         transform="translate(-249.97803,-556.50001)"
         id="path4330" /></clipPath><clipPath
       clipPathUnits="userSpaceOnUse"
       id="clipPath4333"><path
         d="m 234.688,547.276 h 15.489 v 18.543 h -15.489 z"
         transform="translate(-241.93698,-553.60001)"
         id="path4333" /></clipPath><clipPath
       clipPathUnits="userSpaceOnUse"
       id="clipPath4336"><path
         d="m 378.176,547.276 h 19.348 v 18.542 h -19.348 z"
         transform="translate(-393.46601,-556.50001)"
         id="path4336" /></clipPath><clipPath
       clipPathUnits="userSpaceOnUse"
       id="clipPath4338"><path
         d="m 378.176,547.276 h 19.348 v 18.542 h -19.348 z"
         transform="translate(-396.12401,-551.44501)"
         id="path4338" /></clipPath><clipPath
       clipPathUnits="userSpaceOnUse"
       id="clipPath4340"><path
         d="m 378.176,547.276 h 19.348 v 18.542 h -19.348 z"
         transform="translate(-397.32401,-558.49801)"
         id="path4340" /></clipPath><clipPath
       clipPathUnits="userSpaceOnUse"
       id="clipPath4342"><path
         d="m 378.176,547.276 h 19.348 v 18.542 h -19.348 z"
         transform="translate(-397.32401,-556.79602)"
         id="path4342" /></clipPath><clipPath
       clipPathUnits="userSpaceOnUse"
       id="clipPath4344"><path
         d="m 378.176,547.276 h 19.348 v 18.542 h -19.348 z"
         transform="translate(-397.32401,-555.09601)"
         id="path4344" /></clipPath><clipPath
       clipPathUnits="userSpaceOnUse"
       id="clipPath4346"><path
         d="m 378.176,547.276 h 19.348 v 18.542 h -19.348 z"
         transform="translate(-397.32401,-553.39601)"
         id="path4346" /></clipPath><clipPath
       clipPathUnits="userSpaceOnUse"
       id="clipPath4348"><path
         d="m 378.176,547.276 h 19.348 v 18.542 h -19.348 z"
         transform="translate(-389.32098,-561.05002)"
         id="path4348" /></clipPath><clipPath
       clipPathUnits="userSpaceOnUse"
       id="clipPath4350"><path
         d="m 378.176,547.276 h 19.348 v 18.542 h -19.348 z"
         transform="translate(-390.65103,-553.97401)"
         id="path4350" /></clipPath><clipPath
       clipPathUnits="userSpaceOnUse"
       id="clipPath4336-9"><path
         d="m 378.176,547.276 h 19.348 v 18.542 h -19.348 z"
         transform="translate(-393.46601,-556.50001)"
         id="path4336-2" /></clipPath><clipPath
       clipPathUnits="userSpaceOnUse"
       id="clipPath4338-0"><path
         d="m 378.176,547.276 h 19.348 v 18.542 h -19.348 z"
         transform="translate(-396.12401,-551.44501)"
         id="path4338-2" /></clipPath><clipPath
       clipPathUnits="userSpaceOnUse"
       id="clipPath4340-3"><path
         d="m 378.176,547.276 h 19.348 v 18.542 h -19.348 z"
         transform="translate(-397.32401,-558.49801)"
         id="path4340-7" /></clipPath><clipPath
       clipPathUnits="userSpaceOnUse"
       id="clipPath4342-5"><path
         d="m 378.176,547.276 h 19.348 v 18.542 h -19.348 z"
         transform="translate(-397.32401,-556.79602)"
         id="path4342-9" /></clipPath><clipPath
       clipPathUnits="userSpaceOnUse"
       id="clipPath4344-2"><path
         d="m 378.176,547.276 h 19.348 v 18.542 h -19.348 z"
         transform="translate(-397.32401,-555.09601)"
         id="path4344-2" /></clipPath><clipPath
       clipPathUnits="userSpaceOnUse"
       id="clipPath4346-8"><path
         d="m 378.176,547.276 h 19.348 v 18.542 h -19.348 z"
         transform="translate(-397.32401,-553.39601)"
         id="path4346-9" /></clipPath><clipPath
       clipPathUnits="userSpaceOnUse"
       id="clipPath4348-7"><path
         d="m 378.176,547.276 h 19.348 v 18.542 h -19.348 z"
         transform="translate(-389.32098,-561.05002)"
         id="path4348-3" /></clipPath><clipPath
       clipPathUnits="userSpaceOnUse"
       id="clipPath4350-6"><path
         d="m 378.176,547.276 h 19.348 v 18.542 h -19.348 z"
         transform="translate(-390.65103,-553.97401)"
         id="path4350-1" /></clipPath><clipPath
       clipPathUnits="userSpaceOnUse"
       id="clipPath4496"><path
         d="m 161.771,461.299 h 11.371 v 11.37 h -11.371 z"
         transform="translate(-171.142,-466.98401)"
         id="path4496" /></clipPath><clipPath
       clipPathUnits="userSpaceOnUse"
       id="clipPath4502"><path
         d="m 302.944,451.568 h 19.614 v 10.801 h -19.614 z"
         transform="translate(-308.34401,-453.56801)"
         id="path4502" /></clipPath><clipPath
       clipPathUnits="userSpaceOnUse"
       id="clipPath4500"><path
         d="m 302.944,451.568 h 19.614 v 10.801 h -19.614 z"
         transform="translate(-311.74503,-456.96801)"
         id="path4500" /></clipPath><clipPath
       clipPathUnits="userSpaceOnUse"
       id="clipPath4498"><path
         d="m 302.944,451.568 h 19.614 v 10.801 h -19.614 z"
         transform="translate(-311.74503,-456.96801)"
         id="path4498" /></clipPath><clipPath
       clipPathUnits="userSpaceOnUse"
       id="clipPath4502-7"><path
         d="m 302.944,451.568 h 19.614 v 10.801 h -19.614 z"
         transform="translate(-308.34401,-453.56801)"
         id="path4502-4" /></clipPath><clipPath
       clipPathUnits="userSpaceOnUse"
       id="clipPath4500-4"><path
         d="m 302.944,451.568 h 19.614 v 10.801 h -19.614 z"
         transform="translate(-311.74503,-456.96801)"
         id="path4500-3" /></clipPath><clipPath
       clipPathUnits="userSpaceOnUse"
       id="clipPath4498-0"><path
         d="m 302.944,451.568 h 19.614 v 10.801 h -19.614 z"
         transform="translate(-311.74503,-456.96801)"
         id="path4498-7" /></clipPath><clipPath
       clipPathUnits="userSpaceOnUse"
       id="clipPath4502-8"><path
         d="m 302.944,451.568 h 19.614 v 10.801 h -19.614 z"
         transform="translate(-308.34401,-453.56801)"
         id="path4502-43" /></clipPath><clipPath
       clipPathUnits="userSpaceOnUse"
       id="clipPath4500-1"><path
         d="m 302.944,451.568 h 19.614 v 10.801 h -19.614 z"
         transform="translate(-311.74503,-456.96801)"
         id="path4500-4" /></clipPath><clipPath
       clipPathUnits="userSpaceOnUse"
       id="clipPath4498-9"><path
         d="m 302.944,451.568 h 19.614 v 10.801 h -19.614 z"
         transform="translate(-311.74503,-456.96801)"
         id="path4498-2" /></clipPath><clipPath
       clipPathUnits="userSpaceOnUse"
       id="clipPath4508"><path
         d="m 302.944,451.568 h 19.614 v 10.801 h -19.614 z"
         transform="translate(-318.59103,-458.89601)"
         id="path4508" /></clipPath><clipPath
       clipPathUnits="userSpaceOnUse"
       id="clipPath4506"><path
         d="m 302.944,451.568 h 19.614 v 10.801 h -19.614 z"
         transform="translate(-320.51703,-456.96801)"
         id="path4506" /></clipPath><clipPath
       clipPathUnits="userSpaceOnUse"
       id="clipPath4504"><path
         d="m 302.944,451.568 h 19.614 v 10.801 h -19.614 z"
         transform="translate(-322.55703,-456.96801)"
         id="path4504" /></clipPath><clipPath
       clipPathUnits="userSpaceOnUse"
       id="clipPath4364"><path
         d="m 375.244,456.034 h 41.586 v 26.778 h -41.586 z"
         transform="translate(-410.44699,-467.50601)"
         id="path4364" /></clipPath><clipPath
       clipPathUnits="userSpaceOnUse"
       id="clipPath4366"><path
         d="m 375.244,456.034 h 41.586 v 26.778 h -41.586 z"
         transform="translate(-2.5000001e-5)"
         id="path4366" /></clipPath><clipPath
       clipPathUnits="userSpaceOnUse"
       id="clipPath4368"><path
         d="m 375.244,456.034 h 41.586 v 26.778 h -41.586 z"
         transform="translate(-404.83901,-468.77501)"
         id="path4368" /></clipPath><clipPath
       clipPathUnits="userSpaceOnUse"
       id="clipPath4370"><path
         d="m 375.244,456.034 h 41.586 v 26.778 h -41.586 z"
         transform="translate(-414.43001,-476.18701)"
         id="path4370" /></clipPath><radialGradient
       fx="0"
       fy="0"
       cx="0"
       cy="0"
       r="1"
       gradientUnits="userSpaceOnUse"
       gradientTransform="matrix(0.79988124,0,0,0.79988124,99.064506,164.78954)"
       spreadMethod="pad"
       id="radialGradient4372"><stop
         style="stop-opacity:1;stop-color:#fff200"
         offset="0"
         id="stop4370" /><stop
         style="stop-opacity:1;stop-color:#fff200"
         offset="0.79908705"
         id="stop4371" /><stop
         style="stop-opacity:1;stop-color:#b0a600"
         offset="1"
         id="stop4372" /></radialGradient><clipPath
       clipPathUnits="userSpaceOnUse"
       id="clipPath4374"><path
         d="m 375.244,456.034 h 41.586 v 26.778 h -41.586 z"
         transform="translate(-407.05601,-479.36101)"
         id="path4374" /></clipPath><clipPath
       clipPathUnits="userSpaceOnUse"
       id="clipPath4376"><path
         d="m 375.244,456.034 h 41.586 v 26.778 h -41.586 z"
         transform="translate(-395.18598,-467.50601)"
         id="path4376" /></clipPath><clipPath
       clipPathUnits="userSpaceOnUse"
       id="clipPath4378"><path
         d="m 375.244,456.034 h 41.586 v 26.778 h -41.586 z"
         transform="translate(-386.78298,-460.70301)"
         id="path4378" /></clipPath><clipPath
       clipPathUnits="userSpaceOnUse"
       id="clipPath4380"><path
         d="m 375.244,456.034 h 41.586 v 26.778 h -41.586 z"
         transform="translate(-377.08203,-475.04601)"
         id="path4380" /></clipPath><clipPath
       clipPathUnits="userSpaceOnUse"
       id="clipPath4382"><path
         d="m 375.244,456.034 h 41.586 v 26.778 h -41.586 z"
         transform="translate(-385.14701,-475.04601)"
         id="path4382" /></clipPath><clipPath
       clipPathUnits="userSpaceOnUse"
       id="clipPath4364-5"><path
         d="m 375.244,456.034 h 41.586 v 26.778 h -41.586 z"
         transform="translate(-410.44699,-467.50601)"
         id="path4364-0" /></clipPath><clipPath
       clipPathUnits="userSpaceOnUse"
       id="clipPath4366-4"><path
         d="m 375.244,456.034 h 41.586 v 26.778 h -41.586 z"
         transform="translate(-2.5000001e-5)"
         id="path4366-8" /></clipPath><clipPath
       clipPathUnits="userSpaceOnUse"
       id="clipPath4368-7"><path
         d="m 375.244,456.034 h 41.586 v 26.778 h -41.586 z"
         transform="translate(-404.83901,-468.77501)"
         id="path4368-1" /></clipPath><clipPath
       clipPathUnits="userSpaceOnUse"
       id="clipPath4370-7"><path
         d="m 375.244,456.034 h 41.586 v 26.778 h -41.586 z"
         transform="translate(-414.43001,-476.18701)"
         id="path4370-2" /></clipPath><radialGradient
       fx="0"
       fy="0"
       cx="0"
       cy="0"
       r="1"
       gradientUnits="userSpaceOnUse"
       gradientTransform="matrix(0.79988124,0,0,0.79988124,99.858206,161.61453)"
       spreadMethod="pad"
       id="radialGradient4372-7"><stop
         style="stop-opacity:1;stop-color:#fff200"
         offset="0"
         id="stop4370-2" /><stop
         style="stop-opacity:1;stop-color:#fff200"
         offset="0.79908705"
         id="stop4371-2" /><stop
         style="stop-opacity:1;stop-color:#b0a600"
         offset="1"
         id="stop4372-6" /></radialGradient><clipPath
       clipPathUnits="userSpaceOnUse"
       id="clipPath4374-1"><path
         d="m 375.244,456.034 h 41.586 v 26.778 h -41.586 z"
         transform="translate(-407.05601,-479.36101)"
         id="path4374-0" /></clipPath><clipPath
       clipPathUnits="userSpaceOnUse"
       id="clipPath4376-6"><path
         d="m 375.244,456.034 h 41.586 v 26.778 h -41.586 z"
         transform="translate(-395.18598,-467.50601)"
         id="path4376-1" /></clipPath><clipPath
       clipPathUnits="userSpaceOnUse"
       id="clipPath4378-5"><path
         d="m 375.244,456.034 h 41.586 v 26.778 h -41.586 z"
         transform="translate(-386.78298,-460.70301)"
         id="path4378-9" /></clipPath><clipPath
       clipPathUnits="userSpaceOnUse"
       id="clipPath4380-4"><path
         d="m 375.244,456.034 h 41.586 v 26.778 h -41.586 z"
         transform="translate(-377.08203,-475.04601)"
         id="path4380-9" /></clipPath><clipPath
       clipPathUnits="userSpaceOnUse"
       id="clipPath4382-0"><path
         d="m 375.244,456.034 h 41.586 v 26.778 h -41.586 z"
         transform="translate(-385.14701,-475.04601)"
         id="path4382-9" /></clipPath><clipPath
       clipPathUnits="userSpaceOnUse"
       id="clipPath4510"><path
         d="m 476.075,411.308 h 19.614 v 10.801 h -19.614 z"
         transform="translate(-484.87601,-416.70801)"
         id="path4510" /></clipPath><clipPath
       clipPathUnits="userSpaceOnUse"
       id="clipPath4512"><path
         d="m 476.075,411.308 h 19.614 v 10.801 h -19.614 z"
         transform="translate(-484.87601,-416.70801)"
         id="path4512" /></clipPath><clipPath
       clipPathUnits="userSpaceOnUse"
       id="clipPath4514"><path
         d="m 476.075,411.308 h 19.614 v 10.801 h -19.614 z"
         transform="translate(-481.47604,-413.30801)"
         id="path4514" /></clipPath><clipPath
       clipPathUnits="userSpaceOnUse"
       id="clipPath4516"><path
         d="m 476.075,411.308 h 19.614 v 10.801 h -19.614 z"
         transform="translate(-495.68801,-416.70901)"
         id="path4516" /></clipPath><clipPath
       clipPathUnits="userSpaceOnUse"
       id="clipPath4518"><path
         d="m 476.075,411.308 h 19.614 v 10.801 h -19.614 z"
         transform="translate(-493.64899,-416.70901)"
         id="path4518" /></clipPath><clipPath
       clipPathUnits="userSpaceOnUse"
       id="clipPath4520"><path
         d="m 476.075,411.308 h 19.614 v 10.801 h -19.614 z"
         transform="translate(-491.72299,-418.63601)"
         id="path4520" /></clipPath><clipPath
       clipPathUnits="userSpaceOnUse"
       id="clipPath4510-6"><path
         d="m 476.075,411.308 h 19.614 v 10.801 h -19.614 z"
         transform="translate(-484.87601,-416.70801)"
         id="path4510-7" /></clipPath><clipPath
       clipPathUnits="userSpaceOnUse"
       id="clipPath4512-3"><path
         d="m 476.075,411.308 h 19.614 v 10.801 h -19.614 z"
         transform="translate(-484.87601,-416.70801)"
         id="path4512-6" /></clipPath><clipPath
       clipPathUnits="userSpaceOnUse"
       id="clipPath4514-5"><path
         d="m 476.075,411.308 h 19.614 v 10.801 h -19.614 z"
         transform="translate(-481.47604,-413.30801)"
         id="path4514-6" /></clipPath><clipPath
       clipPathUnits="userSpaceOnUse"
       id="clipPath4516-8"><path
         d="m 476.075,411.308 h 19.614 v 10.801 h -19.614 z"
         transform="translate(-495.68801,-416.70901)"
         id="path4516-1" /></clipPath><clipPath
       clipPathUnits="userSpaceOnUse"
       id="clipPath4518-2"><path
         d="m 476.075,411.308 h 19.614 v 10.801 h -19.614 z"
         transform="translate(-493.64899,-416.70901)"
         id="path4518-9" /></clipPath><clipPath
       clipPathUnits="userSpaceOnUse"
       id="clipPath4520-3"><path
         d="m 476.075,411.308 h 19.614 v 10.801 h -19.614 z"
         transform="translate(-491.72299,-418.63601)"
         id="path4520-9" /></clipPath><clipPath
       clipPathUnits="userSpaceOnUse"
       id="clipPath5812"><path
         d="m 273.283,303.047 h 12.504 v 12.504 h -12.504 z"
         transform="translate(-283.78698,-309.29801)"
         id="path5812" /></clipPath><clipPath
       clipPathUnits="userSpaceOnUse"
       id="clipPath4524"><path
         d="m 92.984,303.031 h 11.37 v 11.371 h -11.37 z"
         transform="translate(-102.35403,-308.71701)"
         id="path4524" /></clipPath><clipPath
       clipPathUnits="userSpaceOnUse"
       id="clipPath4384"><path
         d="m 56.072,311.551 h 22.94 v 22.677 h -22.94 z"
         transform="translate(-76.612377,-322.89101)"
         id="path4384" /></clipPath><clipPath
       clipPathUnits="userSpaceOnUse"
       id="clipPath4386"><path
         d="m 56.072,311.551 h 22.94 v 22.677 h -22.94 z"
         transform="translate(-64.888527,-321.16401)"
         id="path4386" /></clipPath><clipPath
       clipPathUnits="userSpaceOnUse"
       id="clipPath4388"><path
         d="m 56.072,311.551 h 22.94 v 22.677 h -22.94 z"
         transform="translate(-68.226777,-318.91801)"
         id="path4388" /></clipPath><clipPath
       clipPathUnits="userSpaceOnUse"
       id="clipPath4358"><path
         d="m 215.042,459.341 h 22.941 v 22.942 h -22.941 z"
         transform="translate(-235.58201,-470.81301)"
         id="path4358" /></clipPath><clipPath
       clipPathUnits="userSpaceOnUse"
       id="clipPath4360"><path
         d="m 215.042,459.341 h 22.941 v 22.942 h -22.941 z"
         transform="translate(-2.5000001e-5)"
         id="path4360" /></clipPath><clipPath
       clipPathUnits="userSpaceOnUse"
       id="clipPath4362"><path
         d="m 215.042,459.341 h 22.941 v 22.942 h -22.941 z"
         transform="translate(-225.97998,-466.84101)"
         id="path4362" /></clipPath><clipPath
       clipPathUnits="userSpaceOnUse"
       id="clipPath4352"><path
         d="m 59.614,459.341 h 22.94 v 22.942 h -22.94 z"
         transform="translate(-80.154327,-470.81301)"
         id="path4352" /></clipPath><clipPath
       clipPathUnits="userSpaceOnUse"
       id="clipPath4354"><path
         d="m 59.614,459.341 h 22.94 v 22.942 h -22.94 z"
         transform="translate(-2.5000001e-5)"
         id="path4354" /></clipPath><clipPath
       clipPathUnits="userSpaceOnUse"
       id="clipPath4356"><path
         d="m 59.614,459.341 h 22.94 v 22.942 h -22.94 z"
         transform="translate(-70.011402,-466.84001)"
         id="path4356" /></clipPath><clipPath
       clipPathUnits="userSpaceOnUse"
       id="clipPath4402"><path
         d="m 56.072,239.268 h 22.94 v 22.677 h -22.94 z"
         transform="translate(-76.612302,-250.60701)"
         id="path4402" /></clipPath><clipPath
       clipPathUnits="userSpaceOnUse"
       id="clipPath4404"><path
         d="m 56.072,239.268 h 22.94 v 22.677 h -22.94 z"
         transform="translate(-2.5000001e-5)"
         id="path4404" /></clipPath><clipPath
       clipPathUnits="userSpaceOnUse"
       id="clipPath4406"><path
         d="m 56.072,239.268 h 22.94 v 22.677 h -22.94 z"
         transform="translate(-67.010427,-246.63501)"
         id="path4406" /></clipPath><clipPath
       clipPathUnits="userSpaceOnUse"
       id="clipPath4408"><path
         d="m 216.459,311.561 h 22.94 v 22.942 h -22.94 z"
         transform="translate(-236.99898,-323.03301)"
         id="path4408" /></clipPath><clipPath
       clipPathUnits="userSpaceOnUse"
       id="clipPath4410"><path
         d="m 216.459,311.561 h 22.94 v 22.942 h -22.94 z"
         transform="translate(-225.27603,-321.30501)"
         id="path4410" /></clipPath><clipPath
       clipPathUnits="userSpaceOnUse"
       id="clipPath4412"><path
         d="m 216.459,311.561 h 22.94 v 22.942 h -22.94 z"
         transform="translate(-232.10703,-320.11001)"
         id="path4412" /></clipPath><clipPath
       clipPathUnits="userSpaceOnUse"
       id="clipPath4426"><path
         d="m 375.483,311.56 h 39.267 v 22.943 h -39.267 z"
         transform="translate(-412.35004,-323.03201)"
         id="path4426" /></clipPath><clipPath
       clipPathUnits="userSpaceOnUse"
       id="clipPath4428"><path
         d="m 375.483,311.56 h 39.267 v 22.943 h -39.267 z"
         transform="translate(-400.62604,-321.30601)"
         id="path4428" /></clipPath><clipPath
       clipPathUnits="userSpaceOnUse"
       id="clipPath4430"><path
         d="m 375.483,311.56 h 39.267 v 22.943 h -39.267 z"
         transform="translate(-403.96399,-319.06001)"
         id="path4430" /></clipPath><clipPath
       clipPathUnits="userSpaceOnUse"
       id="clipPath4432"><path
         d="m 375.483,311.56 h 39.267 v 22.943 h -39.267 z"
         transform="translate(-396.02298,-323.03201)"
         id="path4432" /></clipPath><clipPath
       clipPathUnits="userSpaceOnUse"
       id="clipPath4434"><path
         d="m 375.483,311.56 h 39.267 v 22.943 h -39.267 z"
         transform="translate(-2.5000001e-5)"
         id="path4434" /></clipPath><clipPath
       clipPathUnits="userSpaceOnUse"
       id="clipPath4436"><path
         d="m 375.483,311.56 h 39.267 v 22.943 h -39.267 z"
         transform="translate(-386.42103,-319.06001)"
         id="path4436" /></clipPath><clipPath
       clipPathUnits="userSpaceOnUse"
       id="clipPath4426-7"><path
         d="m 375.483,311.56 h 39.267 v 22.943 h -39.267 z"
         transform="translate(-412.35004,-323.03201)"
         id="path4426-5" /></clipPath><clipPath
       clipPathUnits="userSpaceOnUse"
       id="clipPath4428-9"><path
         d="m 375.483,311.56 h 39.267 v 22.943 h -39.267 z"
         transform="translate(-400.62604,-321.30601)"
         id="path4428-6" /></clipPath><clipPath
       clipPathUnits="userSpaceOnUse"
       id="clipPath4430-2"><path
         d="m 375.483,311.56 h 39.267 v 22.943 h -39.267 z"
         transform="translate(-403.96399,-319.06001)"
         id="path4430-1" /></clipPath><clipPath
       clipPathUnits="userSpaceOnUse"
       id="clipPath4432-7"><path
         d="m 375.483,311.56 h 39.267 v 22.943 h -39.267 z"
         transform="translate(-396.02298,-323.03201)"
         id="path4432-8" /></clipPath><clipPath
       clipPathUnits="userSpaceOnUse"
       id="clipPath4434-5"><path
         d="m 375.483,311.56 h 39.267 v 22.943 h -39.267 z"
         transform="translate(-2.5000001e-5)"
         id="path4434-7" /></clipPath><clipPath
       clipPathUnits="userSpaceOnUse"
       id="clipPath4436-4"><path
         d="m 375.483,311.56 h 39.267 v 22.943 h -39.267 z"
         transform="translate(-386.42103,-319.06001)"
         id="path4436-1" /></clipPath><clipPath
       clipPathUnits="userSpaceOnUse"
       id="clipPath4414"><path
         d="m 375.483,284.206 h 39.267 v 22.942 h -39.267 z"
         transform="translate(-412.35004,-295.678)"
         id="path4414" /></clipPath><clipPath
       clipPathUnits="userSpaceOnUse"
       id="clipPath4416"><path
         d="m 375.483,284.206 h 39.267 v 22.942 h -39.267 z"
         transform="translate(-400.62604,-293.95101)"
         id="path4416" /></clipPath><clipPath
       clipPathUnits="userSpaceOnUse"
       id="clipPath4418"><path
         d="m 375.483,284.206 h 39.267 v 22.942 h -39.267 z"
         transform="translate(-403.42301,-291.70501)"
         id="path4418" /></clipPath><clipPath
       clipPathUnits="userSpaceOnUse"
       id="clipPath4420"><path
         d="m 375.483,284.206 h 39.267 v 22.942 h -39.267 z"
         transform="translate(-396.02298,-295.678)"
         id="path4420" /></clipPath><clipPath
       clipPathUnits="userSpaceOnUse"
       id="clipPath4422"><path
         d="m 375.483,284.206 h 39.267 v 22.942 h -39.267 z"
         transform="translate(-2.5000001e-5)"
         id="path4422" /></clipPath><clipPath
       clipPathUnits="userSpaceOnUse"
       id="clipPath4424"><path
         d="m 375.483,284.206 h 39.267 v 22.942 h -39.267 z"
         transform="translate(-385.87998,-291.70501)"
         id="path4424" /></clipPath><clipPath
       clipPathUnits="userSpaceOnUse"
       id="clipPath7643"><path
         d="m 71.166,464.989 h 45.154 v 18.543 H 71.166 Z"
         transform="translate(-82.704777,-474.26001)"
         id="path7643" /></clipPath><clipPath
       clipPathUnits="userSpaceOnUse"
       id="clipPath7645"><path
         d="m 71.166,464.989 h 45.154 v 18.543 H 71.166 Z"
         transform="translate(-77.035302,-483.33101)"
         id="path7645" /></clipPath><clipPath
       clipPathUnits="userSpaceOnUse"
       id="clipPath7647"><path
         d="m 71.166,464.989 h 45.154 v 18.543 H 71.166 Z"
         transform="translate(-71.365677,-474.26001)"
         id="path7647" /></clipPath><clipPath
       clipPathUnits="userSpaceOnUse"
       id="clipPath7649"><path
         d="m 71.166,464.989 h 45.154 v 18.543 H 71.166 Z"
         transform="translate(-77.035302,-474.26001)"
         id="path7649" /></clipPath><clipPath
       clipPathUnits="userSpaceOnUse"
       id="clipPath7651"><path
         d="m 71.166,464.989 h 45.154 v 18.543 H 71.166 Z"
         transform="translate(-82.704777,-467.45701)"
         id="path7651" /></clipPath><clipPath
       clipPathUnits="userSpaceOnUse"
       id="clipPath4438"><path
         d="M 59.246,182.798 H 96.849 V 205.74 H 59.246 Z"
         transform="translate(-94.449402,-194.27001)"
         id="path4438" /></clipPath><clipPath
       clipPathUnits="userSpaceOnUse"
       id="clipPath4440"><path
         d="M 59.246,182.798 H 96.849 V 205.74 H 59.246 Z"
         transform="translate(-82.725177,-192.543)"
         id="path4440" /></clipPath><clipPath
       clipPathUnits="userSpaceOnUse"
       id="clipPath4442"><path
         d="M 59.246,182.798 H 96.849 V 205.74 H 59.246 Z"
         transform="translate(-87.706377,-190.23501)"
         id="path4442" /></clipPath><clipPath
       clipPathUnits="userSpaceOnUse"
       id="clipPath4444"><path
         d="M 59.246,182.798 H 96.849 V 205.74 H 59.246 Z"
         transform="translate(-79.187727,-194.30301)"
         id="path4444" /></clipPath><clipPath
       clipPathUnits="userSpaceOnUse"
       id="clipPath4446"><path
         d="M 59.246,182.798 H 96.849 V 205.74 H 59.246 Z"
         transform="translate(-70.785327,-187.501)"
         id="path4446" /></clipPath><clipPath
       clipPathUnits="userSpaceOnUse"
       id="clipPath4448"><path
         d="M 59.246,182.798 H 96.849 V 205.74 H 59.246 Z"
         transform="translate(-61.083777,-201.84301)"
         id="path4448" /></clipPath><clipPath
       clipPathUnits="userSpaceOnUse"
       id="clipPath4450"><path
         d="M 59.246,182.798 H 96.849 V 205.74 H 59.246 Z"
         transform="translate(-69.149427,-201.84301)"
         id="path4450" /></clipPath><clipPath
       clipPathUnits="userSpaceOnUse"
       id="clipPath4452"><path
         d="m 215.118,177.488 h 50.095 v 26.806 h -50.095 z"
         transform="translate(-258.12701,-188.961)"
         id="path4452" /></clipPath><clipPath
       clipPathUnits="userSpaceOnUse"
       id="clipPath4454"><path
         d="m 215.118,177.488 h 50.095 v 26.806 h -50.095 z"
         transform="translate(-244.21601,-184.978)"
         id="path4454" /></clipPath><clipPath
       clipPathUnits="userSpaceOnUse"
       id="clipPath4456"><path
         d="m 215.118,177.488 h 50.095 v 26.806 h -50.095 z"
         transform="translate(-2.5000001e-5)"
         id="path4456" /></clipPath><clipPath
       clipPathUnits="userSpaceOnUse"
       id="clipPath4458"><path
         d="m 215.118,177.488 h 50.095 v 26.806 h -50.095 z"
         transform="translate(-251.69403,-185.007)"
         id="path4458" /></clipPath><clipPath
       clipPathUnits="userSpaceOnUse"
       id="clipPath4460"><path
         d="m 215.118,177.488 h 50.095 v 26.806 h -50.095 z"
         transform="translate(-242.79003,-188.961)"
         id="path4460" /></clipPath><clipPath
       clipPathUnits="userSpaceOnUse"
       id="clipPath4462"><path
         d="m 215.118,177.488 h 50.095 v 26.806 h -50.095 z"
         transform="translate(-235.66001,-188.96001)"
         id="path4462" /></clipPath><clipPath
       clipPathUnits="userSpaceOnUse"
       id="clipPath4464"><path
         d="m 215.118,177.488 h 50.095 v 26.806 h -50.095 z"
         transform="translate(-226.72398,-182.928)"
         id="path4464" /></clipPath><clipPath
       clipPathUnits="userSpaceOnUse"
       id="clipPath4466"><path
         d="m 215.118,177.488 h 50.095 v 26.806 h -50.095 z"
         transform="translate(-262.81301,-197.52)"
         id="path4466" /></clipPath><radialGradient
       fx="0"
       fy="0"
       cx="0"
       cy="0"
       r="1"
       gradientUnits="userSpaceOnUse"
       gradientTransform="matrix(0.80002235,0,0,0.80002235,107.78045,161.6145)"
       spreadMethod="pad"
       id="radialGradient4468"><stop
         style="stop-opacity:1;stop-color:#fff200"
         offset="0"
         id="stop4466" /><stop
         style="stop-opacity:1;stop-color:#fff200"
         offset="0.79908705"
         id="stop4467" /><stop
         style="stop-opacity:1;stop-color:#b0a600"
         offset="1"
         id="stop4468" /></radialGradient><clipPath
       clipPathUnits="userSpaceOnUse"
       id="clipPath4470"><path
         d="m 215.118,177.488 h 50.095 v 26.806 h -50.095 z"
         transform="translate(-255.43803,-200.69401)"
         id="path4470" /></clipPath></defs><g
     inkscape:label="Layer 1"
     inkscape:groupmode="layer"
     id="layer1"
     transform="translate(-93.132404,-159.85977)"><path
       id="path4451"
       d="m 0,0 c 0,-5.01 -4.059,-9.071 -9.07,-9.071 -5.01,0 -9.071,4.061 -9.071,9.071 0,5.009 4.061,9.07 9.071,9.07 C -4.059,9.07 0,5.009 0,0"
       style="fill:#ffffff;fill-opacity:1;fill-rule:nonzero;stroke:#231f20;stroke-width:1.2;stroke-linecap:butt;stroke-linejoin:miter;stroke-miterlimit:4;stroke-dasharray:none;stroke-opacity:1"
       transform="matrix(0.35277776,0,0,-0.35277776,107.67002,164.63392)"
       clip-path="url(#clipPath4452)" /><path
       id="path4453"
       d="m 0,0 c -0.413,0 -0.749,0.336 -0.749,0.749 0,0.413 0.336,0.758 0.749,0.758 0.412,0 0.759,-0.345 0.759,-0.758 C 0.759,0.336 0.412,0 0,0 Z M 1.507,3.802 0.797,2.861 C 0.701,2.736 0.624,2.534 0.624,2.371 V 2.17 h -1.248 v 0.288 c 0,0.412 0.115,0.672 0.365,0.998 l 0.71,0.912 C 0.605,4.57 0.73,4.8 0.73,5.012 c 0,0.45 -0.298,0.786 -0.778,0.786 -0.509,0 -0.768,-0.355 -0.768,-0.796 h -1.248 c 0,1.19 0.902,1.92 2.016,1.92 1.085,0 2.025,-0.701 2.025,-1.92 0,-0.48 -0.201,-0.845 -0.47,-1.2 z"
       style="fill:none;stroke:#ed1c24;stroke-width:0.4;stroke-linecap:butt;stroke-linejoin:miter;stroke-miterlimit:4;stroke-dasharray:none;stroke-opacity:1"
       transform="matrix(0.35277776,0,0,-0.35277776,102.76253,166.03903)"
       clip-path="url(#clipPath4454)" /><path
       id="path4455"
       d="m 247.106,188.329 h 2.957 v -1.162 h -2.957 z"
       style="fill:#231f20;fill-opacity:1;fill-rule:nonzero;stroke:none"
       transform="matrix(0.35277776,0,0,-0.35277776,16.608563,231.29516)"
       clip-path="url(#clipPath4456)" /><path
       id="path4457"
       d="M 0,0 V 1.056 H 1.152 V 5.491 L -0.24,4.282 V 5.626 L 1.152,6.835 H 2.4 V 1.056 H 3.466 V 0 Z"
       style="fill:#231f20;fill-opacity:1;fill-rule:nonzero;stroke:none"
       transform="matrix(0.35277776,0,0,-0.35277776,105.40061,166.0288)"
       clip-path="url(#clipPath4458)" /><path
       id="path4459"
       d="M 0,0 -5.322,7.408 V 5.323 h -6.55 V -5.323 h 6.55 v -2.008 z"
       style="fill:#ed1c24;fill-opacity:1;fill-rule:nonzero;stroke:none"
       transform="matrix(0.35277776,0,0,-0.35277776,102.25948,164.63392)"
       clip-path="url(#clipPath4460)" /><path
       id="path4461"
       d="m 0,0 c 0,-5.01 -4.061,-9.072 -9.07,-9.072 -5.011,0 -9.072,4.062 -9.072,9.072 0,5.009 4.061,9.07 9.072,9.07 C -4.061,9.07 0,5.009 0,0"
       style="fill:#ffffff;fill-opacity:1;fill-rule:nonzero;stroke:#ed1c24;stroke-width:1.2;stroke-linecap:butt;stroke-linejoin:miter;stroke-miterlimit:4;stroke-dasharray:none;stroke-opacity:1"
       transform="matrix(0.35277776,0,0,-0.35277776,99.744165,164.63427)"
       clip-path="url(#clipPath4462)" /><path
       id="path4463"
       d="M 0,0 C -0.732,0 -1.329,0.596 -1.329,1.328 -1.329,2.06 -0.732,2.673 0,2.673 0.732,2.673 1.345,2.06 1.345,1.328 1.345,0.596 0.732,0 0,0 Z M 2.674,6.745 1.414,5.075 C 1.243,4.854 1.107,4.496 1.107,4.206 V 3.848 h -2.214 v 0.511 c 0,0.733 0.204,1.193 0.647,1.772 L 0.8,7.749 c 0.273,0.358 0.494,0.767 0.494,1.141 0,0.801 -0.528,1.397 -1.379,1.397 -0.903,0 -1.363,-0.631 -1.363,-1.414 h -2.214 c 0,2.112 1.601,3.407 3.577,3.407 1.924,0 3.593,-1.244 3.593,-3.407 0,-0.851 -0.357,-1.499 -0.834,-2.128 z"
       style="fill:none;stroke:#ed1c24;stroke-width:0.4;stroke-linecap:butt;stroke-linejoin:miter;stroke-miterlimit:4;stroke-dasharray:none;stroke-opacity:1"
       transform="matrix(0.35277776,0,0,-0.35277776,96.591734,166.76222)"
       clip-path="url(#clipPath4464)" /><path
       id="path4465"
       d="m 0,0 c 0,2.415 -1.958,4.373 -4.372,4.374 -2.416,0 -4.373,-1.958 -4.373,-4.373 0,-2.415 1.957,-4.373 4.373,-4.373 C -1.958,-4.372 0,-2.414 0,0"
       style="fill:#ffffff;fill-opacity:1;fill-rule:nonzero;stroke:#ed1c24;stroke-width:1.2;stroke-linecap:butt;stroke-linejoin:miter;stroke-miterlimit:4;stroke-dasharray:none;stroke-opacity:1"
       transform="matrix(0.35277776,0,0,-0.35277776,109.32314,161.61449)"
       clip-path="url(#clipPath4466)" /><path
       id="path4468"
       d="m 107.78009,160.8144 c -0.44132,0 -0.79974,0.35842 -0.79939,0.8001 v 0 c -3.5e-4,0.44167 0.35807,0.79974 0.79939,0.8001 v 0 c 0.44204,-3.6e-4 0.8001,-0.35843 0.8001,-0.8001 v 0 c 0,-0.44133 -0.35771,-0.8001 -0.79939,-0.8001 v 0 c -3.5e-4,0 -3.5e-4,0 -7.1e-4,0"
       style="fill:url(#radialGradient4468);stroke:none;stroke-width:0.352778" /><path
       id="path4469"
       d="M 0,0 6.179,-6.179"
       style="fill:none;stroke:#ed1c24;stroke-width:1.2;stroke-linecap:butt;stroke-linejoin:miter;stroke-miterlimit:4;stroke-dasharray:none;stroke-opacity:1"
       transform="matrix(0.35277776,0,0,-0.35277776,106.72141,160.49477)"
       clip-path="url(#clipPath4470)" /></g></svg>
