<?xml version="1.0" encoding="UTF-8" standalone="no"?>
<!-- Created with Inkscape (http://www.inkscape.org/) -->

<svg
   width="17.752491mm"
   height="6.5407557mm"
   viewBox="0 0 17.752492 6.5407557"
   version="1.1"
   id="svg1"
   inkscape:version="1.3 (0e150ed6c4, 2023-07-21)"
   sodipodi:docname="discard-all-goods-to-get-1-less-than-the-amount-discarded.svg"
   xmlns:inkscape="http://www.inkscape.org/namespaces/inkscape"
   xmlns:sodipodi="http://sodipodi.sourceforge.net/DTD/sodipodi-0.dtd"
   xmlns="http://www.w3.org/2000/svg"
   xmlns:svg="http://www.w3.org/2000/svg">
  <sodipodi:namedview
     id="namedview1"
     pagecolor="#ffffff"
     bordercolor="#000000"
     borderopacity="0.25"
     inkscape:showpageshadow="2"
     inkscape:pageopacity="0.0"
     inkscape:pagecheckerboard="0"
     inkscape:deskcolor="#d1d1d1"
     inkscape:document-units="mm"
     inkscape:zoom="13.189825"
     inkscape:cx="24.261125"
     inkscape:cy="15.011571"
     inkscape:window-width="1920"
     inkscape:window-height="1013"
     inkscape:window-x="0"
     inkscape:window-y="30"
     inkscape:window-maximized="1"
     inkscape:current-layer="layer1" />
  <defs
     id="defs1">
    <clipPath
       clipPathUnits="userSpaceOnUse"
       id="clipPath8909">
      <path
         d="m 374.521,525.867 h 32.856 v 19.742 h -32.856 z"
         transform="translate(-386.65998,-528.93601)"
         id="path8909" />
    </clipPath>
    <clipPath
       clipPathUnits="userSpaceOnUse"
       id="clipPath8911">
      <path
         d="m 374.521,525.867 h 32.856 v 19.742 h -32.856 z"
         transform="translate(-405.57799,-528.93601)"
         id="path8911" />
    </clipPath>
    <clipPath
       clipPathUnits="userSpaceOnUse"
       id="clipPath8913">
      <path
         d="m 374.521,525.867 h 32.856 v 19.742 h -32.856 z"
         transform="translate(-407.17699,-538.33901)"
         id="path8913" />
    </clipPath>
    <clipPath
       clipPathUnits="userSpaceOnUse"
       id="clipPath8915">
      <path
         d="m 374.521,525.867 h 32.856 v 19.742 h -32.856 z"
         transform="translate(-407.17699,-536.07202)"
         id="path8915" />
    </clipPath>
    <clipPath
       clipPathUnits="userSpaceOnUse"
       id="clipPath8917">
      <path
         d="m 374.521,525.867 h 32.856 v 19.742 h -32.856 z"
         transform="translate(-407.17699,-533.80301)"
         id="path8917" />
    </clipPath>
    <clipPath
       clipPathUnits="userSpaceOnUse"
       id="clipPath8919">
      <path
         d="m 374.521,525.867 h 32.856 v 19.742 h -32.856 z"
         transform="translate(-407.17699,-531.53602)"
         id="path8919" />
    </clipPath>
    <clipPath
       clipPathUnits="userSpaceOnUse"
       id="clipPath8921">
      <path
         d="m 374.521,525.867 h 32.856 v 19.742 h -32.856 z"
         transform="translate(-396.50703,-541.74101)"
         id="path8921" />
    </clipPath>
    <clipPath
       clipPathUnits="userSpaceOnUse"
       id="clipPath8923">
      <path
         d="m 374.521,525.867 h 32.856 v 19.742 h -32.856 z"
         transform="translate(-398.36403,-532.27102)"
         id="path8923" />
    </clipPath>
    <clipPath
       clipPathUnits="userSpaceOnUse"
       id="clipPath8925">
      <path
         d="m 374.521,525.867 h 32.856 v 19.742 h -32.856 z"
         transform="translate(-396.50703,-535.73801)"
         id="path8925" />
    </clipPath>
    <clipPath
       clipPathUnits="userSpaceOnUse"
       id="clipPath9173">
      <path
         d="m 374.521,503.19 h 34.483 v 19.742 h -34.483 z"
         transform="translate(-386.65998,-506.25901)"
         id="path9173" />
    </clipPath>
    <clipPath
       clipPathUnits="userSpaceOnUse"
       id="clipPath9175">
      <path
         d="m 374.521,503.19 h 34.483 v 19.742 h -34.483 z"
         transform="translate(-396.26501,-513.06001)"
         id="path9175" />
    </clipPath>
    <clipPath
       clipPathUnits="userSpaceOnUse"
       id="clipPath9177">
      <path
         d="m 374.521,480.513 h 45.754 v 19.742 h -45.754 z"
         transform="translate(-386.65998,-483.58201)"
         id="path9177" />
    </clipPath>
    <clipPath
       clipPathUnits="userSpaceOnUse"
       id="clipPath9179">
      <path
         d="m 374.521,480.513 h 45.754 v 19.742 h -45.754 z"
         transform="translate(-418.47604,-483.58201)"
         id="path9179" />
    </clipPath>
    <clipPath
       clipPathUnits="userSpaceOnUse"
       id="clipPath9181">
      <path
         d="m 374.521,480.513 h 45.754 v 19.742 h -45.754 z"
         transform="translate(-420.07504,-492.98501)"
         id="path9181" />
    </clipPath>
    <clipPath
       clipPathUnits="userSpaceOnUse"
       id="clipPath9183">
      <path
         d="m 374.521,480.513 h 45.754 v 19.742 h -45.754 z"
         transform="translate(-420.07504,-490.71801)"
         id="path9183" />
    </clipPath>
    <clipPath
       clipPathUnits="userSpaceOnUse"
       id="clipPath9185">
      <path
         d="m 374.521,480.513 h 45.754 v 19.742 h -45.754 z"
         transform="translate(-420.07504,-488.44901)"
         id="path9185" />
    </clipPath>
    <clipPath
       clipPathUnits="userSpaceOnUse"
       id="clipPath9187">
      <path
         d="m 374.521,480.513 h 45.754 v 19.742 h -45.754 z"
         transform="translate(-420.07504,-486.18201)"
         id="path9187" />
    </clipPath>
    <clipPath
       clipPathUnits="userSpaceOnUse"
       id="clipPath9189">
      <path
         d="m 374.521,480.513 h 45.754 v 19.742 h -45.754 z"
         transform="translate(-409.40599,-496.38701)"
         id="path9189" />
    </clipPath>
    <clipPath
       clipPathUnits="userSpaceOnUse"
       id="clipPath9191">
      <path
         d="m 374.521,480.513 h 45.754 v 19.742 h -45.754 z"
         transform="translate(-411.26201,-486.91601)"
         id="path9191" />
    </clipPath>
    <clipPath
       clipPathUnits="userSpaceOnUse"
       id="clipPath9193">
      <path
         d="m 374.521,480.513 h 45.754 v 19.742 h -45.754 z"
         transform="translate(-395.19903,-482.52901)"
         id="path9193" />
    </clipPath>
    <clipPath
       clipPathUnits="userSpaceOnUse"
       id="clipPath9195">
      <path
         d="m 374.521,480.513 h 45.754 v 19.742 h -45.754 z"
         transform="translate(-398.34603,-487.35301)"
         id="path9195" />
    </clipPath>
    <clipPath
       clipPathUnits="userSpaceOnUse"
       id="clipPath9197">
      <path
         d="m 374.521,480.513 h 45.754 v 19.742 h -45.754 z"
         transform="translate(-396.26501,-490.38301)"
         id="path9197" />
    </clipPath>
    <clipPath
       clipPathUnits="userSpaceOnUse"
       id="clipPath9222">
      <path
         d="m 372.206,435.443 h 36.803 v 19.458 h -36.803 z"
         transform="translate(-399.73901,-441.94501)"
         id="path9222" />
    </clipPath>
    <clipPath
       clipPathUnits="userSpaceOnUse"
       id="clipPath9224">
      <path
         d="m 372.206,435.443 h 36.803 v 19.458 h -36.803 z"
         transform="translate(-382.92701,-438.22701)"
         id="path9224" />
    </clipPath>
    <clipPath
       clipPathUnits="userSpaceOnUse"
       id="clipPath9226">
      <path
         d="m 372.206,435.443 h 36.803 v 19.458 h -36.803 z"
         transform="translate(-387.17898,-440.21201)"
         id="path9226" />
    </clipPath>
    <clipPath
       clipPathUnits="userSpaceOnUse"
       id="clipPath9228">
      <path
         d="m 372.206,435.443 h 36.803 v 19.458 h -36.803 z"
         transform="translate(-396.26801,-445.02901)"
         id="path9228" />
    </clipPath>
    <clipPath
       clipPathUnits="userSpaceOnUse"
       id="clipPath8930">
      <path
         d="m 57.384,388.311 h 33.884 v 18.543 H 57.384 Z"
         transform="translate(-68.923527,-397.58201)"
         id="path8930" />
    </clipPath>
    <clipPath
       clipPathUnits="userSpaceOnUse"
       id="clipPath8932">
      <path
         d="m 57.384,388.311 h 33.884 v 18.543 H 57.384 Z"
         transform="translate(-63.253977,-406.65401)"
         id="path8932" />
    </clipPath>
    <clipPath
       clipPathUnits="userSpaceOnUse"
       id="clipPath8934">
      <path
         d="m 57.384,388.311 h 33.884 v 18.543 H 57.384 Z"
         transform="translate(-57.584426,-397.58201)"
         id="path8934" />
    </clipPath>
    <clipPath
       clipPathUnits="userSpaceOnUse"
       id="clipPath8936">
      <path
         d="m 57.384,388.311 h 33.884 v 18.543 H 57.384 Z"
         transform="translate(-63.253977,-397.58201)"
         id="path8936" />
    </clipPath>
    <clipPath
       clipPathUnits="userSpaceOnUse"
       id="clipPath8938">
      <path
         d="m 57.384,388.311 h 33.884 v 18.543 H 57.384 Z"
         transform="translate(-68.923527,-390.78001)"
         id="path8938" />
    </clipPath>
    <clipPath
       clipPathUnits="userSpaceOnUse"
       id="clipPath8940">
      <path
         d="m 57.384,388.311 h 33.884 v 18.543 H 57.384 Z"
         transform="translate(-78.528177,-397.58201)"
         id="path8940" />
    </clipPath>
    <clipPath
       clipPathUnits="userSpaceOnUse"
       id="clipPath8942">
      <path
         d="m 57.384,388.311 h 33.884 v 18.543 H 57.384 Z"
         transform="translate(-70.374702,-395.75301)"
         id="path8942" />
    </clipPath>
    <clipPath
       clipPathUnits="userSpaceOnUse"
       id="clipPath8944">
      <path
         d="m 57.384,388.311 h 33.884 v 18.543 H 57.384 Z"
         transform="translate(-71.827377,-395.75301)"
         id="path8944" />
    </clipPath>
    <clipPath
       clipPathUnits="userSpaceOnUse"
       id="clipPath8949">
      <path
         d="m 56.783,364.434 h 34.484 v 19.742 H 56.783 Z"
         transform="translate(-68.922102,-367.50301)"
         id="path8949" />
    </clipPath>
    <clipPath
       clipPathUnits="userSpaceOnUse"
       id="clipPath8951">
      <path
         d="m 56.783,364.434 h 34.484 v 19.742 H 56.783 Z"
         transform="translate(-78.527877,-374.30401)"
         id="path8951" />
    </clipPath>
    <clipPath
       clipPathUnits="userSpaceOnUse"
       id="clipPath8953">
      <path
         d="m 56.783,364.434 h 34.484 v 19.742 H 56.783 Z"
         transform="translate(-70.374027,-372.47601)"
         id="path8953" />
    </clipPath>
    <clipPath
       clipPathUnits="userSpaceOnUse"
       id="clipPath8955">
      <path
         d="m 56.783,364.434 h 34.484 v 19.742 H 56.783 Z"
         transform="translate(-71.826777,-372.47601)"
         id="path8955" />
    </clipPath>
    <clipPath
       clipPathUnits="userSpaceOnUse"
       id="clipPath8960">
      <path
         d="m 56.783,341.757 h 34.484 v 19.742 H 56.783 Z"
         transform="translate(-68.922102,-344.82601)"
         id="path8960" />
    </clipPath>
    <clipPath
       clipPathUnits="userSpaceOnUse"
       id="clipPath8962">
      <path
         d="m 56.783,341.757 h 34.484 v 19.742 H 56.783 Z"
         transform="translate(-78.527502,-351.62801)"
         id="path8962" />
    </clipPath>
    <clipPath
       clipPathUnits="userSpaceOnUse"
       id="clipPath8964">
      <path
         d="m 56.783,341.757 h 34.484 v 19.742 H 56.783 Z"
         transform="translate(-70.374027,-349.79901)"
         id="path8964" />
    </clipPath>
    <clipPath
       clipPathUnits="userSpaceOnUse"
       id="clipPath8966">
      <path
         d="m 56.783,341.757 h 34.484 v 19.742 H 56.783 Z"
         transform="translate(-73.170477,-349.76001)"
         id="path8966" />
    </clipPath>
    <clipPath
       clipPathUnits="userSpaceOnUse"
       id="clipPath8968">
      <path
         d="m 56.783,319.08 h 45.755 v 19.742 H 56.783 Z"
         transform="translate(-68.922102,-322.14901)"
         id="path8968" />
    </clipPath>
    <clipPath
       clipPathUnits="userSpaceOnUse"
       id="clipPath8970">
      <path
         d="m 56.783,319.08 h 45.755 v 19.742 H 56.783 Z"
         transform="translate(-100.73898,-322.14901)"
         id="path8970" />
    </clipPath>
    <clipPath
       clipPathUnits="userSpaceOnUse"
       id="clipPath8972">
      <path
         d="m 56.783,319.08 h 45.755 v 19.742 H 56.783 Z"
         transform="translate(-102.33798,-331.55201)"
         id="path8972" />
    </clipPath>
    <clipPath
       clipPathUnits="userSpaceOnUse"
       id="clipPath8974">
      <path
         d="m 56.783,319.08 h 45.755 v 19.742 H 56.783 Z"
         transform="translate(-102.33798,-329.28501)"
         id="path8974" />
    </clipPath>
    <clipPath
       clipPathUnits="userSpaceOnUse"
       id="clipPath8976">
      <path
         d="m 56.783,319.08 h 45.755 v 19.742 H 56.783 Z"
         transform="translate(-102.33798,-327.01601)"
         id="path8976" />
    </clipPath>
    <clipPath
       clipPathUnits="userSpaceOnUse"
       id="clipPath8978">
      <path
         d="m 56.783,319.08 h 45.755 v 19.742 H 56.783 Z"
         transform="translate(-102.33798,-324.74901)"
         id="path8978" />
    </clipPath>
    <clipPath
       clipPathUnits="userSpaceOnUse"
       id="clipPath8980">
      <path
         d="m 56.783,319.08 h 45.755 v 19.742 H 56.783 Z"
         transform="translate(-91.668927,-334.95301)"
         id="path8980" />
    </clipPath>
    <clipPath
       clipPathUnits="userSpaceOnUse"
       id="clipPath8982">
      <path
         d="m 56.783,319.08 h 45.755 v 19.742 H 56.783 Z"
         transform="translate(-93.525177,-325.48401)"
         id="path8982" />
    </clipPath>
    <clipPath
       clipPathUnits="userSpaceOnUse"
       id="clipPath8984">
      <path
         d="m 56.783,319.08 h 45.755 v 19.742 H 56.783 Z"
         transform="translate(-77.461077,-321.09601)"
         id="path8984" />
    </clipPath>
    <clipPath
       clipPathUnits="userSpaceOnUse"
       id="clipPath8986">
      <path
         d="m 56.783,319.08 h 45.755 v 19.742 H 56.783 Z"
         transform="translate(-80.608002,-325.92001)"
         id="path8986" />
    </clipPath>
    <clipPath
       clipPathUnits="userSpaceOnUse"
       id="clipPath8988">
      <path
         d="m 56.783,319.08 h 45.755 v 19.742 H 56.783 Z"
         transform="translate(-78.527502,-328.95001)"
         id="path8988" />
    </clipPath>
    <clipPath
       clipPathUnits="userSpaceOnUse"
       id="clipPath8990">
      <path
         d="m 56.783,319.08 h 45.755 v 19.742 H 56.783 Z"
         transform="translate(-70.374027,-327.12101)"
         id="path8990" />
    </clipPath>
    <clipPath
       clipPathUnits="userSpaceOnUse"
       id="clipPath8992">
      <path
         d="m 56.783,319.08 h 45.755 v 19.742 H 56.783 Z"
         transform="translate(-73.170477,-327.08301)"
         id="path8992" />
    </clipPath>
    <clipPath
       clipPathUnits="userSpaceOnUse"
       id="clipPath8994">
      <path
         d="m 214.523,388.097 h 50.576 v 18.971 h -50.576 z"
         transform="translate(-226.34801,-399.50401)"
         id="path8994" />
    </clipPath>
    <clipPath
       clipPathUnits="userSpaceOnUse"
       id="clipPath8996">
      <path
         d="m 214.523,388.097 h 50.576 v 18.971 h -50.576 z"
         transform="translate(-218.05698,-402.85301)"
         id="path8996" />
    </clipPath>
    <clipPath
       clipPathUnits="userSpaceOnUse"
       id="clipPath8998">
      <path
         d="m 214.523,388.097 h 50.576 v 18.971 h -50.576 z"
         transform="translate(-218.68001,-393.93301)"
         id="path8998" />
    </clipPath>
    <clipPath
       clipPathUnits="userSpaceOnUse"
       id="clipPath9000">
      <path
         d="m 214.523,388.097 h 50.576 v 18.971 h -50.576 z"
         transform="translate(-222.51401,-396.71901)"
         id="path9000" />
    </clipPath>
    <clipPath
       clipPathUnits="userSpaceOnUse"
       id="clipPath9002">
      <path
         d="m 214.523,388.097 h 50.576 v 18.971 h -50.576 z"
         transform="translate(-229.69001,-394.90401)"
         id="path9002" />
    </clipPath>
    <clipPath
       clipPathUnits="userSpaceOnUse"
       id="clipPath9004">
      <path
         d="m 214.523,388.097 h 50.576 v 18.971 h -50.576 z"
         transform="translate(-231.46998,-399.62701)"
         id="path9004" />
    </clipPath>
    <clipPath
       clipPathUnits="userSpaceOnUse"
       id="clipPath9006">
      <path
         d="m 214.523,388.097 h 50.576 v 18.971 h -50.576 z"
         transform="translate(-225.25901,-406.05901)"
         id="path9006" />
    </clipPath>
    <clipPath
       clipPathUnits="userSpaceOnUse"
       id="clipPath9008">
      <path
         d="m 214.523,388.097 h 50.576 v 18.971 h -50.576 z"
         transform="translate(-222.19901,-397.65701)"
         id="path9008" />
    </clipPath>
    <clipPath
       clipPathUnits="userSpaceOnUse"
       id="clipPath9010">
      <path
         d="m 214.523,388.097 h 50.576 v 18.971 h -50.576 z"
         transform="translate(-226.83498,-398.64301)"
         id="path9010" />
    </clipPath>
    <clipPath
       clipPathUnits="userSpaceOnUse"
       id="clipPath9012">
      <path
         d="m 214.523,388.097 h 50.576 v 18.971 h -50.576 z"
         transform="translate(-232.65198,-394.06601)"
         id="path9012" />
    </clipPath>
    <clipPath
       clipPathUnits="userSpaceOnUse"
       id="clipPath9014">
      <path
         d="m 214.523,388.097 h 50.576 v 18.971 h -50.576 z"
         transform="translate(-236.20001,-397.65701)"
         id="path9014" />
    </clipPath>
    <clipPath
       clipPathUnits="userSpaceOnUse"
       id="clipPath9016">
      <path
         d="m 214.523,388.097 h 50.576 v 18.971 h -50.576 z"
         transform="translate(-233.14098,-406.05901)"
         id="path9016" />
    </clipPath>
    <clipPath
       clipPathUnits="userSpaceOnUse"
       id="clipPath9018">
      <path
         d="m 214.523,388.097 h 50.576 v 18.971 h -50.576 z"
         transform="translate(-226.92903,-399.62801)"
         id="path9018" />
    </clipPath>
    <clipPath
       clipPathUnits="userSpaceOnUse"
       id="clipPath9020">
      <path
         d="m 214.523,388.097 h 50.576 v 18.971 h -50.576 z"
         transform="translate(-231.56403,-398.64301)"
         id="path9020" />
    </clipPath>
    <clipPath
       clipPathUnits="userSpaceOnUse"
       id="clipPath9022">
      <path
         d="m 214.523,388.097 h 50.576 v 18.971 h -50.576 z"
         transform="translate(-235.01801,-392.09601)"
         id="path9022" />
    </clipPath>
    <clipPath
       clipPathUnits="userSpaceOnUse"
       id="clipPath9024">
      <path
         d="m 214.523,388.097 h 50.576 v 18.971 h -50.576 z"
         transform="translate(-239.71803,-393.93301)"
         id="path9024" />
    </clipPath>
    <clipPath
       clipPathUnits="userSpaceOnUse"
       id="clipPath9026">
      <path
         d="m 214.523,388.097 h 50.576 v 18.971 h -50.576 z"
         transform="translate(-240.34098,-402.85301)"
         id="path9026" />
    </clipPath>
    <clipPath
       clipPathUnits="userSpaceOnUse"
       id="clipPath9028">
      <path
         d="m 214.523,388.097 h 50.576 v 18.971 h -50.576 z"
         transform="translate(-232.05003,-399.50401)"
         id="path9028" />
    </clipPath>
    <clipPath
       clipPathUnits="userSpaceOnUse"
       id="clipPath9030">
      <path
         d="m 214.523,388.097 h 50.576 v 18.971 h -50.576 z"
         transform="translate(-235.88501,-396.71901)"
         id="path9030" />
    </clipPath>
    <clipPath
       clipPathUnits="userSpaceOnUse"
       id="clipPath9032">
      <path
         d="m 214.523,388.097 h 50.576 v 18.971 h -50.576 z"
         transform="translate(-236.37603,-389.33301)"
         id="path9032" />
    </clipPath>
    <clipPath
       clipPathUnits="userSpaceOnUse"
       id="clipPath9034">
      <path
         d="m 214.523,388.097 h 50.576 v 18.971 h -50.576 z"
         transform="translate(-251.29301,-388.93301)"
         id="path9034" />
    </clipPath>
    <clipPath
       clipPathUnits="userSpaceOnUse"
       id="clipPath9036">
      <path
         d="m 214.523,388.097 h 50.576 v 18.971 h -50.576 z"
         transform="translate(-252.36003,-396.78801)"
         id="path9036" />
    </clipPath>
    <clipPath
       clipPathUnits="userSpaceOnUse"
       id="clipPath9038">
      <path
         d="m 214.523,388.097 h 50.576 v 18.971 h -50.576 z"
         transform="translate(-252.73503,-393.73101)"
         id="path9038" />
    </clipPath>
    <clipPath
       clipPathUnits="userSpaceOnUse"
       id="clipPath9040">
      <path
         d="m 214.523,388.097 h 50.576 v 18.971 h -50.576 z"
         transform="translate(-2.5e-5)"
         id="path9040" />
    </clipPath>
    <clipPath
       clipPathUnits="userSpaceOnUse"
       id="clipPath9042">
      <path
         d="m 214.523,388.097 h 50.576 v 18.971 h -50.576 z"
         transform="translate(-259.59003,-393.75801)"
         id="path9042" />
    </clipPath>
  </defs>
  <g
     inkscape:label="Layer 1"
     inkscape:groupmode="layer"
     id="layer1"
     transform="translate(-49.741617,-124.35415)">
    <path
       id="path8993"
       d="M 0,0 -3.342,4.601 C -3.958,5.447 -5.144,5.636 -5.99,5.02 l -2.301,-1.671 4.457,-6.134 z"
       style="fill:#daa566;fill-opacity:1;fill-rule:nonzero;stroke:none"
       transform="matrix(0.35277776,0,0,-0.35277776,53.82362,126.9606)"
       clip-path="url(#clipPath8994)" />
    <path
       id="path8995"
       d="M 0,0 -2.3,-1.671 C -3.147,-2.286 -3.334,-3.472 -2.72,-4.319 L 0.623,-8.92 4.457,-6.134 Z"
       style="fill:#80d6f7;fill-opacity:1;fill-rule:nonzero;stroke:none"
       transform="matrix(0.35277776,0,0,-0.35277776,50.89873,125.77915)"
       clip-path="url(#clipPath8996)" />
    <path
       id="path8997"
       d="m 0,0 3.342,-4.6 c 0.617,-0.848 1.801,-1.036 2.649,-0.42 l 2.3,1.671 -4.457,6.135 z"
       style="fill:#80cc28;fill-opacity:1;fill-rule:nonzero;stroke:none"
       transform="matrix(0.35277776,0,0,-0.35277776,51.11852,128.92593)"
       clip-path="url(#clipPath8998)" />
    <path
       id="path8999"
       d="m 0,0 4.456,-6.135 2.3,1.671 c 0.848,0.616 1.036,1.801 0.42,2.648 L 3.834,2.785 Z"
       style="fill:#fff200;fill-opacity:1;fill-rule:nonzero;stroke:none"
       transform="matrix(0.35277776,0,0,-0.35277776,52.47107,127.94309)"
       clip-path="url(#clipPath9000)" />
    <path
       id="path9001"
       d="m 0,0 c 0.616,-0.847 0.428,-2.033 -0.42,-2.648 l -4.6,-3.343 c -0.847,-0.615 -2.032,-0.428 -2.648,0.421 l -6.684,9.2 c -0.615,0.847 -0.428,2.033 0.419,2.648 l 4.601,3.342 c 0.846,0.616 2.032,0.428 2.648,-0.418 z"
       style="fill:none;stroke:#231f20;stroke-width:0.4;stroke-linecap:round;stroke-linejoin:round;stroke-miterlimit:4;stroke-dasharray:none;stroke-opacity:1"
       transform="matrix(0.35277776,0,0,-0.35277776,55.002603,128.58338)"
       clip-path="url(#clipPath9002)" />
    <path
       id="path9003"
       d="M 0,0 -1.183,5.563 C -1.4,6.586 -2.407,7.241 -3.43,7.023 l -2.781,-0.591 1.576,-7.417 z"
       style="fill:#daa566;fill-opacity:1;fill-rule:nonzero;stroke:none"
       transform="matrix(0.35277776,0,0,-0.35277776,55.630539,126.91721)"
       clip-path="url(#clipPath9004)" />
    <path
       id="path9005"
       d="m 0,0 -2.782,-0.591 c -1.024,-0.218 -1.678,-1.225 -1.46,-2.248 l 1.182,-5.563 4.636,0.986 z"
       style="fill:#80d6f7;fill-opacity:1;fill-rule:nonzero;stroke:none"
       transform="matrix(0.35277776,0,0,-0.35277776,53.439445,124.64814)"
       clip-path="url(#clipPath9006)" />
    <path
       id="path9007"
       d="M 0,0 1.182,-5.561 C 1.4,-6.586 2.407,-7.24 3.43,-7.022 l 2.783,0.59 -1.577,7.418 z"
       style="fill:#80cc28;fill-opacity:1;fill-rule:nonzero;stroke:none"
       transform="matrix(0.35277776,0,0,-0.35277776,52.359945,127.61218)"
       clip-path="url(#clipPath9008)" />
    <path
       id="path9009"
       d="m 0,0 1.577,-7.417 2.78,0.592 c 1.024,0.217 1.679,1.223 1.46,2.248 L 4.635,0.985 Z"
       style="fill:#fff200;fill-opacity:1;fill-rule:nonzero;stroke:none"
       transform="matrix(0.35277776,0,0,-0.35277776,53.995414,127.26434)"
       clip-path="url(#clipPath9010)" />
    <path
       id="path9011"
       d="m 0,0 c 0.219,-1.025 -0.436,-2.031 -1.46,-2.248 l -5.563,-1.183 c -1.023,-0.218 -2.03,0.436 -2.248,1.461 l -2.364,11.124 c -0.218,1.023 0.436,2.03 1.46,2.248 l 5.562,1.182 c 1.024,0.218 2.031,-0.436 2.248,-1.46 z"
       style="fill:none;stroke:#231f20;stroke-width:0.4;stroke-linecap:round;stroke-linejoin:round;stroke-miterlimit:4;stroke-dasharray:none;stroke-opacity:1"
       transform="matrix(0.35277776,0,0,-0.35277776,56.047522,128.87901)"
       clip-path="url(#clipPath9012)" />
    <path
       id="path9013"
       d="M 0,0 1.182,5.563 C 1.4,6.586 0.747,7.593 -0.278,7.811 L -3.059,8.402 -4.635,0.986 Z"
       style="fill:#daa566;fill-opacity:1;fill-rule:nonzero;stroke:none"
       transform="matrix(0.35277776,0,0,-0.35277776,57.299186,127.61218)"
       clip-path="url(#clipPath9014)" />
    <path
       id="path9015"
       d="m 0,0 -2.782,0.591 c -1.024,0.218 -2.03,-0.436 -2.248,-1.46 l -1.182,-5.562 4.635,-0.985 z"
       style="fill:#80d6f7;fill-opacity:1;fill-rule:nonzero;stroke:none"
       transform="matrix(0.35277776,0,0,-0.35277776,56.22003,124.64814)"
       clip-path="url(#clipPath9016)" />
    <path
       id="path9017"
       d="M 0,0 -1.182,-5.562 C -1.4,-6.587 -0.747,-7.593 0.277,-7.81 l 2.782,-0.592 1.576,7.417 z"
       style="fill:#80cc28;fill-opacity:1;fill-rule:nonzero;stroke:none"
       transform="matrix(0.35277776,0,0,-0.35277776,54.028592,126.91686)"
       clip-path="url(#clipPath9018)" />
    <path
       id="path9019"
       d="m 0,0 -1.577,-7.417 2.781,-0.591 c 1.025,-0.218 2.031,0.437 2.249,1.461 l 1.182,5.561 z"
       style="fill:#fff200;fill-opacity:1;fill-rule:nonzero;stroke:none"
       transform="matrix(0.35277776,0,0,-0.35277776,55.663717,127.26434)"
       clip-path="url(#clipPath9020)" />
    <path
       id="path9021"
       d="m 0,0 c -0.218,-1.024 -1.224,-1.679 -2.249,-1.461 l -5.563,1.183 C -8.835,-0.061 -9.488,0.945 -9.27,1.97 l 2.364,11.125 c 0.218,1.023 1.223,1.677 2.247,1.46 l 5.563,-1.183 c 1.025,-0.217 1.678,-1.224 1.46,-2.247 z"
       style="fill:none;stroke:#231f20;stroke-width:0.4;stroke-linecap:round;stroke-linejoin:round;stroke-miterlimit:4;stroke-dasharray:none;stroke-opacity:1"
       transform="matrix(0.35277776,0,0,-0.35277776,56.882203,129.57398)"
       clip-path="url(#clipPath9022)" />
    <path
       id="path9023"
       d="M 0,0 3.343,4.601 C 3.959,5.447 3.77,6.632 2.923,7.248 L 0.623,8.92 -3.834,2.786 Z"
       style="fill:#daa566;fill-opacity:1;fill-rule:nonzero;stroke:none"
       transform="matrix(0.35277776,0,0,-0.35277776,58.540267,128.92593)"
       clip-path="url(#clipPath9024)" />
    <path
       id="path9025"
       d="M 0,0 -2.3,1.671 C -3.148,2.286 -4.332,2.098 -4.948,1.252 l -3.343,-4.601 3.835,-2.785 z"
       style="fill:#80d6f7;fill-opacity:1;fill-rule:nonzero;stroke:none"
       transform="matrix(0.35277776,0,0,-0.35277776,58.76003,125.77915)"
       clip-path="url(#clipPath9026)" />
    <path
       id="path9027"
       d="m 0,0 -3.342,-4.6 c -0.616,-0.847 -0.428,-2.033 0.419,-2.649 l 2.3,-1.671 4.457,6.135 z"
       style="fill:#80cc28;fill-opacity:1;fill-rule:nonzero;stroke:none"
       transform="matrix(0.35277776,0,0,-0.35277776,55.835167,126.9606)"
       clip-path="url(#clipPath9028)" />
    <path
       id="path9029"
       d="m 0,0 -4.458,-6.135 2.302,-1.671 c 0.846,-0.616 2.032,-0.428 2.647,0.42 l 3.343,4.6 z"
       style="fill:#fff200;fill-opacity:1;fill-rule:nonzero;stroke:none"
       transform="matrix(0.35277776,0,0,-0.35277776,57.188061,127.94309)"
       clip-path="url(#clipPath9030)" />
    <path
       id="path9031"
       d="M 0,0 C -0.616,-0.848 -1.802,-1.036 -2.648,-0.42 L -7.249,2.922 C -8.095,3.538 -8.284,4.723 -7.668,5.57 l 6.685,9.202 c 0.616,0.846 1.8,1.033 2.648,0.419 l 4.6,-3.343 c 0.847,-0.616 1.036,-1.801 0.42,-2.647 z"
       style="fill:none;stroke:#231f20;stroke-width:0.4;stroke-linecap:round;stroke-linejoin:round;stroke-miterlimit:4;stroke-dasharray:none;stroke-opacity:1"
       transform="matrix(0.35277776,0,0,-0.35277776,57.361284,130.5487)"
       clip-path="url(#clipPath9032)" />
    <path
       id="path9033"
       d="M 0,0 -4.536,7.855 0,15.711 H 9.072 L 13.606,7.855 9.072,0 Z"
       style="fill:#ffffff;fill-opacity:1;fill-rule:nonzero;stroke:#231f20;stroke-width:0.4;stroke-linecap:round;stroke-linejoin:round;stroke-miterlimit:4;stroke-dasharray:none;stroke-opacity:1"
       transform="matrix(0.35277776,0,0,-0.35277776,62.623661,130.68982)"
       clip-path="url(#clipPath9034)" />
    <path
       id="path9035"
       d="M 0,0 -5.322,7.407 V 5.323 h -6.55 V -5.323 h 6.55 v -2.008 z"
       style="fill:#7b7979;fill-opacity:1;fill-rule:nonzero;stroke:#ffffff;stroke-width:0.4;stroke-linecap:round;stroke-linejoin:round;stroke-miterlimit:4;stroke-dasharray:none;stroke-opacity:1"
       transform="matrix(0.35277776,0,0,-0.35277776,63.000084,127.91874)"
       clip-path="url(#clipPath9036)" />
    <path
       id="path9037"
       d="m 0,0 c -0.378,0 -0.687,0.309 -0.687,0.687 0,0.378 0.309,0.695 0.687,0.695 0.379,0 0.695,-0.317 0.695,-0.695 C 0.695,0.309 0.379,0 0,0 M 1.382,3.485 0.73,2.623 C 0.643,2.509 0.573,2.323 0.573,2.174 V 1.989 h -1.145 v 0.264 c 0,0.378 0.106,0.616 0.335,0.915 l 0.65,0.836 c 0.142,0.185 0.256,0.396 0.256,0.59 0,0.413 -0.273,0.721 -0.713,0.721 -0.466,0 -0.704,-0.325 -0.704,-0.73 h -1.143 c 0,1.091 0.826,1.76 1.847,1.76 0.995,0 1.857,-0.643 1.857,-1.76 0,-0.44 -0.185,-0.775 -0.431,-1.1"
       style="fill:#231f20;fill-opacity:1;fill-rule:nonzero;stroke:none"
       transform="matrix(0.35277776,0,0,-0.35277776,63.132376,128.99719)"
       clip-path="url(#clipPath9038)" />
    <path
       id="path9039"
       d="m 255.384,396.802 h 2.71 v -1.064 h -2.71 z"
       style="fill:#231f20;fill-opacity:1;fill-rule:nonzero;stroke:none"
       transform="matrix(0.35277776,0,0,-0.35277776,-26.026915,267.89673)"
       clip-path="url(#clipPath9040)" />
    <path
       id="path9041"
       d="M 0,0 V 0.968 H 1.056 V 5.034 L -0.22,3.925 V 5.157 L 1.056,6.266 H 2.2 V 0.968 H 3.177 V 0 Z"
       style="fill:#231f20;fill-opacity:1;fill-rule:nonzero;stroke:none"
       transform="matrix(0.35277776,0,0,-0.35277776,65.550667,128.98766)"
       clip-path="url(#clipPath9042)" />
  </g>
</svg>
