<?xml version="1.0" encoding="UTF-8" standalone="no"?>
<!-- Created with Inkscape (http://www.inkscape.org/) -->

<svg
   width="15.929331mm"
   height="6.5412054mm"
   viewBox="0 0 15.929331 6.5412054"
   version="1.1"
   id="svg1"
   inkscape:version="1.3 (0e150ed6c4, 2023-07-21)"
   sodipodi:docname="discard-1-rare-element-good-to-draw-gain-1-victory-point-and-draw-1-card.svg"
   xmlns:inkscape="http://www.inkscape.org/namespaces/inkscape"
   xmlns:sodipodi="http://sodipodi.sourceforge.net/DTD/sodipodi-0.dtd"
   xmlns="http://www.w3.org/2000/svg"
   xmlns:svg="http://www.w3.org/2000/svg">
  <sodipodi:namedview
     id="namedview1"
     pagecolor="#ffffff"
     bordercolor="#000000"
     borderopacity="0.25"
     inkscape:showpageshadow="2"
     inkscape:pageopacity="0.0"
     inkscape:pagecheckerboard="0"
     inkscape:deskcolor="#d1d1d1"
     inkscape:document-units="mm"
     inkscape:zoom="21.875589"
     inkscape:cx="30.376325"
     inkscape:cy="7.3140889"
     inkscape:window-width="1920"
     inkscape:window-height="1013"
     inkscape:window-x="0"
     inkscape:window-y="30"
     inkscape:window-maximized="1"
     inkscape:current-layer="layer1" />
  <defs
     id="defs1">
    <clipPath
       clipPathUnits="userSpaceOnUse"
       id="clipPath8909">
      <path
         d="m 374.521,525.867 h 32.856 v 19.742 h -32.856 z"
         transform="translate(-386.65998,-528.93601)"
         id="path8909" />
    </clipPath>
    <clipPath
       clipPathUnits="userSpaceOnUse"
       id="clipPath8911">
      <path
         d="m 374.521,525.867 h 32.856 v 19.742 h -32.856 z"
         transform="translate(-405.57799,-528.93601)"
         id="path8911" />
    </clipPath>
    <clipPath
       clipPathUnits="userSpaceOnUse"
       id="clipPath8913">
      <path
         d="m 374.521,525.867 h 32.856 v 19.742 h -32.856 z"
         transform="translate(-407.17699,-538.33901)"
         id="path8913" />
    </clipPath>
    <clipPath
       clipPathUnits="userSpaceOnUse"
       id="clipPath8915">
      <path
         d="m 374.521,525.867 h 32.856 v 19.742 h -32.856 z"
         transform="translate(-407.17699,-536.07202)"
         id="path8915" />
    </clipPath>
    <clipPath
       clipPathUnits="userSpaceOnUse"
       id="clipPath8917">
      <path
         d="m 374.521,525.867 h 32.856 v 19.742 h -32.856 z"
         transform="translate(-407.17699,-533.80301)"
         id="path8917" />
    </clipPath>
    <clipPath
       clipPathUnits="userSpaceOnUse"
       id="clipPath8919">
      <path
         d="m 374.521,525.867 h 32.856 v 19.742 h -32.856 z"
         transform="translate(-407.17699,-531.53602)"
         id="path8919" />
    </clipPath>
    <clipPath
       clipPathUnits="userSpaceOnUse"
       id="clipPath8921">
      <path
         d="m 374.521,525.867 h 32.856 v 19.742 h -32.856 z"
         transform="translate(-396.50703,-541.74101)"
         id="path8921" />
    </clipPath>
    <clipPath
       clipPathUnits="userSpaceOnUse"
       id="clipPath8923">
      <path
         d="m 374.521,525.867 h 32.856 v 19.742 h -32.856 z"
         transform="translate(-398.36403,-532.27102)"
         id="path8923" />
    </clipPath>
    <clipPath
       clipPathUnits="userSpaceOnUse"
       id="clipPath8925">
      <path
         d="m 374.521,525.867 h 32.856 v 19.742 h -32.856 z"
         transform="translate(-396.50703,-535.73801)"
         id="path8925" />
    </clipPath>
    <clipPath
       clipPathUnits="userSpaceOnUse"
       id="clipPath9173">
      <path
         d="m 374.521,503.19 h 34.483 v 19.742 h -34.483 z"
         transform="translate(-386.65998,-506.25901)"
         id="path9173" />
    </clipPath>
    <clipPath
       clipPathUnits="userSpaceOnUse"
       id="clipPath9175">
      <path
         d="m 374.521,503.19 h 34.483 v 19.742 h -34.483 z"
         transform="translate(-396.26501,-513.06001)"
         id="path9175" />
    </clipPath>
    <clipPath
       clipPathUnits="userSpaceOnUse"
       id="clipPath9177">
      <path
         d="m 374.521,480.513 h 45.754 v 19.742 h -45.754 z"
         transform="translate(-386.65998,-483.58201)"
         id="path9177" />
    </clipPath>
    <clipPath
       clipPathUnits="userSpaceOnUse"
       id="clipPath9179">
      <path
         d="m 374.521,480.513 h 45.754 v 19.742 h -45.754 z"
         transform="translate(-418.47604,-483.58201)"
         id="path9179" />
    </clipPath>
    <clipPath
       clipPathUnits="userSpaceOnUse"
       id="clipPath9181">
      <path
         d="m 374.521,480.513 h 45.754 v 19.742 h -45.754 z"
         transform="translate(-420.07504,-492.98501)"
         id="path9181" />
    </clipPath>
    <clipPath
       clipPathUnits="userSpaceOnUse"
       id="clipPath9183">
      <path
         d="m 374.521,480.513 h 45.754 v 19.742 h -45.754 z"
         transform="translate(-420.07504,-490.71801)"
         id="path9183" />
    </clipPath>
    <clipPath
       clipPathUnits="userSpaceOnUse"
       id="clipPath9185">
      <path
         d="m 374.521,480.513 h 45.754 v 19.742 h -45.754 z"
         transform="translate(-420.07504,-488.44901)"
         id="path9185" />
    </clipPath>
    <clipPath
       clipPathUnits="userSpaceOnUse"
       id="clipPath9187">
      <path
         d="m 374.521,480.513 h 45.754 v 19.742 h -45.754 z"
         transform="translate(-420.07504,-486.18201)"
         id="path9187" />
    </clipPath>
    <clipPath
       clipPathUnits="userSpaceOnUse"
       id="clipPath9189">
      <path
         d="m 374.521,480.513 h 45.754 v 19.742 h -45.754 z"
         transform="translate(-409.40599,-496.38701)"
         id="path9189" />
    </clipPath>
    <clipPath
       clipPathUnits="userSpaceOnUse"
       id="clipPath9191">
      <path
         d="m 374.521,480.513 h 45.754 v 19.742 h -45.754 z"
         transform="translate(-411.26201,-486.91601)"
         id="path9191" />
    </clipPath>
    <clipPath
       clipPathUnits="userSpaceOnUse"
       id="clipPath9193">
      <path
         d="m 374.521,480.513 h 45.754 v 19.742 h -45.754 z"
         transform="translate(-395.19903,-482.52901)"
         id="path9193" />
    </clipPath>
    <clipPath
       clipPathUnits="userSpaceOnUse"
       id="clipPath9195">
      <path
         d="m 374.521,480.513 h 45.754 v 19.742 h -45.754 z"
         transform="translate(-398.34603,-487.35301)"
         id="path9195" />
    </clipPath>
    <clipPath
       clipPathUnits="userSpaceOnUse"
       id="clipPath9197">
      <path
         d="m 374.521,480.513 h 45.754 v 19.742 h -45.754 z"
         transform="translate(-396.26501,-490.38301)"
         id="path9197" />
    </clipPath>
  </defs>
  <g
     inkscape:label="Layer 1"
     inkscape:groupmode="layer"
     id="layer1"
     transform="translate(-51.329118,-126.99999)">
    <path
       id="path9176"
       d="M 0,0 C 0,-1.253 -1.014,-2.269 -2.267,-2.269 H -9.07 c -1.253,0 -2.269,1.016 -2.269,2.269 v 13.606 c 0,1.252 1.016,2.267 2.269,2.267 h 6.803 C -1.014,15.873 0,14.858 0,13.606 Z"
       style="fill:#daa566;fill-opacity:1;fill-rule:nonzero;stroke:#231f20;stroke-width:0.4;stroke-linecap:butt;stroke-linejoin:miter;stroke-miterlimit:4;stroke-dasharray:none;stroke-opacity:1"
       transform="matrix(0.35277776,0,0,-0.35277776,55.399821,132.67019)"
       clip-path="url(#clipPath9177)" />
    <path
       id="path9178"
       d="M 0,0 C 0,-1.253 -1.014,-2.269 -2.267,-2.269 H -9.07 c -1.253,0 -2.269,1.016 -2.269,2.269 v 13.605 c 0,1.253 1.016,2.268 2.269,2.268 h 6.803 C -1.014,15.873 0,14.858 0,13.605 Z"
       style="fill:#ffffff;fill-opacity:1;fill-rule:nonzero;stroke:#231f20;stroke-width:0.4;stroke-linecap:round;stroke-linejoin:round;stroke-miterlimit:4;stroke-dasharray:none;stroke-opacity:1"
       transform="matrix(0.35277776,0,0,-0.35277776,66.623817,132.67019)"
       clip-path="url(#clipPath9179)" />
    <path
       id="path9180"
       d="m 0,0 c 0,-0.627 -0.508,-1.134 -1.134,-1.134 h -1.468 c -0.626,0 -1.134,0.507 -1.134,1.134 0,0.627 0.508,1.134 1.134,1.134 h 1.468 C -0.508,1.134 0,0.627 0,0"
       style="fill:#e9e9e9;fill-opacity:1;fill-rule:nonzero;stroke:#231f20;stroke-width:0.4;stroke-linecap:round;stroke-linejoin:round;stroke-miterlimit:4;stroke-dasharray:none;stroke-opacity:1"
       transform="matrix(0.35277776,0,0,-0.35277776,67.187908,129.35302)"
       clip-path="url(#clipPath9181)" />
    <path
       id="path9182"
       d="m 0,0 c 0,-0.627 -0.508,-1.134 -1.134,-1.134 h -1.468 c -0.626,0 -1.134,0.507 -1.134,1.134 0,0.626 0.508,1.134 1.134,1.134 h 1.468 C -0.508,1.134 0,0.626 0,0"
       style="fill:#e9e9e9;fill-opacity:1;fill-rule:nonzero;stroke:#231f20;stroke-width:0.4;stroke-linecap:round;stroke-linejoin:round;stroke-miterlimit:4;stroke-dasharray:none;stroke-opacity:1"
       transform="matrix(0.35277776,0,0,-0.35277776,67.187908,130.15277)"
       clip-path="url(#clipPath9183)" />
    <path
       id="path9184"
       d="m 0,0 c 0,-0.625 -0.508,-1.133 -1.134,-1.133 h -1.468 c -0.626,0 -1.134,0.508 -1.134,1.133 0,0.627 0.508,1.134 1.134,1.134 h 1.468 C -0.508,1.134 0,0.627 0,0"
       style="fill:#e9e9e9;fill-opacity:1;fill-rule:nonzero;stroke:#231f20;stroke-width:0.4;stroke-linecap:round;stroke-linejoin:round;stroke-miterlimit:4;stroke-dasharray:none;stroke-opacity:1"
       transform="matrix(0.35277776,0,0,-0.35277776,67.187908,130.95322)"
       clip-path="url(#clipPath9185)" />
    <path
       id="path9186"
       d="m 0,0 c 0,-0.627 -0.508,-1.133 -1.134,-1.133 h -1.468 c -0.626,0 -1.134,0.506 -1.134,1.133 0,0.627 0.508,1.134 1.134,1.134 h 1.468 C -0.508,1.134 0,0.627 0,0"
       style="fill:#e9e9e9;fill-opacity:1;fill-rule:nonzero;stroke:#231f20;stroke-width:0.4;stroke-linecap:round;stroke-linejoin:round;stroke-miterlimit:4;stroke-dasharray:none;stroke-opacity:1"
       transform="matrix(0.35277776,0,0,-0.35277776,67.187908,131.75297)"
       clip-path="url(#clipPath9187)" />
    <path
       id="path9188"
       d="M 0,0 H -2.267 C -3.52,0 -4.536,-1.015 -4.536,-2.267 v -7.472 c 0,-1.252 1.016,-2.267 2.269,-2.267 v 9.739 H 0 c 0.627,0 1.134,0.508 1.134,1.133 C 1.134,-0.508 0.627,0 0,0"
       style="fill:#e9e9e9;fill-opacity:1;fill-rule:nonzero;stroke:#231f20;stroke-width:0.4;stroke-linecap:round;stroke-linejoin:round;stroke-miterlimit:4;stroke-dasharray:none;stroke-opacity:1"
       transform="matrix(0.35277776,0,0,-0.35277776,63.424105,128.15287)"
       clip-path="url(#clipPath9189)" />
    <path
       id="path9190"
       d="M 0,0 V 0.968 H 1.056 V 5.034 L -0.22,3.924 V 5.157 L 1.056,6.266 H 2.2 V 0.968 H 3.177 V 0 Z"
       style="fill:#231f20;fill-opacity:1;fill-rule:nonzero;stroke:none"
       transform="matrix(0.35277776,0,0,-0.35277776,64.078869,131.49403)"
       clip-path="url(#clipPath9191)" />
    <path
       id="path9192"
       d="M 0,0 -4.535,7.855 0,15.711 H 9.071 L 13.606,7.855 9.071,0 Z"
       style="fill:#ffffff;fill-opacity:1;fill-rule:nonzero;stroke:#231f20;stroke-width:0.4;stroke-linecap:round;stroke-linejoin:round;stroke-miterlimit:4;stroke-dasharray:none;stroke-opacity:1"
       transform="matrix(0.35277776,0,0,-0.35277776,58.412208,133.04166)"
       clip-path="url(#clipPath9193)" />
    <path
       id="path9194"
       d="M 0,0 V 0.968 H 1.056 V 5.034 L -0.22,3.925 V 5.157 L 1.056,6.266 H 2.2 V 0.968 H 3.176 V 0 Z"
       style="fill:#231f20;fill-opacity:1;fill-rule:nonzero;stroke:none"
       transform="matrix(0.35277776,0,0,-0.35277776,59.5224,131.33986)"
       clip-path="url(#clipPath9195)" />
    <path
       id="path9196"
       d="M 0,0 -5.323,7.408 V 5.323 h -6.55 V -5.323 h 6.55 v -2.008 z"
       style="fill:#7b7979;fill-opacity:1;fill-rule:nonzero;stroke:#ffffff;stroke-width:0.4;stroke-linecap:round;stroke-linejoin:round;stroke-miterlimit:4;stroke-dasharray:none;stroke-opacity:1"
       transform="matrix(0.35277776,0,0,-0.35277776,58.788261,130.27095)"
       clip-path="url(#clipPath9197)" />
  </g>
</svg>
