<?xml version="1.0" encoding="UTF-8" standalone="no"?>
<!-- Created with Inkscape (http://www.inkscape.org/) -->

<svg
   width="11.953168mm"
   height="6.5412054mm"
   viewBox="0 0 11.953168 6.5412054"
   version="1.1"
   id="svg1"
   inkscape:version="1.3 (0e150ed6c4, 2023-07-21)"
   sodipodi:docname="discard-gene-good-to-draw-gain-1-victory-point.svg"
   xmlns:inkscape="http://www.inkscape.org/namespaces/inkscape"
   xmlns:sodipodi="http://sodipodi.sourceforge.net/DTD/sodipodi-0.dtd"
   xmlns="http://www.w3.org/2000/svg"
   xmlns:svg="http://www.w3.org/2000/svg">
  <sodipodi:namedview
     id="namedview1"
     pagecolor="#ffffff"
     bordercolor="#000000"
     borderopacity="0.25"
     inkscape:showpageshadow="2"
     inkscape:pageopacity="0.0"
     inkscape:pagecheckerboard="0"
     inkscape:deskcolor="#d1d1d1"
     inkscape:document-units="mm"
     inkscape:zoom="21.875589"
     inkscape:cx="20.365166"
     inkscape:cy="17.325248"
     inkscape:window-width="1920"
     inkscape:window-height="1013"
     inkscape:window-x="0"
     inkscape:window-y="30"
     inkscape:window-maximized="1"
     inkscape:current-layer="layer1" />
  <defs
     id="defs1">
    <clipPath
       clipPathUnits="userSpaceOnUse"
       id="clipPath8909">
      <path
         d="m 374.521,525.867 h 32.856 v 19.742 h -32.856 z"
         transform="translate(-386.65998,-528.93601)"
         id="path8909" />
    </clipPath>
    <clipPath
       clipPathUnits="userSpaceOnUse"
       id="clipPath8911">
      <path
         d="m 374.521,525.867 h 32.856 v 19.742 h -32.856 z"
         transform="translate(-405.57799,-528.93601)"
         id="path8911" />
    </clipPath>
    <clipPath
       clipPathUnits="userSpaceOnUse"
       id="clipPath8913">
      <path
         d="m 374.521,525.867 h 32.856 v 19.742 h -32.856 z"
         transform="translate(-407.17699,-538.33901)"
         id="path8913" />
    </clipPath>
    <clipPath
       clipPathUnits="userSpaceOnUse"
       id="clipPath8915">
      <path
         d="m 374.521,525.867 h 32.856 v 19.742 h -32.856 z"
         transform="translate(-407.17699,-536.07202)"
         id="path8915" />
    </clipPath>
    <clipPath
       clipPathUnits="userSpaceOnUse"
       id="clipPath8917">
      <path
         d="m 374.521,525.867 h 32.856 v 19.742 h -32.856 z"
         transform="translate(-407.17699,-533.80301)"
         id="path8917" />
    </clipPath>
    <clipPath
       clipPathUnits="userSpaceOnUse"
       id="clipPath8919">
      <path
         d="m 374.521,525.867 h 32.856 v 19.742 h -32.856 z"
         transform="translate(-407.17699,-531.53602)"
         id="path8919" />
    </clipPath>
    <clipPath
       clipPathUnits="userSpaceOnUse"
       id="clipPath8921">
      <path
         d="m 374.521,525.867 h 32.856 v 19.742 h -32.856 z"
         transform="translate(-396.50703,-541.74101)"
         id="path8921" />
    </clipPath>
    <clipPath
       clipPathUnits="userSpaceOnUse"
       id="clipPath8923">
      <path
         d="m 374.521,525.867 h 32.856 v 19.742 h -32.856 z"
         transform="translate(-398.36403,-532.27102)"
         id="path8923" />
    </clipPath>
    <clipPath
       clipPathUnits="userSpaceOnUse"
       id="clipPath8925">
      <path
         d="m 374.521,525.867 h 32.856 v 19.742 h -32.856 z"
         transform="translate(-396.50703,-535.73801)"
         id="path8925" />
    </clipPath>
    <clipPath
       clipPathUnits="userSpaceOnUse"
       id="clipPath9173">
      <path
         d="m 374.521,503.19 h 34.483 v 19.742 h -34.483 z"
         transform="translate(-386.65998,-506.25901)"
         id="path9173" />
    </clipPath>
    <clipPath
       clipPathUnits="userSpaceOnUse"
       id="clipPath9175">
      <path
         d="m 374.521,503.19 h 34.483 v 19.742 h -34.483 z"
         transform="translate(-396.26501,-513.06001)"
         id="path9175" />
    </clipPath>
  </defs>
  <g
     inkscape:label="Layer 1"
     inkscape:groupmode="layer"
     id="layer1"
     transform="translate(-53.974918,-124.35416)">
    <path
       id="path9170"
       d="m 61.057638,130.39583 -1.599847,-2.77107 1.599847,-2.77142 h 3.2004 l 1.599494,2.77142 -1.599494,2.77107 z"
       style="fill:#ffffff;fill-opacity:1;fill-rule:nonzero;stroke:#231f20;stroke-width:0.141111;stroke-linecap:round;stroke-linejoin:round;stroke-miterlimit:4;stroke-dasharray:none;stroke-opacity:1" />
    <path
       id="path9171"
       d="m 62.16783,128.69403 v -0.34149 h 0.372533 v -1.43439 l -0.450144,0.39123 v -0.43462 l 0.450144,-0.39124 h 0.403578 v 1.86902 h 0.344664 v 0.34149 z"
       style="fill:#231f20;fill-opacity:1;fill-rule:nonzero;stroke:none;stroke-width:0.352778" />
    <path
       id="path9172"
       d="M 0,0 C 0,-1.253 -1.014,-2.269 -2.267,-2.269 H -9.07 c -1.253,0 -2.269,1.016 -2.269,2.269 v 13.606 c 0,1.252 1.016,2.267 2.269,2.267 h 6.803 C -1.014,15.873 0,14.858 0,13.606 Z"
       style="fill:#80cc28;fill-opacity:1;fill-rule:nonzero;stroke:#231f20;stroke-width:0.4;stroke-linecap:butt;stroke-linejoin:miter;stroke-miterlimit:4;stroke-dasharray:none;stroke-opacity:1"
       transform="matrix(0.35277776,0,0,-0.35277776,58.045621,130.02436)"
       clip-path="url(#clipPath9173)" />
    <path
       id="path9174"
       d="M 0,0 -5.323,7.408 V 5.323 h -6.55 V -5.323 h 6.55 v -2.008 z"
       style="fill:#7b7979;fill-opacity:1;fill-rule:nonzero;stroke:#ffffff;stroke-width:0.4;stroke-linecap:round;stroke-linejoin:round;stroke-miterlimit:4;stroke-dasharray:none;stroke-opacity:1"
       transform="matrix(0.35277776,0,0,-0.35277776,61.434061,127.62512)"
       clip-path="url(#clipPath9175)" />
  </g>
</svg>
