<?xml version="1.0" encoding="UTF-8" standalone="no"?>
<!-- Created with Inkscape (http://www.inkscape.org/) -->

<svg
   width="12.771612mm"
   height="6.4413652mm"
   viewBox="0 0 12.771612 6.4413652"
   version="1.1"
   id="svg1"
   inkscape:version="1.3 (0e150ed6c4, 2023-07-21)"
   sodipodi:docname="discard-2-rare-elements-goods-to-gain-3-victory-points.svg"
   xmlns:inkscape="http://www.inkscape.org/namespaces/inkscape"
   xmlns:sodipodi="http://sodipodi.sourceforge.net/DTD/sodipodi-0.dtd"
   xmlns="http://www.w3.org/2000/svg"
   xmlns:svg="http://www.w3.org/2000/svg">
  <sodipodi:namedview
     id="namedview1"
     pagecolor="#ffffff"
     bordercolor="#000000"
     borderopacity="0.25"
     inkscape:showpageshadow="2"
     inkscape:pageopacity="0.0"
     inkscape:pagecheckerboard="0"
     inkscape:deskcolor="#d1d1d1"
     inkscape:document-units="mm"
     inkscape:zoom="21.875589"
     inkscape:cx="25.393602"
     inkscape:cy="15.313874"
     inkscape:window-width="1920"
     inkscape:window-height="1013"
     inkscape:window-x="0"
     inkscape:window-y="30"
     inkscape:window-maximized="1"
     inkscape:current-layer="layer1" />
  <defs
     id="defs1">
    <clipPath
       clipPathUnits="userSpaceOnUse"
       id="clipPath8909">
      <path
         d="m 374.521,525.867 h 32.856 v 19.742 h -32.856 z"
         transform="translate(-386.65998,-528.93601)"
         id="path8909" />
    </clipPath>
    <clipPath
       clipPathUnits="userSpaceOnUse"
       id="clipPath8911">
      <path
         d="m 374.521,525.867 h 32.856 v 19.742 h -32.856 z"
         transform="translate(-405.57799,-528.93601)"
         id="path8911" />
    </clipPath>
    <clipPath
       clipPathUnits="userSpaceOnUse"
       id="clipPath8913">
      <path
         d="m 374.521,525.867 h 32.856 v 19.742 h -32.856 z"
         transform="translate(-407.17699,-538.33901)"
         id="path8913" />
    </clipPath>
    <clipPath
       clipPathUnits="userSpaceOnUse"
       id="clipPath8915">
      <path
         d="m 374.521,525.867 h 32.856 v 19.742 h -32.856 z"
         transform="translate(-407.17699,-536.07202)"
         id="path8915" />
    </clipPath>
    <clipPath
       clipPathUnits="userSpaceOnUse"
       id="clipPath8917">
      <path
         d="m 374.521,525.867 h 32.856 v 19.742 h -32.856 z"
         transform="translate(-407.17699,-533.80301)"
         id="path8917" />
    </clipPath>
    <clipPath
       clipPathUnits="userSpaceOnUse"
       id="clipPath8919">
      <path
         d="m 374.521,525.867 h 32.856 v 19.742 h -32.856 z"
         transform="translate(-407.17699,-531.53602)"
         id="path8919" />
    </clipPath>
    <clipPath
       clipPathUnits="userSpaceOnUse"
       id="clipPath8921">
      <path
         d="m 374.521,525.867 h 32.856 v 19.742 h -32.856 z"
         transform="translate(-396.50703,-541.74101)"
         id="path8921" />
    </clipPath>
    <clipPath
       clipPathUnits="userSpaceOnUse"
       id="clipPath8923">
      <path
         d="m 374.521,525.867 h 32.856 v 19.742 h -32.856 z"
         transform="translate(-398.36403,-532.27102)"
         id="path8923" />
    </clipPath>
    <clipPath
       clipPathUnits="userSpaceOnUse"
       id="clipPath8925">
      <path
         d="m 374.521,525.867 h 32.856 v 19.742 h -32.856 z"
         transform="translate(-396.50703,-535.73801)"
         id="path8925" />
    </clipPath>
    <clipPath
       clipPathUnits="userSpaceOnUse"
       id="clipPath9173">
      <path
         d="m 374.521,503.19 h 34.483 v 19.742 h -34.483 z"
         transform="translate(-386.65998,-506.25901)"
         id="path9173" />
    </clipPath>
    <clipPath
       clipPathUnits="userSpaceOnUse"
       id="clipPath9175">
      <path
         d="m 374.521,503.19 h 34.483 v 19.742 h -34.483 z"
         transform="translate(-396.26501,-513.06001)"
         id="path9175" />
    </clipPath>
    <clipPath
       clipPathUnits="userSpaceOnUse"
       id="clipPath9177">
      <path
         d="m 374.521,480.513 h 45.754 v 19.742 h -45.754 z"
         transform="translate(-386.65998,-483.58201)"
         id="path9177" />
    </clipPath>
    <clipPath
       clipPathUnits="userSpaceOnUse"
       id="clipPath9179">
      <path
         d="m 374.521,480.513 h 45.754 v 19.742 h -45.754 z"
         transform="translate(-418.47604,-483.58201)"
         id="path9179" />
    </clipPath>
    <clipPath
       clipPathUnits="userSpaceOnUse"
       id="clipPath9181">
      <path
         d="m 374.521,480.513 h 45.754 v 19.742 h -45.754 z"
         transform="translate(-420.07504,-492.98501)"
         id="path9181" />
    </clipPath>
    <clipPath
       clipPathUnits="userSpaceOnUse"
       id="clipPath9183">
      <path
         d="m 374.521,480.513 h 45.754 v 19.742 h -45.754 z"
         transform="translate(-420.07504,-490.71801)"
         id="path9183" />
    </clipPath>
    <clipPath
       clipPathUnits="userSpaceOnUse"
       id="clipPath9185">
      <path
         d="m 374.521,480.513 h 45.754 v 19.742 h -45.754 z"
         transform="translate(-420.07504,-488.44901)"
         id="path9185" />
    </clipPath>
    <clipPath
       clipPathUnits="userSpaceOnUse"
       id="clipPath9187">
      <path
         d="m 374.521,480.513 h 45.754 v 19.742 h -45.754 z"
         transform="translate(-420.07504,-486.18201)"
         id="path9187" />
    </clipPath>
    <clipPath
       clipPathUnits="userSpaceOnUse"
       id="clipPath9189">
      <path
         d="m 374.521,480.513 h 45.754 v 19.742 h -45.754 z"
         transform="translate(-409.40599,-496.38701)"
         id="path9189" />
    </clipPath>
    <clipPath
       clipPathUnits="userSpaceOnUse"
       id="clipPath9191">
      <path
         d="m 374.521,480.513 h 45.754 v 19.742 h -45.754 z"
         transform="translate(-411.26201,-486.91601)"
         id="path9191" />
    </clipPath>
    <clipPath
       clipPathUnits="userSpaceOnUse"
       id="clipPath9193">
      <path
         d="m 374.521,480.513 h 45.754 v 19.742 h -45.754 z"
         transform="translate(-395.19903,-482.52901)"
         id="path9193" />
    </clipPath>
    <clipPath
       clipPathUnits="userSpaceOnUse"
       id="clipPath9195">
      <path
         d="m 374.521,480.513 h 45.754 v 19.742 h -45.754 z"
         transform="translate(-398.34603,-487.35301)"
         id="path9195" />
    </clipPath>
    <clipPath
       clipPathUnits="userSpaceOnUse"
       id="clipPath9197">
      <path
         d="m 374.521,480.513 h 45.754 v 19.742 h -45.754 z"
         transform="translate(-396.26501,-490.38301)"
         id="path9197" />
    </clipPath>
    <clipPath
       clipPathUnits="userSpaceOnUse"
       id="clipPath9222">
      <path
         d="m 372.206,435.443 h 36.803 v 19.458 h -36.803 z"
         transform="translate(-399.73901,-441.94501)"
         id="path9222" />
    </clipPath>
    <clipPath
       clipPathUnits="userSpaceOnUse"
       id="clipPath9224">
      <path
         d="m 372.206,435.443 h 36.803 v 19.458 h -36.803 z"
         transform="translate(-382.92701,-438.22701)"
         id="path9224" />
    </clipPath>
    <clipPath
       clipPathUnits="userSpaceOnUse"
       id="clipPath9226">
      <path
         d="m 372.206,435.443 h 36.803 v 19.458 h -36.803 z"
         transform="translate(-387.17898,-440.21201)"
         id="path9226" />
    </clipPath>
    <clipPath
       clipPathUnits="userSpaceOnUse"
       id="clipPath9228">
      <path
         d="m 372.206,435.443 h 36.803 v 19.458 h -36.803 z"
         transform="translate(-396.26801,-445.02901)"
         id="path9228" />
    </clipPath>
  </defs>
  <g
     inkscape:label="Layer 1"
     inkscape:groupmode="layer"
     id="layer1"
     transform="translate(-52.652047,-124.88332)">
    <path
       id="path9220"
       d="m 60.553211,130.92534 -1.6002,-2.77107 1.6002,-2.77142 h 3.2004 l 1.599494,2.77142 -1.599494,2.77107 z"
       style="fill:#ffffff;fill-opacity:1;fill-rule:nonzero;stroke:#231f20;stroke-width:0.141111;stroke-linecap:round;stroke-linejoin:round;stroke-miterlimit:4;stroke-dasharray:none;stroke-opacity:1" />
    <path
       id="path9221"
       d="m 0,0 c -1.021,0 -1.98,0.538 -1.998,1.848 h 1.144 C -0.836,1.285 -0.449,1.03 0,1.03 c 0.493,0 0.845,0.307 0.845,0.872 0,0.518 -0.317,0.862 -0.88,0.862 h -0.167 v 0.994 h 0.167 c 0.555,0 0.792,0.343 0.792,0.783 0,0.528 -0.352,0.801 -0.766,0.801 -0.431,0 -0.748,-0.282 -0.775,-0.757 h -1.143 c 0.026,1.118 0.862,1.786 1.918,1.786 1.109,0 1.91,-0.739 1.91,-1.795 C 1.901,3.899 1.593,3.511 1.179,3.291 1.628,3.054 1.988,2.623 1.988,1.866 1.988,0.616 1.073,0 0,0"
       style="fill:#231f20;fill-opacity:1;fill-rule:nonzero;stroke:none"
       transform="matrix(0.35277776,0,0,-0.35277776,62.153411,129.24224)"
       clip-path="url(#clipPath9222)" />
    <path
       id="path9223"
       d="m 0,0 c 0,-1.097 -0.887,-1.985 -1.984,-1.985 h -5.953 c -1.096,0 -1.984,0.888 -1.984,1.985 v 11.905 c 0,1.096 0.888,1.984 1.984,1.984 h 5.953 C -0.887,13.889 0,13.001 0,11.905 Z"
       style="fill:#daa566;fill-opacity:1;fill-rule:nonzero;stroke:#231f20;stroke-width:0.4;stroke-linecap:butt;stroke-linejoin:miter;stroke-miterlimit:4;stroke-dasharray:none;stroke-opacity:1"
       transform="matrix(0.35277776,0,0,-0.35277776,56.222511,130.55387)"
       clip-path="url(#clipPath9224)" />
    <path
       id="path9225"
       d="m 0,0 c 0,-1.097 -0.888,-1.985 -1.984,-1.985 h -5.953 c -1.096,0 -1.984,0.888 -1.984,1.985 v 11.905 c 0,1.096 0.888,1.984 1.984,1.984 h 5.953 C -0.888,13.889 0,13.001 0,11.905 Z"
       style="fill:#daa566;fill-opacity:1;fill-rule:nonzero;stroke:#231f20;stroke-width:0.4;stroke-linecap:butt;stroke-linejoin:miter;stroke-miterlimit:4;stroke-dasharray:none;stroke-opacity:1"
       transform="matrix(0.35277776,0,0,-0.35277776,57.722513,129.85361)"
       clip-path="url(#clipPath9226)" />
    <path
       id="path9227"
       d="M 0,0 -5.322,7.408 V 5.323 h -6.55 V -5.323 h 6.55 v -2.008 z"
       style="fill:#7b7979;fill-opacity:1;fill-rule:nonzero;stroke:#ffffff;stroke-width:0.4;stroke-linecap:round;stroke-linejoin:round;stroke-miterlimit:4;stroke-dasharray:none;stroke-opacity:1"
       transform="matrix(0.35277776,0,0,-0.35277776,60.928919,128.15427)"
       clip-path="url(#clipPath9228)" />
  </g>
</svg>
