<?xml version="1.0" encoding="UTF-8" standalone="no"?>
<!-- Created with Inkscape (http://www.inkscape.org/) -->

<svg
   width="5.5050955mm"
   height="6.5411983mm"
   viewBox="0 0 5.5050955 6.5411983"
   version="1.1"
   id="svg1"
   inkscape:version="1.3 (0e150ed6c4, 2023-07-21)"
   sodipodi:docname="keep-1-extra.svg"
   xmlns:inkscape="http://www.inkscape.org/namespaces/inkscape"
   xmlns:sodipodi="http://sodipodi.sourceforge.net/DTD/sodipodi-0.dtd"
   xmlns="http://www.w3.org/2000/svg"
   xmlns:svg="http://www.w3.org/2000/svg">
  <sodipodi:namedview
     id="namedview1"
     pagecolor="#ffffff"
     bordercolor="#000000"
     borderopacity="0.25"
     inkscape:showpageshadow="2"
     inkscape:pageopacity="0.0"
     inkscape:pagecheckerboard="0"
     inkscape:deskcolor="#d1d1d1"
     inkscape:document-units="mm"
     inkscape:zoom="17.59107"
     inkscape:cx="16.713025"
     inkscape:cy="19.043753"
     inkscape:window-width="1920"
     inkscape:window-height="1013"
     inkscape:window-x="0"
     inkscape:window-y="30"
     inkscape:window-maximized="1"
     inkscape:current-layer="layer1" />
  <defs
     id="defs1">
    <clipPath
       clipPathUnits="userSpaceOnUse"
       id="clipPath5770">
      <path
         d="m 220.977,660.012 h 15.605 v 18.542 h -15.605 z"
         transform="translate(-234.78303,-662.48102)"
         id="path5770" />
    </clipPath>
    <clipPath
       clipPathUnits="userSpaceOnUse"
       id="clipPath5772">
      <path
         d="m 220.977,660.012 h 15.605 v 18.542 h -15.605 z"
         transform="translate(-236.38203,-671.88401)"
         id="path5772" />
    </clipPath>
    <clipPath
       clipPathUnits="userSpaceOnUse"
       id="clipPath5774">
      <path
         d="m 220.977,660.012 h 15.605 v 18.542 h -15.605 z"
         transform="translate(-236.38203,-669.61702)"
         id="path5774" />
    </clipPath>
    <clipPath
       clipPathUnits="userSpaceOnUse"
       id="clipPath5776">
      <path
         d="m 220.977,660.012 h 15.605 v 18.542 h -15.605 z"
         transform="translate(-236.38203,-667.34902)"
         id="path5776" />
    </clipPath>
    <clipPath
       clipPathUnits="userSpaceOnUse"
       id="clipPath5778">
      <path
         d="m 220.977,660.012 h 15.605 v 18.542 h -15.605 z"
         transform="translate(-236.38203,-665.08202)"
         id="path5778" />
    </clipPath>
    <clipPath
       clipPathUnits="userSpaceOnUse"
       id="clipPath5780">
      <path
         d="m 220.977,660.012 h 15.605 v 18.542 h -15.605 z"
         transform="translate(-225.71201,-675.28702)"
         id="path5780" />
    </clipPath>
    <clipPath
       clipPathUnits="userSpaceOnUse"
       id="clipPath5782">
      <path
         d="m 220.977,660.012 h 15.605 v 18.542 h -15.605 z"
         transform="translate(-226.83798,-668.00002)"
         id="path5782" />
    </clipPath>
    <clipPath
       clipPathUnits="userSpaceOnUse"
       id="clipPath5784">
      <path
         d="m 220.977,660.012 h 15.605 v 18.542 h -15.605 z"
         transform="translate(-228.89201,-666.61702)"
         id="path5784" />
    </clipPath>
  </defs>
  <g
     inkscape:label="Layer 1"
     inkscape:groupmode="layer"
     id="layer1"
     transform="translate(-65.881128,-189.97083)">
    <path
       id="path5769"
       d="m 0,0 c 0,-1.253 -1.016,-2.269 -2.269,-2.269 h -6.803 c -1.251,0 -2.267,1.016 -2.267,2.269 v 13.606 c 0,1.252 1.016,2.267 2.267,2.267 h 6.803 C -1.016,15.873 0,14.858 0,13.606 Z"
       style="fill:#ffffff;fill-opacity:1;fill-rule:nonzero;stroke:#231f20;stroke-width:0.4;stroke-linecap:round;stroke-linejoin:round;stroke-miterlimit:4;stroke-dasharray:none;stroke-opacity:1"
       transform="matrix(0.35277776,0,0,-0.35277776,70.751587,195.64102)"
       clip-path="url(#clipPath5770)" />
    <path
       id="path5771"
       d="m 0,0 c 0,-0.626 -0.508,-1.133 -1.134,-1.133 h -1.468 c -0.626,0 -1.134,0.507 -1.134,1.133 0,0.627 0.508,1.134 1.134,1.134 h 1.468 C -0.508,1.134 0,0.627 0,0"
       style="fill:#e9e9e9;fill-opacity:1;fill-rule:nonzero;stroke:#231f20;stroke-width:0.4;stroke-linecap:round;stroke-linejoin:round;stroke-miterlimit:4;stroke-dasharray:none;stroke-opacity:1"
       transform="matrix(0.35277776,0,0,-0.35277776,71.315679,192.32386)"
       clip-path="url(#clipPath5772)" />
    <path
       id="path5773"
       d="m 0,0 c 0,-0.626 -0.508,-1.134 -1.134,-1.134 h -1.468 c -0.626,0 -1.134,0.508 -1.134,1.134 0,0.627 0.508,1.134 1.134,1.134 h 1.468 C -0.508,1.134 0,0.627 0,0"
       style="fill:#e9e9e9;fill-opacity:1;fill-rule:nonzero;stroke:#231f20;stroke-width:0.4;stroke-linecap:round;stroke-linejoin:round;stroke-miterlimit:4;stroke-dasharray:none;stroke-opacity:1"
       transform="matrix(0.35277776,0,0,-0.35277776,71.315679,193.1236)"
       clip-path="url(#clipPath5774)" />
    <path
       id="path5775"
       d="m 0,0 c 0,-0.626 -0.508,-1.133 -1.134,-1.133 h -1.468 c -0.626,0 -1.134,0.507 -1.134,1.133 0,0.627 0.508,1.134 1.134,1.134 h 1.468 C -0.508,1.134 0,0.627 0,0"
       style="fill:#e9e9e9;fill-opacity:1;fill-rule:nonzero;stroke:#231f20;stroke-width:0.4;stroke-linecap:round;stroke-linejoin:round;stroke-miterlimit:4;stroke-dasharray:none;stroke-opacity:1"
       transform="matrix(0.35277776,0,0,-0.35277776,71.315679,193.9237)"
       clip-path="url(#clipPath5776)" />
    <path
       id="path5777"
       d="m 0,0 c 0,-0.627 -0.508,-1.134 -1.134,-1.134 h -1.468 c -0.626,0 -1.134,0.507 -1.134,1.134 0,0.627 0.508,1.134 1.134,1.134 h 1.468 C -0.508,1.134 0,0.627 0,0"
       style="fill:#e9e9e9;fill-opacity:1;fill-rule:nonzero;stroke:#231f20;stroke-width:0.4;stroke-linecap:round;stroke-linejoin:round;stroke-miterlimit:4;stroke-dasharray:none;stroke-opacity:1"
       transform="matrix(0.35277776,0,0,-0.35277776,71.315679,194.72345)"
       clip-path="url(#clipPath5778)" />
    <path
       id="path5779"
       d="M 0,0 H -2.267 C -3.52,0 -4.535,-1.015 -4.535,-2.268 v -7.471 c 0,-1.252 1.015,-2.267 2.268,-2.267 v 9.738 H 0 c 0.627,0 1.134,0.508 1.134,1.134 C 1.134,-0.508 0.627,0 0,0"
       style="fill:#e9e9e9;fill-opacity:1;fill-rule:nonzero;stroke:#231f20;stroke-width:0.4;stroke-linecap:round;stroke-linejoin:round;stroke-miterlimit:4;stroke-dasharray:none;stroke-opacity:1"
       transform="matrix(0.35277776,0,0,-0.35277776,67.551531,191.12335)"
       clip-path="url(#clipPath5780)" />
    <path
       id="path5781"
       d="M 0,0 V -1.024 H -0.781 V 0 h -1.03 v 0.781 h 1.03 V 1.804 H 0 V 0.781 H 1.024 V 0 Z"
       style="fill:#231f20;fill-opacity:1;fill-rule:nonzero;stroke:none"
       transform="matrix(0.35277776,0,0,-0.35277776,67.94875,193.69404)"
       clip-path="url(#clipPath5782)" />
    <path
       id="path5783"
       d="M 0,0 V 0.704 H 0.768 V 3.661 L -0.16,2.855 V 3.75 L 0.768,4.557 H 1.6 V 0.704 H 2.31 V 0 Z"
       style="fill:#231f20;fill-opacity:1;fill-rule:nonzero;stroke:none"
       transform="matrix(0.35277776,0,0,-0.35277776,68.673365,194.18193)"
       clip-path="url(#clipPath5784)" />
  </g>
</svg>
